<svg width="2386" height="1880" viewBox="0 0 2386 1880" fill="none" xmlns="http://www.w3.org/2000/svg">
<path opacity="0.952" fill-rule="evenodd" clip-rule="evenodd" d="M0 475.999C0 447.528 0 419.058 0 390.587C14.6472 373.874 32.9541 368.789 54.9207 375.335C219.236 417.672 382.981 461.394 546.156 506.503C544.823 490.16 540.755 473.891 533.951 457.696C489.131 447.481 463.705 420.028 457.673 375.335C460.696 347.989 466.799 321.552 475.98 296.024C426.459 280.333 376.624 265.081 326.473 250.268C321.626 192.942 345.019 174.639 396.65 195.36C392.466 172.256 398.568 152.937 414.957 137.402C447.537 140.435 480.083 145.519 512.593 152.654C513.631 144.588 511.596 137.471 506.491 131.301C472.763 124.806 440.218 114.637 408.854 100.797C396.014 72.2163 403.134 50.8634 430.212 36.7381C461.61 45.3482 493.139 53.4831 524.798 61.1415C538.216 45.8162 552.455 30.5638 567.514 15.3852C582.997 4.17441 600.288 -0.909604 619.384 0.133091C765.381 35.2238 910.823 72.8453 1055.7 112.999C1138.89 145.324 1200.93 201.249 1241.82 280.772C1277.85 340.021 1299.2 404.079 1305.89 472.948C1303.74 514.198 1294.59 553.854 1278.43 591.914C1250.72 624.53 1215.12 637.75 1171.64 631.57C1162.38 641.85 1152.21 651.001 1141.13 659.024C1327.67 710.734 1514.8 760.554 1702.54 808.494C1713.73 811.545 1720.85 818.664 1723.9 829.847C1728.61 862.816 1726.58 895.358 1717.8 927.461C1695.49 967.543 1661.93 980.764 1617.11 967.116C1194.46 836.089 771.362 706.958 347.831 579.713C348.848 1002.71 347.831 1425.7 344.78 1848.69C341.729 1851.74 338.678 1854.79 335.627 1857.84C278.672 1861.91 221.717 1861.91 164.762 1857.84C161.711 1854.79 158.66 1851.74 155.609 1848.69C152.558 1411.46 151.54 974.236 152.558 537.007C117.918 538.02 83.3385 537.003 48.8184 533.957C24.3802 520.774 8.10734 501.454 0 475.999ZM610.23 73.3432C746.44 103.839 880.69 140.444 1012.98 183.158C1001.85 225.643 991.679 268.349 982.471 311.276C984.826 349.578 1003.13 377.032 1037.39 393.637C1101.23 409.493 1164.29 427.795 1226.56 448.545C1230.27 456.055 1232.3 464.189 1232.67 472.948C1227.98 500.82 1221.88 528.274 1214.36 555.31C1206.22 555.31 1198.08 555.31 1189.95 555.31C1184.21 499.727 1153.7 466.173 1098.41 454.646C1078.08 450.578 1057.73 450.578 1037.39 454.646C1012.2 465.802 988.811 479.02 967.215 494.301C901.353 476.568 835.24 460.299 768.89 445.494C764.112 394.953 737.671 361.399 689.56 344.831C636.934 331.309 592.186 343.511 555.31 381.436C544.352 384.096 536.215 380.028 530.9 369.234C540.77 326.69 552.974 285.001 567.514 244.167C604.977 254.802 642.609 264.97 680.407 274.671C706.152 262.215 714.287 241.879 704.816 213.662C667.397 195.394 627.732 183.192 585.821 177.057C584.222 168.042 586.256 159.907 591.923 152.654C633.443 163.015 650.731 146.746 643.793 103.847C633.413 92.1941 620.195 85.0763 604.128 82.4944C607.521 80.1602 609.555 77.1098 610.23 73.3432ZM1080.11 207.562C1136.68 245.949 1173.3 296.789 1189.95 360.083C1144.41 350.003 1100.68 335.768 1058.75 317.377C1063.83 280.702 1070.95 244.097 1080.11 207.562ZM640.742 408.889C669.807 410.111 688.114 424.346 695.662 451.595C682.817 484.463 660.44 493.614 628.537 479.049C602.453 449.831 606.522 426.444 640.742 408.889ZM750.583 512.604C821.083 529.33 890.247 549.666 958.061 573.612C965.409 588.271 967.447 602.506 964.164 616.318C880.458 593.873 797.064 570.487 713.969 546.158C729.201 538.038 741.405 526.853 750.583 512.604ZM1055.7 524.805C1097.63 520.665 1116.95 538.968 1113.67 579.713C1085.4 605.324 1058.96 603.286 1034.34 573.612C1029.94 551.931 1037.06 535.662 1055.7 524.805Z" fill="#6264FB"/>
<path opacity="0.974" fill-rule="evenodd" clip-rule="evenodd" d="M500.389 799.343C616.619 796.69 732.563 799.74 848.22 808.495C919.562 826.962 967.367 870.687 991.624 939.663C995.694 1059.65 995.694 1179.63 991.624 1299.61C977.027 1334.55 953.631 1362 921.448 1381.97C954.614 1392.77 978.004 1414.12 991.624 1446.03C995.694 1582.28 995.694 1718.54 991.624 1854.79C942.269 1861.79 892.437 1862.81 842.118 1857.84C829.156 1850.99 817.971 1841.84 808.555 1830.39C800.64 1710.8 796.57 1590.81 796.35 1470.44C788.301 1458.31 777.116 1451.19 762.788 1449.08C738.464 1446.04 714.055 1445.02 689.56 1446.03C692.404 1574.56 689.353 1702.68 680.407 1830.39C670.991 1841.84 659.805 1850.99 646.844 1857.84C596.526 1862.81 546.691 1861.79 497.338 1854.79C492.279 1502.54 493.297 1150.73 500.389 799.343ZM689.56 939.663C716.081 938.65 742.522 939.669 768.89 942.713C779.789 947.502 788.942 954.616 796.35 964.066C800.421 1067.78 800.421 1171.49 796.35 1275.21C788.863 1288.79 777.671 1297.94 762.788 1302.66C738.464 1305.71 714.055 1306.73 689.56 1305.71C689.56 1183.7 689.56 1061.68 689.56 939.663Z" fill="#6264FB"/>
<path opacity="0.95" fill-rule="evenodd" clip-rule="evenodd" d="M1257.07 976.268C1318.35 974.706 1379.37 977.756 1440.14 985.419C1494.94 1002.25 1522.4 1039.86 1522.52 1098.28C1525.58 1226.38 1526.59 1354.5 1525.58 1482.64C1440.14 1482.64 1354.71 1482.64 1269.28 1482.64C1268.26 1564 1269.28 1645.35 1272.33 1726.67C1277.41 1731.75 1282.5 1736.84 1287.59 1741.92C1318.45 1748.08 1347.94 1745.03 1376.07 1732.77C1384.89 1676.49 1387.94 1619.54 1385.22 1561.95C1432.01 1561.95 1478.79 1561.95 1525.58 1561.95C1526.59 1627.06 1525.58 1692.13 1522.52 1757.18C1518.6 1836.34 1476.9 1876 1397.43 1876.14C1320.81 1884.06 1245.55 1877.96 1171.64 1857.84C1137.62 1833.56 1120.33 1800 1119.77 1757.18C1115.7 1537.54 1115.7 1317.91 1119.77 1098.28C1119.55 1036.48 1149.04 998.853 1208.26 985.419C1225.74 984.303 1242.01 981.252 1257.07 976.268ZM1318.1 1110.49C1334.37 1113.13 1350.63 1116.18 1366.92 1119.64C1374.24 1125.15 1379.33 1132.26 1382.17 1140.99C1385.22 1214.17 1386.24 1287.38 1385.22 1360.62C1346.58 1360.62 1307.92 1360.62 1269.28 1360.62C1268.26 1285.35 1269.28 1210.11 1272.33 1134.89C1274.21 1129.96 1277.26 1125.89 1281.48 1122.69C1294.65 1119.33 1306.85 1115.26 1318.1 1110.49Z" fill="#6264FB"/>
<path opacity="0.975" fill-rule="evenodd" clip-rule="evenodd" d="M2386 1031.18C2386 1305.71 2386 1580.25 2386 1854.79C2333.59 1861.72 2280.7 1862.73 2227.34 1857.84C2212.08 1850.72 2200.9 1839.54 2193.78 1824.28C2202.92 1665.78 2214.11 1507.16 2227.34 1348.42C2226.23 1331.79 2223.18 1315.52 2218.19 1299.61C2186.16 1486.68 2150.57 1672.75 2111.4 1857.84C2048.88 1862.84 1986.85 1861.82 1925.28 1854.79C1888.36 1672.26 1853.78 1489.24 1821.54 1305.71C1818 1318.82 1814.95 1332.04 1812.38 1345.37C1826.05 1505.06 1837.23 1664.7 1845.95 1824.28C1838.82 1839.54 1827.64 1850.72 1812.38 1857.84C1760.03 1862.82 1708.16 1861.8 1656.77 1854.79C1653.72 1578.23 1652.7 1301.66 1653.72 1025.07C1731.05 1024.06 1808.34 1025.07 1885.61 1028.12C1902.06 1032.33 1915.29 1041.49 1925.28 1055.58C1956.15 1242.83 1987.68 1429.93 2019.86 1616.86C2051.67 1429.81 2083.2 1242.72 2114.45 1055.58C2126.36 1040.97 2141.61 1031.82 2160.21 1028.12C2235.94 1023.17 2311.2 1024.19 2386 1031.18Z" fill="#6264FB"/>
</svg>
