<svg width="629" height="479" viewBox="0 0 629 479" fill="none" xmlns="http://www.w3.org/2000/svg">
<g clip-path="url(#clip0_308_121)">
<path d="M381.405 144.342C382.187 144.378 382.962 144.173 383.624 143.754C384.286 143.335 384.803 142.722 385.105 141.999C385.407 141.276 385.48 140.478 385.314 139.712C385.147 138.946 384.749 138.251 384.174 137.719C384.078 137.336 384.008 137.061 383.912 136.678C383.947 136.594 383.981 136.511 384.016 136.428C387.534 128.038 399.455 128.096 402.942 136.498C406.038 143.955 409.979 151.425 410.95 159.31C411.377 162.795 411.197 166.328 410.417 169.752C417.687 153.888 421.463 136.646 421.487 119.195C421.488 114.816 421.245 110.441 420.758 106.089C420.356 102.521 419.798 98.9786 419.084 95.4617C415.187 76.3794 406.82 58.4938 394.671 43.2738C388.79 40.0646 384.035 35.1295 381.045 29.1337C379.962 26.9784 379.196 24.6776 378.772 22.3029C379.436 22.3899 381.273 12.2851 380.773 11.6651C381.698 10.262 383.352 9.56453 384.362 8.19538C389.383 1.3861 396.301 2.57505 399.912 11.8283C407.627 15.7229 407.702 22.1819 402.968 28.394C399.956 32.3461 399.542 37.6938 396.9 41.9249C397.172 42.273 397.455 42.6102 397.726 42.9584C402.696 49.3502 407.027 56.2138 410.658 63.4508C409.631 55.4243 411.148 45.7545 413.733 39.5212C416.677 32.4191 422.194 26.4376 427.052 20.2978C432.887 12.923 444.853 16.1415 445.882 25.4903C445.891 25.5808 445.901 25.6713 445.911 25.7617C445.189 26.1689 444.483 26.6011 443.792 27.0583C442.923 27.6386 442.251 28.4676 441.861 29.4368C441.472 30.406 441.385 31.4702 441.611 32.4899C441.837 33.5096 442.365 34.4373 443.127 35.1514C443.889 35.8655 444.849 36.3328 445.881 36.4919L445.987 36.5082C445.73 39.1096 445.275 41.6876 444.627 44.2201C450.86 68.3285 437.404 77.1093 418.192 77.5038C417.768 77.7213 417.355 77.9388 416.93 78.1455C420.579 88.4865 422.867 99.258 423.738 110.189C424.231 116.638 424.202 123.117 423.651 129.561L423.683 129.333C425.075 122.167 428.897 115.701 434.503 111.027C442.83 104.185 454.594 101.666 463.577 96.1663C467.901 93.519 473.442 96.94 472.687 101.954C472.675 102.035 472.663 102.115 472.651 102.195C471.312 102.74 470.008 103.369 468.747 104.076C468.025 104.484 467.319 104.916 466.628 105.373C465.76 105.953 465.087 106.782 464.698 107.751C464.309 108.721 464.221 109.785 464.447 110.804C464.673 111.824 465.201 112.752 465.963 113.466C466.725 114.18 467.685 114.647 468.717 114.807L468.823 114.823C468.899 114.834 468.964 114.845 469.04 114.856C466.752 120.32 463.541 125.35 459.547 129.724C455.65 150.77 438.913 152.767 421.008 146.638H420.997C419.033 155.177 416.187 163.488 412.505 171.438H382.165C382.056 171.101 381.958 170.752 381.861 170.415C384.669 170.592 387.488 170.424 390.256 169.915C388.005 167.152 385.754 164.368 383.503 161.605C383.452 161.553 383.405 161.499 383.361 161.442C382.219 160.028 381.067 158.625 379.925 157.211L379.924 157.209C379.863 152.875 380.361 148.55 381.404 144.343L381.405 144.342Z" fill="#F2F2F2"/>
<path d="M478.815 66.6783C473.174 46.1057 518.674 28.4643 530.622 45.0315C532.284 42.6761 538.423 41.2454 541.241 41.968C544.058 42.6905 546.427 44.4968 548.739 46.2453C551.917 48.6875 555.211 51.2163 557.161 54.7277C559.126 58.2247 559.429 62.9934 556.786 66.028C554.691 68.4412 548.507 70.0019 545.358 70.6377C543.162 71.0857 541.313 71.4469 539.724 71.707C538.28 69.6268 537.615 67.1046 537.846 64.583C536.776 65.3047 535.879 66.2542 535.22 67.3635C534.56 68.4728 534.155 69.7143 534.032 70.999C533.988 71.5336 551.787 137.038 551.787 137.038C549.648 138.255 547.399 139.266 545.069 140.058C540.46 133.012 536.93 125.316 534.595 117.226C534.058 122.636 534.126 128.088 534.797 133.483C535.154 136.508 535.665 139.512 536.329 142.485C515.178 147.052 483.366 145.549 469.526 126.127C469.524 126.047 469.521 125.967 469.519 125.886C469.508 125.12 469.231 124.381 468.736 123.796C468.24 123.211 467.557 122.817 466.802 122.681C466.048 122.544 465.27 122.675 464.601 123.049C463.932 123.424 463.415 124.019 463.136 124.734C462.801 125.591 462.492 126.332 462.216 126.922C458.185 112.501 463.401 95.8104 478.815 66.6783Z" fill="#2F2E41"/>
<path d="M442.824 411.584V412.258C442.798 412.034 442.798 411.808 442.824 411.584Z" fill="#2F2E41"/>
<path d="M463.537 295.157C464.074 295.012 464.622 294.905 465.175 294.839C464.54 294.942 463.994 295.048 463.537 295.157Z" fill="#2F2E41"/>
<path d="M463.057 295.279C463.203 295.239 463.364 295.198 463.537 295.157C463.376 295.199 463.222 295.23 463.057 295.279Z" fill="#2F2E41"/>
<path d="M616.083 478.997H538.556C537.45 478.114 536.682 476.877 536.38 475.495C536.077 474.112 536.26 472.667 536.897 471.403C539.014 466.545 534.864 462.105 534.864 462.105C533.456 460.454 532.476 458.481 532.012 456.36C531.549 454.24 531.616 452.038 532.207 449.949C534.261 442.773 526.212 422.519 526.212 422.519C526.212 422.519 521.872 448.672 516.555 478.997H442.824C441.589 476.893 440.938 474.497 440.938 472.057C440.938 469.616 441.589 467.22 442.824 465.116C447.121 457.829 442.824 456.431 442.824 456.431C442.824 456.431 438.527 448.276 442.824 442.355C447.121 436.434 442.824 412.258 442.824 412.258C442.986 413.327 444.21 411.383 446.095 407.308C448.964 401.109 453.349 389.96 457.779 377.016C460.946 367.778 464.139 357.614 466.807 347.676H466.814C467.513 345.065 468.176 342.478 468.802 339.915C470.026 334.888 471.076 330.003 471.872 325.416C473.601 315.537 474.171 307.051 472.844 301.531C471.743 296.938 469.333 294.405 465.175 294.839C467.403 294.47 470.668 294.12 474.69 293.789C475.415 293.731 476.166 293.673 476.943 293.608C506.944 291.341 571.309 290.039 571.309 290.039L591.024 325.352L615.992 370.084C615.992 370.084 615.312 430.093 616.083 478.997Z" fill="#2F2E41"/>
<path d="M533.334 137.409L487.913 127.771L478.894 145.929L448.523 163.517C448.523 163.517 468.1 243.581 467.988 254.841C467.705 283.43 421.972 347.518 456.515 342.587C491.059 337.657 498.075 317.006 509.165 320.271C519.166 323.216 531.378 336.317 539.553 326.947C547.728 317.578 550.608 328.397 555.778 328.771C558.234 328.949 556.755 316.94 562.936 329.144C569.117 341.349 601.895 324.92 590.786 313.808C572.284 295.302 568.523 158.876 568.523 158.876L547.927 152.537L533.334 137.409Z" fill="#E6E6E6"/>
<path d="M447.664 428.168C449.489 425.991 450.393 423.188 450.183 420.354C449.974 417.521 448.667 414.882 446.541 412.998C446.103 412.622 445.635 412.282 445.141 411.983L452.735 374.702L435.179 364.192L430.295 416.388C429.215 418.533 428.875 420.975 429.328 423.334C429.782 425.692 431.003 427.835 432.801 429.426C433.833 430.322 435.032 431.006 436.328 431.438C437.624 431.871 438.993 432.043 440.356 431.947C441.719 431.85 443.05 431.486 444.272 430.875C445.494 430.264 446.584 429.418 447.48 428.386C447.542 428.314 447.604 428.241 447.664 428.168Z" fill="#A0616A"/>
<path d="M502.177 231.656C502.067 230.458 500.538 229.914 498.42 229.162C496.293 228.507 494.271 227.549 492.416 226.318C487.727 222.93 489.573 219.386 492.125 214.489C492.624 213.536 493.142 212.545 493.627 211.515C495.072 208.464 492.773 195.877 486.782 174.097C484.936 167.392 484.942 162.656 483.666 159.514C482.397 156.372 479.851 154.824 472.915 154.5C464.531 154.076 456.321 156.996 450.084 162.617C449.916 162.766 449.741 162.928 449.573 163.084C449.256 163.382 448.945 163.686 448.64 163.997C442.873 169.8 439.573 177.609 439.43 185.79L439.398 187.183L437.967 253.728L433.945 312.123L428.4 392.564L432.507 392.765L448.893 393.581L450.881 393.678L455.596 373.893L461.27 350.086L463.355 341.34L469.826 314.209L472.844 301.531L474.69 293.789L475.441 290.628L479.107 275.262C479.191 274.938 487.624 241.659 497.345 236.094C500.972 234.021 502.28 232.816 502.177 231.656Z" fill="#E6E6E6"/>
<path d="M611.252 427.771C609.204 425.803 608.004 423.113 607.909 420.274C607.813 417.435 608.828 414.67 610.74 412.568C611.135 412.147 611.564 411.76 612.023 411.41L600.47 375.16L616.796 362.824L627.256 414.193C628.56 416.21 629.16 418.602 628.963 420.996C628.766 423.389 627.781 425.65 626.164 427.426C625.234 428.427 624.116 429.236 622.874 429.805C621.631 430.374 620.289 430.693 618.924 430.743C617.558 430.794 616.196 430.575 614.915 430.099C613.634 429.622 612.46 428.899 611.459 427.968C611.389 427.904 611.32 427.838 611.252 427.771Z" fill="#A0616A"/>
<path d="M619.239 349.113C619.239 349.113 606.505 304.301 610.389 299.45C614.272 294.599 602.803 293.651 607.745 284.616C612.688 275.582 605.866 274.07 605.866 274.07L602.164 253.297L595.546 202.273L595.346 200.756L593.421 185.911C592.883 181.672 591.496 177.584 589.343 173.892C587.19 170.201 584.314 166.981 580.889 164.427C580.714 164.293 580.535 164.164 580.356 164.035C579.542 163.449 578.709 162.905 577.859 162.405C571.507 158.656 564.047 157.239 556.762 158.396C543.037 160.534 547.309 165.654 545.083 179.369C541.466 201.67 540.527 214.428 542.291 217.311C542.885 218.282 543.509 219.21 544.105 220.102C547.169 224.703 549.385 228.023 545.084 231.903C543.37 233.321 541.463 234.488 539.421 235.368C537.4 236.347 535.936 237.05 535.956 238.253C535.979 239.419 537.408 240.472 541.234 242.142C545.87 244.171 550.85 251.844 554.929 259.682C558.165 266.001 561.051 272.492 563.574 279.127L598.631 377.746L604.349 393.829L606.321 393.517L622.519 390.949L626.581 390.306L619.239 349.113Z" fill="#E6E6E6"/>
<path d="M514.171 127.091C534.637 127.091 551.228 110.495 551.228 90.0244C551.228 69.5533 534.637 52.9583 514.171 52.9583C493.705 52.9583 477.114 69.5533 477.114 90.0244C477.114 110.495 493.705 127.091 514.171 127.091Z" fill="#A0616A"/>
<path d="M458.59 69.5683C452.948 48.9957 498.448 31.3543 510.396 47.9215C512.058 45.5661 518.198 44.1355 521.015 44.858C523.832 45.5805 526.201 47.3868 528.513 49.1353C531.691 51.5775 534.985 54.1063 536.935 57.6178C538.9 61.1147 539.204 65.8835 536.56 68.918C534.465 71.3312 528.282 72.8919 525.132 73.5277C522.936 73.9757 521.087 74.3369 519.498 74.597C518.054 72.5169 517.39 69.9946 517.62 67.473C516.55 68.1947 515.654 69.1442 514.994 70.2535C514.335 71.3628 513.929 72.6043 513.806 73.889C513.763 74.4236 531.561 139.928 531.561 139.928C529.423 141.145 527.173 142.156 524.843 142.948C520.234 135.902 516.704 128.206 514.369 120.116C513.833 125.526 513.901 130.978 514.572 136.373C514.928 139.398 515.44 142.402 516.103 145.375C494.953 149.942 463.14 148.439 449.3 129.017C449.298 128.937 449.296 128.857 449.293 128.776C449.283 128.01 449.006 127.271 448.51 126.686C448.014 126.101 447.331 125.707 446.577 125.571C445.822 125.434 445.044 125.565 444.375 125.939C443.707 126.314 443.189 126.909 442.911 127.624C442.575 128.481 442.266 129.222 441.99 129.812C437.959 115.391 443.175 98.7004 458.59 69.5683Z" fill="#2F2E41"/>
<path d="M274.809 197.648C274.027 197.684 273.252 197.478 272.59 197.059C271.928 196.64 271.411 196.027 271.109 195.304C270.806 194.582 270.734 193.783 270.9 193.017C271.067 192.252 271.465 191.556 272.04 191.024C272.136 190.641 272.206 190.366 272.302 189.983C272.267 189.899 272.233 189.816 272.198 189.733C268.68 181.343 256.759 181.401 253.271 189.803C250.176 197.261 246.235 204.73 245.264 212.615C244.837 216.101 245.017 219.634 245.797 223.057C238.527 207.194 234.751 189.952 234.727 172.501C234.726 168.122 234.969 163.746 235.456 159.394C235.858 155.826 236.416 152.284 237.13 148.767C241.027 129.685 249.394 111.799 261.543 96.5792C267.424 93.37 272.179 88.4349 275.169 82.4391C276.252 80.2838 277.018 77.983 277.442 75.6083C276.778 75.6953 274.941 65.5905 275.441 64.9705C274.516 63.5674 272.862 62.87 271.852 61.5008C266.831 54.6915 259.913 55.8805 256.302 65.1337C248.587 69.0284 248.512 75.4873 253.246 81.6994C256.258 85.6515 256.672 90.9993 259.314 95.2303C259.042 95.5784 258.759 95.9157 258.488 96.2638C253.518 102.656 249.187 109.519 245.556 116.756C246.583 108.73 245.066 99.0599 242.481 92.8266C239.537 85.7245 234.02 79.743 229.162 73.6032C223.327 66.2284 211.361 69.4469 210.332 78.7957C210.323 78.8862 210.313 78.9767 210.303 79.0672C211.025 79.4743 211.731 79.9065 212.422 80.3638C213.291 80.944 213.963 81.773 214.353 82.7422C214.742 83.7114 214.829 84.7756 214.603 85.7953C214.377 86.815 213.849 87.7427 213.087 88.4569C212.325 89.171 211.365 89.6382 210.333 89.7973L210.227 89.8136C210.484 92.415 210.939 94.993 211.587 97.5255C205.354 121.634 218.81 130.415 238.022 130.809C238.446 131.027 238.859 131.244 239.284 131.451C235.635 141.792 233.347 152.563 232.476 163.495C231.983 169.944 232.012 176.422 232.563 182.867L232.531 182.638C231.139 175.472 227.317 169.006 221.71 164.332C213.384 157.49 201.62 154.971 192.637 149.472C188.313 146.824 182.772 150.245 183.527 155.26C183.539 155.34 183.551 155.42 183.563 155.5C184.902 156.046 186.206 156.674 187.467 157.382C188.189 157.789 188.895 158.221 189.586 158.678C190.454 159.259 191.127 160.088 191.516 161.057C191.905 162.026 191.993 163.09 191.767 164.11C191.541 165.13 191.013 166.057 190.251 166.771C189.489 167.486 188.529 167.953 187.497 168.112L187.391 168.128C187.315 168.139 187.25 168.15 187.174 168.161C189.462 173.625 192.673 178.655 196.667 183.03C200.564 204.075 217.301 206.072 235.206 199.944H235.217C237.181 208.482 240.027 216.793 243.709 224.743H274.049C274.158 224.406 274.255 224.058 274.353 223.721C271.545 223.897 268.726 223.729 265.958 223.22C268.209 220.458 270.46 217.673 272.711 214.91C272.762 214.859 272.809 214.804 272.853 214.747C273.994 213.333 275.147 211.93 276.289 210.516L276.29 210.514C276.35 206.18 275.853 201.856 274.81 197.648L274.809 197.648Z" fill="#F2F2F2"/>
<path d="M133.243 45.0322C132.554 46.6373 111.322 46.4653 110.35 47.8945C102.853 58.9288 129.879 105.877 122.382 116.925L121.338 118.171C123.783 117.043 126.133 115.717 128.363 114.206C128.563 109.684 128.763 105.147 128.978 100.625C131.224 103.498 133.036 106.685 134.358 110.085C136.103 108.854 137.535 106.572 145.017 102.084C148.046 98.7561 151.538 95.8809 155.386 93.5472L133.243 45.0322Z" fill="#2F2E41"/>
<path d="M148.661 135.464C146.318 133.937 143.645 132.992 140.863 132.705C138.081 132.419 135.272 132.8 132.667 133.817C130.062 134.835 127.737 136.459 125.886 138.554C124.034 140.65 122.709 143.158 122.02 145.868L89.7547 229.958L34.2948 198.465C34.0513 194.845 32.6679 191.395 30.343 188.61C28.0181 185.825 24.8711 183.848 21.3535 182.963C17.8359 182.077 14.1283 182.329 10.7625 183.681C7.39668 185.034 4.54558 187.418 2.61811 190.492C0.690632 193.565 -0.214193 197.17 0.0334075 200.79C0.281008 204.41 1.66832 207.858 3.99635 210.64C6.32439 213.423 9.47354 215.396 12.9922 216.277C16.5108 217.159 20.2181 216.903 23.5824 215.547C35.2617 228.015 85.8961 279.135 106.858 259.161C124.478 242.372 149.906 177.304 156.027 154.835C157.007 151.242 156.822 147.43 155.498 143.949C154.175 140.468 151.781 137.497 148.661 135.464Z" fill="#FFB6B6"/>
<path d="M88.0757 262.685L98.2576 308.717L172.711 315.453L179.553 275.371L88.0757 262.685Z" fill="#FFB6B6"/>
<path d="M201.804 380.728C201.77 381.388 201.729 382.041 201.682 382.701C200.968 392.238 200.152 403.239 199.267 415.294C197.873 434.424 196.316 456.207 194.744 478.997H38.5784L68.8652 387.942C68.8652 387.942 81.0943 381.207 74.8683 369.894C68.6423 358.58 80.8928 367.596 81.0068 351.439C81.1207 335.281 92.0983 318.092 92.0983 318.092L93.9007 293.629L94.9277 293.649L176.197 295.003L177.68 295.03L180.176 316.031C195.332 334.07 203.063 357.198 201.804 380.728Z" fill="#2F2E41"/>
<path d="M134.544 113.156L171.603 111.246L188.816 138.451C188.816 138.451 221.203 143.867 218.958 182.04C216.713 220.213 179.553 253.709 179.553 253.709L181.142 248.262L178.383 256.147L178.737 260.574L182.5 265.263L182.888 270.112L179.553 277.784C179.987 278.479 180.217 279.282 180.217 280.101C180.218 280.92 179.989 281.723 179.556 282.419C179.123 283.115 178.505 283.675 177.769 284.037C177.034 284.399 176.213 284.547 175.398 284.466L121.85 279.098C120.631 275.744 119.653 271.73 114.766 278.411L109.722 277.923L88.7532 275.891L87.519 271.394C86.8177 268.838 86.7084 266.157 87.1994 263.553C87.6904 260.949 88.7688 258.491 90.3525 256.367C88.5312 250.662 89.0082 244.472 91.6821 239.113L91.7824 238.912L94.0092 237.056C94.0092 237.056 69.6473 200.447 97.614 172.873L108.839 153.787L121.398 138.46L134.544 113.156Z" fill="#40419A"/>
<path d="M143.768 97.0966C163.176 97.0966 178.91 81.3592 178.91 61.946C178.91 42.5329 163.176 26.7954 143.768 26.7954C124.359 26.7954 108.626 42.5329 108.626 61.946C108.626 81.3592 124.359 97.0966 143.768 97.0966Z" fill="#FFB6B6"/>
<path d="M170.458 112.583C167.597 110.191 165.605 106.921 164.792 103.281C164.142 107.701 164.312 112.203 165.293 116.562C163.39 117.993 161.544 119.352 159.799 120.583C158.477 117.184 156.665 113.997 154.419 111.123C154.204 115.646 154.004 120.183 153.804 124.705C151.574 126.216 149.224 127.542 146.778 128.669L147.823 127.424C155.32 116.376 135.919 96.0388 143.416 85.0045C145.519 81.9132 136.019 57.4833 128.779 56.3813C122.34 55.4081 122.612 57.2687 116.374 58.6283C115.726 55.9258 114.72 53.3219 113.383 50.8856C113.739 53.6004 113.657 56.3546 113.14 59.0433C110.922 59.1291 109.178 57.7157 106.816 57.3545C91.7495 55.0504 93.2804 38.7495 97.4727 33.583C101.679 28.4308 115.644 26.8851 122.083 25.2106C122.669 24.6382 124 24.996 124.587 24.4521C136.926 13.1567 153.429 11.2861 168.28 16.2925C184.118 21.6314 193.992 31.9647 199.06 47.8946L200.514 60.6426C201.818 64.7415 200.178 83.8133 199.06 87.9671C194.718 104.113 185.469 96.0531 170.458 112.583Z" fill="#2F2E41"/>
<path d="M221.699 279.117L220.315 171.341C220.243 166.775 218.379 162.42 215.125 159.217C211.872 156.014 207.489 154.218 202.924 154.218C200.562 154.218 198.225 154.699 196.055 155.632C193.885 156.565 191.928 157.93 190.303 159.645C188.678 161.359 187.419 163.386 186.603 165.603C185.786 167.82 185.43 170.179 185.555 172.538L190.423 284.448L190.516 352.573C187.647 353.79 185.221 355.861 183.57 358.505C181.918 361.149 181.12 364.237 181.285 367.35C181.449 370.463 182.567 373.45 184.488 375.905C186.409 378.36 189.038 380.165 192.02 381.073C195.001 381.981 198.19 381.949 201.153 380.982C204.115 380.014 206.709 378.158 208.58 375.665C210.451 373.172 211.51 370.163 211.612 367.047C211.714 363.931 210.855 360.86 209.151 358.249L221.699 279.117Z" fill="#FFB6B6"/>
<path d="M403.07 418.555C403.07 418.555 400.931 457.047 399.948 479H326.284C324.768 459.022 324.258 444.344 324.258 444.344L320.227 479H245.768L241.152 414.816L263.459 359.506C263.459 359.506 384.35 351.12 395.564 361.758C406.771 372.389 403.07 418.555 403.07 418.555Z" fill="#2F2E41"/>
<path d="M337.931 94.7526C360.153 94.7526 378.168 76.7334 378.168 54.5056C378.168 32.2778 360.153 14.2587 337.931 14.2587C315.708 14.2587 297.693 32.2778 297.693 54.5056C297.693 76.7334 315.708 94.7526 337.931 94.7526Z" fill="#FFB6B6"/>
<path d="M384.831 41.4279C380.698 43.3129 378.02 56.9648 374.772 53.791C371.523 50.6172 371.74 46.487 367.361 45.3157C363.824 44.3658 360.018 45.4515 356.792 47.1637C356.216 47.4658 355.658 47.7943 355.113 48.121C354.754 47.8809 354.397 47.6549 354.013 47.4465C351.127 45.9019 347.759 45.523 344.603 46.3878C347.097 47.2234 349.265 48.8222 350.802 50.9579C349.722 51.6816 348.628 52.4072 347.51 53.0501C338.165 58.4443 324.867 46.7149 315.03 42.3084C321.192 53.8734 318.158 58.663 312.808 70.6237L312.623 71.3048C312.927 68.3071 303.654 66.0731 304.191 70.2929C304.573 73.289 307.165 79.9486 308.617 82.5938C298.275 70.6326 291.208 55.9954 292.699 40.8959C293.024 37.7239 292.926 34.3772 294.561 31.6241C296.199 28.8853 299.612 26.9633 302.632 28.0077C302.377 23.1923 303.43 18.3975 305.681 14.1332C307.932 9.86881 311.296 6.29422 315.416 3.78945C319.535 1.28469 324.256 -0.0566425 329.077 -0.0919364C333.898 -0.12723 338.639 1.14484 342.794 3.58902C346.656 5.85552 349.88 9.06107 353.419 11.8261C356.959 14.5911 361.039 17.0013 365.527 17.2296C368.374 17.3669 371.472 16.6717 373.918 18.1466C376.752 19.8581 377.237 23.4414 377.662 26.8894C375.135 27.1386 372.739 28.1358 370.781 29.7536C373.396 29.4868 376.029 30.0516 378.304 31.3675C378.347 31.3871 378.388 31.4105 378.427 31.4376C379.925 37.136 379.772 38.3992 384.831 41.4279Z" fill="#2F2E41"/>
<path d="M245.946 378.978C280.212 338.859 268.638 287.833 255.038 236.324L257.626 160.23C257.753 156.497 258.776 152.849 260.609 149.595C262.442 146.342 265.03 143.576 268.156 141.534L303.137 118.675L316.752 98.9856L354.282 102.739L375.093 124.754L398.129 142.344C403.913 146.761 408.314 152.74 410.813 159.576C413.313 166.412 413.806 173.82 412.235 180.927L390.19 280.646C390.19 280.646 399.41 332.341 393.784 338.05C388.158 343.76 373.662 338.053 385.157 344.462C398.953 352.154 411.497 350.734 404.516 357.717C397.534 364.701 406.37 374.409 406.37 374.409L245.946 378.978Z" fill="#40419A"/>
<path d="M260.597 437.283L266.309 396.575L243.515 390.066L239.007 433.32C237.12 435.05 235.754 437.272 235.061 439.737C234.368 442.201 234.376 444.81 235.084 447.27C235.792 449.73 237.172 451.943 239.069 453.662C240.966 455.38 243.304 456.536 245.822 456.998C248.339 457.46 250.935 457.21 253.318 456.277C255.702 455.344 257.777 453.765 259.313 451.717C260.848 449.668 261.781 447.232 262.008 444.682C262.235 442.133 261.746 439.57 260.597 437.283Z" fill="#FFB6B6"/>
<path d="M303.992 126.014C303.992 126.014 239.111 147.135 237.564 162.59C236.017 178.044 236.53 187.505 229.683 249.347L230.043 415.932C230.043 415.932 273.542 425.247 269.081 415.287C264.62 405.327 266.176 400.642 266.176 400.642C266.176 400.642 275.502 396.96 273.168 385.266C270.833 373.572 282.541 315.618 282.541 315.618L289.93 211.681L303.992 126.014Z" fill="#40419A"/>
<path d="M383.991 435.127L380.951 394.133L404.121 389.128L405.793 432.584C407.562 434.434 408.781 436.741 409.311 439.245C409.842 441.749 409.663 444.352 408.796 446.76C407.929 449.169 406.407 451.287 404.402 452.878C402.397 454.469 399.988 455.469 397.446 455.765C394.904 456.062 392.329 455.643 390.012 454.556C387.695 453.47 385.727 451.758 384.329 449.614C382.931 447.469 382.159 444.978 382.099 442.418C382.039 439.859 382.694 437.334 383.991 435.127Z" fill="#FFB6B6"/>
<path d="M361.03 121.686C361.03 121.686 424.391 147.005 424.925 162.527C425.459 178.05 424.328 187.457 427.12 249.614L415.874 415.819C415.874 415.819 371.86 422.271 376.962 412.624C382.064 402.977 380.817 398.199 380.817 398.199C380.817 398.199 371.752 393.916 374.845 382.399C377.939 370.883 370.044 312.287 370.044 312.287L369.463 208.09L361.03 121.686Z" fill="#40419A"/>
</g>
<defs>
<clipPath id="clip0_308_121">
<rect width="629" height="479" fill="white"/>
</clipPath>
</defs>
</svg>
