<svg width="382" height="356" viewBox="0 0 382 356" fill="none" xmlns="http://www.w3.org/2000/svg">
<g clip-path="url(#clip0_308_652)">
<path d="M26.0267 333.897C24.1903 333.897 22.3501 333.984 20.553 334.16L20.2914 334.185C8.37119 335.397 -0.347921 342.427 0.0106696 350.539L0.0799908 352.006C0.125712 352.933 0.174419 353.93 0.214507 355.036C0.23622 355.581 0.883361 356 1.68861 356H294.898C315.571 355.856 336.168 355.674 356.116 355.46C359.859 355.469 363.6 355.246 367.316 354.793C372.859 354.038 376.707 352.543 379.079 350.22H379.08C382.031 347.341 382.124 343.714 381.945 339.617C381.582 331.345 381.221 322.654 380.862 313.989C380.544 306.353 380.228 298.737 379.911 291.446C379.716 287.119 379.281 283.3 375.93 280.381C372.299 277.224 365.675 275.624 356.244 275.624C356.13 275.624 356.017 275.624 355.901 275.624C326.344 275.745 297.058 287.433 283.026 304.708C281.411 306.698 279.905 308.827 278.449 310.887C276.32 314.049 273.971 317.058 271.419 319.89C270.001 321.416 268.447 322.809 266.775 324.053C266.661 324.143 266.53 324.24 266.392 324.333C266.077 324.569 265.747 324.797 265.426 325C263.566 326.238 261.581 327.276 259.503 328.097L259.295 328.177C259.139 328.241 258.97 328.305 258.8 328.364C257.603 328.805 256.381 329.181 255.142 329.488C249.794 330.844 243.712 331.169 237.066 330.453C230.929 329.77 224.895 328.356 219.093 326.241C212.94 324.005 207.18 321.216 201.609 318.519C199.162 317.334 196.632 316.11 194.104 314.949C193.629 314.73 193.162 314.517 192.687 314.303C189.6 312.92 186.802 311.777 184.132 310.81C177.572 308.417 170.709 306.955 163.743 306.467C156.392 306.004 149.914 306.877 144.493 309.056C142.988 309.66 141.532 310.381 140.139 311.213C133.719 315.047 129.761 320.706 125.934 326.179C121.173 332.986 116.249 340.025 106.528 343.675C95.3101 347.889 78.9361 346.138 67.3516 343.093C63.7094 342.136 60.0717 341.034 56.5536 339.969C55.1327 339.538 53.7108 339.111 52.2879 338.686C49.4918 337.856 47.2035 337.22 45.0864 336.683L44.4168 336.512C44.0443 336.419 43.6715 336.326 43.2919 336.237C40.7772 335.63 38.4356 335.152 36.1297 334.776L35.5841 334.685C34.4903 334.519 33.4678 334.381 32.4643 334.265L32.0637 334.219C30.0587 334.003 28.0434 333.895 26.0267 333.897Z" fill="#F2F2F2"/>
<path d="M185.702 175.44C184.819 175.567 183.919 175.5 183.065 175.242C182.212 174.984 181.425 174.543 180.76 173.949C180.095 173.354 179.569 172.622 179.218 171.802C178.867 170.983 178.701 170.097 178.73 169.206L158.488 161.435L167.653 154.886L185.47 163.269C186.965 163.418 188.353 164.108 189.372 165.211C190.391 166.314 190.97 167.751 190.998 169.252C191.027 170.752 190.503 172.211 189.527 173.352C188.551 174.492 187.19 175.235 185.702 175.44L185.702 175.44Z" fill="#FFB7B7"/>
<path d="M174.135 169.865L177.296 158.728L177.14 158.622L147.535 138.532L121.944 112.88L107.036 118.83L108.015 123.544L108.079 123.602L142.104 154.047L142.136 154.062L174.135 169.865Z" fill="#3F3D56"/>
<path d="M143.807 195.304L97.9897 188.889L102.022 160.803H135.753L143.807 195.304Z" fill="#FFB6B6"/>
<path d="M65.9558 332.828L75.3546 335.01L88.2516 299.834L74.3802 296.614L65.9558 332.828Z" fill="#FFB6B6"/>
<path d="M57.2112 347.944L63.9512 349.509L66.633 343.431L68.2355 350.503L86.1118 354.653C86.9687 354.852 87.8668 354.772 88.675 354.425C89.4832 354.078 90.1592 353.482 90.6044 352.724C91.0495 351.966 91.2403 351.086 91.1492 350.212C91.058 349.338 90.6895 348.516 90.0975 347.866L78.1131 334.703L79.6081 328.276L64.3846 325.686L57.2112 347.944Z" fill="#2F2E41"/>
<path d="M123.948 338.06H133.597L138.189 300.881H123.948V338.06Z" fill="#FFB6B6"/>
<path d="M118.855 354.761H125.775L127.01 348.235L130.173 354.761H148.526C149.406 354.761 150.262 354.48 150.971 353.96C151.68 353.439 152.203 352.705 152.465 351.866C152.727 351.027 152.713 350.127 152.426 349.296C152.139 348.465 151.594 347.748 150.87 347.249L136.214 337.137V330.539L120.799 331.458L118.855 354.761Z" fill="#2F2E41"/>
<path d="M97.4103 184.123L142.218 180.562C155.44 211.417 147.033 260.674 136.871 316.122L122.459 317.984L121.342 228.884L85.213 311.773L70.1924 311.006L97.4103 184.123Z" fill="#2F2E41"/>
<path d="M123.492 102.873V87.7293C123.492 82.3475 121.352 77.1862 117.543 73.3807C113.733 69.5753 108.566 67.4374 103.179 67.4374C97.7919 67.4374 92.6253 69.5753 88.8159 73.3807C85.0066 77.1862 82.8665 82.3475 82.8665 87.7293C79.2864 95.182 81.5261 98.7253 82.8665 102.873C82.8677 103.595 83.1554 104.287 83.6666 104.798C84.1778 105.309 84.8709 105.596 85.5938 105.597H120.763C121.486 105.596 122.18 105.309 122.691 104.798C123.203 104.288 123.491 103.595 123.492 102.873Z" fill="#2F2E41"/>
<path d="M108.192 105.369C116.417 105.369 123.085 98.7081 123.085 90.4915C123.085 82.2749 116.417 75.614 108.192 75.614C99.967 75.614 93.2993 82.2749 93.2993 90.4915C93.2993 98.7081 99.967 105.369 108.192 105.369Z" fill="#FFB7B7"/>
<path d="M128.297 88.9404C128.293 84.6847 126.598 80.6047 123.586 77.5955C120.573 74.5863 116.489 72.8936 112.229 72.8888H109.197C104.937 72.8936 100.853 74.5863 97.8407 77.5955C94.8284 80.6047 93.134 84.6847 93.1292 88.9404V89.2434C95.3999 90.7942 97.5555 91.0209 99.5365 89.2434L101.722 83.1306L102.159 89.2434H105.47L106.574 86.1594L106.795 89.2434C111.268 93.049 119.727 91.2253 128.297 89.2434V88.9404Z" fill="#2F2E41"/>
<path d="M99.508 169.012L137.426 167.57L139.546 142.79C141.18 138.254 141.207 134.356 139.624 131.214C138.263 128.631 135.976 126.657 133.221 125.685L124.924 115.674C123.857 114.388 122.516 113.354 121 112.648C119.484 111.942 117.83 111.581 116.157 111.591L94.598 111.739C94.0786 111.427 90.9265 109.826 84.71 112.517C77.9676 115.436 79.5332 125.578 79.5501 125.68L79.5657 125.775L79.6397 125.84L93.9792 137.906L99.508 169.012Z" fill="#3F3D56"/>
<path d="M272.304 125.442C247.836 152.988 174.217 158.243 126.297 208.807C110.232 159.932 132.991 75.5637 155.672 43.3897C166.564 27.9392 183.154 17.4439 201.792 14.2126C220.43 10.9814 239.59 15.2788 255.056 26.1596C287.263 48.8177 298.449 96.0074 272.304 125.442Z" fill="#6C63FF"/>
<path d="M213.018 99.0155C225.865 99.0155 236.279 88.6116 236.279 75.7777C236.279 62.9438 225.865 52.5399 213.018 52.5399C200.171 52.5399 189.756 62.9438 189.756 75.7777C189.756 88.6116 200.171 99.0155 213.018 99.0155Z" fill="white"/>
<path d="M106.633 234.114C115.047 234.114 121.869 227.3 121.869 218.894C121.869 210.488 115.047 203.674 106.633 203.674C98.2183 203.674 91.397 210.488 91.397 218.894C91.397 227.3 98.2183 234.114 106.633 234.114Z" fill="#6C63FF"/>
<path d="M89.203 217.793C88.5395 217.198 88.0147 216.464 87.6655 215.644C87.3163 214.825 87.1512 213.938 87.1818 213.048C87.2125 212.157 87.4381 211.284 87.8428 210.49C88.2476 209.696 88.8216 209 89.5244 208.452L82.5222 187.949L93.4317 190.78L98.4033 209.815C99.2481 211.056 99.6076 212.564 99.4136 214.052C99.2197 215.54 98.4858 216.906 97.3511 217.89C96.2165 218.873 94.7599 219.407 93.2576 219.389C91.7552 219.372 90.3116 218.804 89.2004 217.794L89.203 217.793Z" fill="#FFB7B7"/>
<path d="M86.075 205.351L96.6598 200.639L93.1038 164.874L96.4156 128.809L82.2833 121.19L79.2891 124.962V125.048L77.7026 170.652L77.7111 170.686L86.075 205.351Z" fill="#3F3D56"/>
<path d="M338.455 273.189C337.715 275.961 335.771 278.27 333.425 279.952C333.042 280.227 332.649 280.482 332.251 280.721C332.129 280.793 332.006 280.869 331.879 280.935C331.741 281.017 331.603 281.093 331.465 281.165H320.431C320.232 280.762 320.038 280.354 319.844 279.952C315.115 270.024 311.793 259.311 312.36 248.4C312.584 244.167 313.474 239.997 314.997 236.041C318.028 228.157 323.558 221.333 331.164 217.898C331.353 217.811 331.552 217.724 331.746 217.643C331.685 217.862 331.624 218.076 331.562 218.295C330.746 221.232 330.17 224.23 329.838 227.26C329.807 227.494 329.782 227.729 329.762 227.968C329.037 235.275 329.68 242.653 331.659 249.725C331.664 249.74 331.67 249.76 331.675 249.776C332.108 251.34 332.612 252.881 333.185 254.398C333.634 255.596 334.118 256.778 334.649 257.94C336.863 262.817 339.832 268.016 338.455 273.189Z" fill="#E6E6E6"/>
<path d="M331.884 217.872C331.777 218.015 331.67 218.152 331.562 218.295C329.322 221.262 327.419 224.468 325.889 227.856C325.808 228.024 325.731 228.192 325.665 228.366C323.569 233.096 322.223 238.124 321.675 243.268C321.669 243.303 321.666 243.339 321.665 243.375C321.538 244.577 321.461 245.79 321.43 247.003C321.317 249.277 321.563 251.554 322.16 253.751C322.704 255.545 323.658 257.188 324.946 258.552C325.073 258.689 325.201 258.827 325.338 258.96C325.44 259.067 325.553 259.174 325.66 259.275C326.69 260.259 327.818 261.171 328.787 262.226C329.231 262.699 329.633 263.211 329.986 263.755C330.55 264.667 330.914 265.688 331.055 266.751C331.196 267.814 331.11 268.895 330.802 269.922C330.108 272.501 328.522 274.677 326.899 276.751C326.088 277.791 325.252 278.841 324.527 279.952C324.262 280.349 324.017 280.752 323.793 281.165H323.15C323.364 280.752 323.599 280.349 323.854 279.952C325.716 277.021 328.364 274.504 329.736 271.278C330.665 269.101 330.945 266.635 329.772 264.499C329.428 263.878 329.012 263.3 328.532 262.777C327.598 261.722 326.481 260.82 325.466 259.867C325.211 259.627 324.961 259.383 324.721 259.128C323.45 257.837 322.469 256.291 321.844 254.592C321.136 252.434 320.801 250.171 320.854 247.9C320.854 246.453 320.931 244.995 321.073 243.548C321.089 243.364 321.109 243.176 321.13 242.987C322.173 233.879 325.638 225.216 331.165 217.898C331.267 217.755 331.374 217.617 331.481 217.48C331.7 217.194 332.103 217.592 331.884 217.872Z" fill="white"/>
<path d="M321.335 243.596C319.568 243.3 317.964 242.385 316.81 241.016C315.655 239.648 315.025 237.913 315.033 236.123C315.034 236.05 315.063 235.981 315.114 235.929C315.166 235.877 315.236 235.847 315.309 235.845C315.382 235.844 315.452 235.871 315.506 235.92C315.56 235.97 315.592 236.038 315.596 236.111C315.586 237.778 316.173 239.393 317.251 240.666C318.329 241.938 319.826 242.784 321.473 243.05C321.831 243.109 321.691 243.654 321.335 243.596Z" fill="white"/>
<path d="M324.804 258.654C327.806 256.558 329.907 253.408 330.688 249.833C330.765 249.479 331.311 249.617 331.234 249.971C330.415 253.69 328.222 256.963 325.093 259.138C324.794 259.345 324.507 258.86 324.804 258.654Z" fill="white"/>
<path d="M325.72 227.796C326.38 228.053 327.094 228.143 327.796 228.056C328.499 227.97 329.17 227.71 329.747 227.301C330.043 227.09 330.33 227.575 330.036 227.784C329.396 228.234 328.655 228.519 327.879 228.616C327.102 228.714 326.314 228.62 325.583 228.342C325.511 228.322 325.451 228.275 325.413 228.212C325.375 228.148 325.362 228.073 325.378 228C325.397 227.928 325.443 227.866 325.507 227.828C325.571 227.79 325.648 227.778 325.72 227.796Z" fill="white"/>
<path d="M370.156 237.58C369.978 237.718 369.794 237.855 369.616 237.998C367.194 239.85 364.926 241.895 362.836 244.114C362.672 244.282 362.509 244.455 362.351 244.628L362.346 244.633C357.389 250.009 353.47 256.253 350.785 263.052L350.77 263.098C350.765 263.113 350.76 263.123 350.755 263.139C349.691 265.86 348.833 268.657 348.189 271.507C347.566 274.289 347.056 277.271 346.082 279.952C345.934 280.364 345.771 280.772 345.597 281.165H322.915C322.992 280.762 323.073 280.354 323.155 279.952C324.309 274.046 326.112 268.286 328.532 262.777C328.614 262.593 328.695 262.41 328.787 262.226C330.036 259.504 331.505 256.888 333.18 254.403L333.18 254.401L333.181 254.4L333.183 254.398L333.185 254.398C334.104 253.043 335.092 251.734 336.144 250.479C338.872 247.236 342.095 244.443 345.694 242.202C345.714 242.187 345.74 242.177 345.76 242.162C352.923 237.723 361.412 235.608 369.529 237.437H369.534C369.743 237.483 369.947 237.529 370.156 237.58Z" fill="#E6E6E6"/>
<path d="M370.131 237.85C369.957 237.896 369.784 237.947 369.616 237.998C366.04 239.018 362.589 240.432 359.326 242.213C359.162 242.299 358.999 242.391 358.836 242.483C354.326 244.997 350.232 248.193 346.699 251.957C346.696 251.96 346.694 251.963 346.694 251.967C346.653 252.008 346.607 252.054 346.571 252.095C345.755 252.971 344.969 253.883 344.225 254.821C342.768 256.57 341.594 258.535 340.745 260.646C340.097 262.406 339.868 264.292 340.077 266.156C340.092 266.344 340.118 266.528 340.143 266.716C340.164 266.864 340.184 267.012 340.21 267.165C340.546 269.208 341.128 271.257 340.965 273.342C340.865 274.41 340.541 275.445 340.012 276.378C339.484 277.312 338.763 278.123 337.899 278.759C337.311 279.213 336.682 279.612 336.021 279.952C335.076 280.438 334.091 280.844 333.077 281.165H331.073C331.343 281.088 331.608 281.012 331.879 280.935C332.838 280.665 333.78 280.336 334.7 279.952C335.225 279.732 335.736 279.48 336.23 279.197C338.281 278.02 339.99 276.216 340.347 273.805C340.659 271.695 340.057 269.586 339.699 267.522C339.638 267.165 339.582 266.813 339.551 266.461C339.308 264.674 339.456 262.855 339.985 261.131C340.719 258.979 341.817 256.969 343.23 255.188C344.104 254.028 345.037 252.914 346.025 251.85C346.148 251.712 346.275 251.575 346.408 251.437C350.015 247.646 354.18 244.427 358.759 241.892H358.764C362.169 239.998 365.781 238.503 369.529 237.437H369.534C369.702 237.386 369.876 237.335 370.044 237.289C370.396 237.198 370.478 237.753 370.131 237.85Z" fill="white"/>
<path d="M346.206 252.043C344.974 250.744 344.245 249.049 344.148 247.262C344.051 245.474 344.593 243.711 345.678 242.286C345.898 241.998 346.356 242.327 346.135 242.615C345.123 243.94 344.618 245.583 344.711 247.247C344.805 248.911 345.491 250.487 346.645 251.69C346.896 251.952 346.456 252.304 346.206 252.043Z" fill="white"/>
<path d="M339.9 266.153C343.561 266.284 347.137 265.033 349.915 262.648C350.19 262.412 350.543 262.851 350.268 263.087C347.372 265.563 343.649 266.858 339.84 266.712C339.477 266.698 339.539 266.139 339.9 266.153Z" fill="white"/>
<path d="M359.23 242.066C359.602 242.668 360.118 243.168 360.731 243.522C361.344 243.876 362.036 244.072 362.744 244.092C363.107 244.102 363.044 244.661 362.683 244.652C361.901 244.625 361.138 244.408 360.459 244.019C359.781 243.629 359.208 243.08 358.791 242.419C358.747 242.359 358.726 242.286 358.734 242.212C358.742 242.139 358.778 242.071 358.834 242.023C358.892 241.976 358.967 241.955 359.041 241.963C359.115 241.971 359.183 242.008 359.23 242.066Z" fill="white"/>
<path d="M200.995 346.447C200.256 349.219 198.312 351.528 195.965 353.21C195.582 353.485 195.19 353.74 194.792 353.979C194.669 354.051 194.547 354.127 194.419 354.193C194.281 354.275 194.144 354.351 194.006 354.423H182.971C182.772 354.02 182.578 353.612 182.384 353.21C177.655 343.282 174.334 332.569 174.9 321.658C175.125 317.425 176.015 313.255 177.538 309.299C180.568 301.415 186.098 294.59 193.705 291.155C193.894 291.069 194.093 290.982 194.287 290.901C194.225 291.12 194.164 291.334 194.103 291.553C193.287 294.49 192.71 297.488 192.379 300.518C192.348 300.752 192.322 300.986 192.302 301.226C191.577 308.533 192.221 315.911 194.2 322.983C194.205 322.998 194.21 323.018 194.215 323.034C194.649 324.598 195.152 326.139 195.725 327.656C196.174 328.854 196.659 330.036 197.189 331.198C199.404 336.075 202.373 341.274 200.995 346.447Z" fill="#E6E6E6"/>
<path d="M194.424 291.13C194.317 291.273 194.21 291.41 194.103 291.553C191.862 294.519 189.959 297.726 188.43 301.114C188.348 301.282 188.272 301.45 188.205 301.623C186.11 306.354 184.764 311.381 184.216 316.525C184.21 316.561 184.207 316.597 184.206 316.632C184.078 317.835 184.002 319.048 183.971 320.261C183.858 322.535 184.104 324.812 184.701 327.009C185.245 328.803 186.198 330.446 187.486 331.81C187.614 331.947 187.741 332.085 187.879 332.217C187.981 332.324 188.093 332.431 188.2 332.533C189.231 333.517 190.358 334.429 191.328 335.484C191.772 335.957 192.173 336.469 192.527 337.013C193.091 337.925 193.455 338.946 193.596 340.009C193.736 341.072 193.65 342.153 193.343 343.18C192.649 345.759 191.062 347.935 189.44 350.009C188.629 351.049 187.792 352.099 187.068 353.21C186.802 353.607 186.558 354.01 186.333 354.422H185.69C185.905 354.01 186.139 353.607 186.394 353.21C188.256 350.279 190.904 347.761 192.277 344.535C193.205 342.359 193.486 339.893 192.312 337.757C191.968 337.136 191.552 336.558 191.073 336.035C190.139 334.98 189.022 334.078 188.006 333.124C187.751 332.885 187.501 332.64 187.262 332.385C185.99 331.095 185.009 329.549 184.384 327.85C183.676 325.691 183.342 323.429 183.395 321.158C183.395 319.711 183.471 318.253 183.614 316.806C183.629 316.622 183.65 316.434 183.67 316.245C184.713 307.137 188.178 298.474 193.705 291.155C193.807 291.013 193.914 290.875 194.021 290.737C194.241 290.452 194.644 290.85 194.424 291.13Z" fill="white"/>
<path d="M183.876 316.854C182.109 316.558 180.505 315.643 179.35 314.274C178.196 312.905 177.566 311.171 177.573 309.381C177.574 309.308 177.604 309.238 177.655 309.187C177.706 309.135 177.776 309.105 177.849 309.103C177.922 309.102 177.993 309.129 178.047 309.178C178.1 309.228 178.133 309.296 178.137 309.369C178.127 311.036 178.714 312.651 179.792 313.924C180.869 315.196 182.367 316.042 184.014 316.308C184.372 316.367 184.232 316.912 183.876 316.854Z" fill="white"/>
<path d="M187.345 331.912C190.347 329.816 192.448 326.666 193.228 323.091C193.305 322.737 193.852 322.875 193.775 323.229C192.955 326.948 190.762 330.221 187.633 332.396C187.335 332.603 187.048 332.118 187.345 331.912Z" fill="white"/>
<path d="M188.261 301.054C188.921 301.311 189.634 301.401 190.337 301.314C191.04 301.228 191.71 300.968 192.288 300.559C192.584 300.348 192.87 300.833 192.577 301.042C191.936 301.492 191.196 301.777 190.419 301.874C189.643 301.972 188.855 301.877 188.123 301.6C188.052 301.58 187.991 301.533 187.953 301.47C187.915 301.406 187.903 301.331 187.919 301.258C187.937 301.186 187.984 301.124 188.048 301.086C188.112 301.048 188.189 301.036 188.261 301.054Z" fill="white"/>
<path d="M232.697 310.838C232.518 310.975 232.335 311.113 232.156 311.256C229.734 313.107 227.467 315.153 225.376 317.371C225.213 317.54 225.05 317.713 224.891 317.886L224.886 317.891C219.93 323.267 216.01 329.511 213.326 336.31L213.311 336.356C213.306 336.371 213.3 336.381 213.295 336.396C212.231 339.118 211.374 341.915 210.729 344.765C210.107 347.547 209.597 350.529 208.622 353.21C208.474 353.622 208.311 354.03 208.138 354.422H185.456C185.532 354.02 185.614 353.612 185.695 353.21C186.849 347.304 188.652 341.544 191.072 336.035C191.154 335.851 191.236 335.668 191.328 335.484C192.577 332.762 194.046 330.145 195.72 327.661L195.72 327.659L195.722 327.658L195.723 327.656L195.725 327.656C196.645 326.301 197.632 324.992 198.684 323.737C201.413 320.494 204.636 317.701 208.234 315.46C208.255 315.445 208.28 315.435 208.301 315.42C215.464 310.981 223.953 308.866 232.069 310.695H232.075C232.284 310.741 232.488 310.787 232.697 310.838Z" fill="#E6E6E6"/>
<path d="M232.671 311.108C232.498 311.154 232.324 311.205 232.156 311.256C228.581 312.276 225.13 313.69 221.866 315.47C221.703 315.557 221.54 315.649 221.376 315.741C216.866 318.255 212.772 321.451 209.239 325.215C209.237 325.218 209.235 325.221 209.234 325.225C209.194 325.266 209.148 325.312 209.112 325.352C208.296 326.229 207.51 327.141 206.765 328.079C205.308 329.827 204.134 331.793 203.286 333.904C202.638 335.664 202.409 337.55 202.617 339.413C202.633 339.602 202.658 339.786 202.684 339.974C202.704 340.122 202.725 340.27 202.75 340.423C203.087 342.466 203.668 344.515 203.505 346.599C203.406 347.667 203.081 348.702 202.553 349.636C202.024 350.57 201.304 351.381 200.439 352.017C199.851 352.471 199.223 352.87 198.562 353.21C197.617 353.696 196.632 354.102 195.618 354.422H193.613C193.883 354.346 194.149 354.27 194.419 354.193C195.379 353.923 196.321 353.594 197.24 353.21C197.766 352.99 198.277 352.738 198.771 352.455C200.822 351.278 202.531 349.474 202.888 347.063C203.199 344.953 202.597 342.843 202.24 340.779C202.179 340.423 202.123 340.071 202.092 339.719C201.848 337.932 201.996 336.113 202.526 334.388C203.26 332.237 204.357 330.227 205.77 328.446C206.645 327.286 207.578 326.172 208.566 325.108C208.688 324.97 208.816 324.833 208.949 324.695C212.556 320.904 216.721 317.685 221.3 315.149H221.305C224.71 313.256 228.322 311.761 232.069 310.695H232.075C232.243 310.644 232.416 310.593 232.585 310.547C232.937 310.456 233.018 311.011 232.671 311.108Z" fill="white"/>
<path d="M208.747 325.301C207.515 324.002 206.785 322.307 206.688 320.52C206.591 318.732 207.134 316.969 208.218 315.544C208.439 315.256 208.896 315.585 208.676 315.873C207.663 317.198 207.158 318.841 207.252 320.505C207.345 322.169 208.031 323.745 209.186 324.948C209.437 325.21 208.996 325.562 208.747 325.301Z" fill="white"/>
<path d="M202.441 339.41C206.101 339.542 209.677 338.291 212.455 335.906C212.73 335.67 213.083 336.109 212.808 336.345C209.913 338.821 206.189 340.116 202.38 339.97C202.017 339.956 202.08 339.396 202.441 339.41Z" fill="white"/>
<path d="M221.771 315.323C222.142 315.925 222.658 316.426 223.272 316.78C223.885 317.133 224.576 317.329 225.284 317.35C225.647 317.36 225.584 317.919 225.224 317.91C224.442 317.883 223.678 317.666 223 317.276C222.321 316.887 221.748 316.338 221.332 315.676C221.287 315.617 221.267 315.543 221.275 315.47C221.283 315.396 221.318 315.329 221.374 315.281C221.433 315.234 221.507 315.213 221.581 315.221C221.656 315.229 221.724 315.266 221.771 315.323Z" fill="white"/>
<path d="M225.527 207.679C228.908 207.679 231.649 204.941 231.649 201.564C231.649 198.186 228.908 195.448 225.527 195.448C222.146 195.448 219.405 198.186 219.405 201.564C219.405 204.941 222.146 207.679 225.527 207.679Z" fill="#F2F2F2"/>
<path d="M301.579 134.422C304.96 134.422 307.701 131.684 307.701 128.307C307.701 124.929 304.96 122.191 301.579 122.191C298.197 122.191 295.457 124.929 295.457 128.307C295.457 131.684 298.197 134.422 301.579 134.422Z" fill="#F2F2F2"/>
<path d="M91.393 12.2314C94.7741 12.2314 97.515 9.49333 97.515 6.11572C97.515 2.7381 94.7741 0 91.393 0C88.0119 0 85.271 2.7381 85.271 6.11572C85.271 9.49333 88.0119 12.2314 91.393 12.2314Z" fill="#F2F2F2"/>
<path d="M0.636183 355.397H381.364C381.533 355.397 381.694 355.33 381.814 355.211C381.933 355.091 382 354.93 382 354.761C382 354.593 381.933 354.431 381.814 354.312C381.694 354.193 381.533 354.126 381.364 354.126H0.636183C0.467458 354.126 0.305645 354.193 0.186338 354.312C0.0670317 354.431 0 354.593 0 354.761C0 354.93 0.0670317 355.091 0.186338 355.211C0.305645 355.33 0.467458 355.397 0.636183 355.397Z" fill="#CCCCCC"/>
<path opacity="0.2" d="M233.144 64.6523C235.932 69.4151 236.933 75.0138 235.968 80.4465C235.002 85.8792 232.132 90.7911 227.872 94.3032C223.612 97.8153 218.24 99.6983 212.717 99.6152C207.194 99.532 201.882 97.4881 197.729 93.8494C199.429 96.7576 201.742 99.262 204.506 101.189C207.271 103.116 210.422 104.42 213.741 105.01C217.059 105.6 220.467 105.463 223.728 104.607C226.988 103.752 230.023 102.198 232.623 100.055C235.223 97.9111 237.326 95.2286 238.785 92.1929C240.245 89.1572 241.027 85.8409 241.076 82.4736C241.125 79.1064 240.442 75.7686 239.072 72.6914C237.702 69.6142 235.68 66.8712 233.144 64.6523Z" fill="#231F20"/>
<path opacity="0.2" d="M261.703 32.9543C280.799 57.619 284.092 93.0666 262.933 116.887C239.293 143.502 169.772 149.312 121.876 195.279C122.674 200.073 123.825 204.802 125.321 209.426C173.24 158.862 246.859 153.608 271.327 126.061C295.287 99.0873 287.892 57.2061 261.703 32.9543Z" fill="#231F20"/>
</g>
<defs>
<clipPath id="clip0_308_652">
<rect width="382" height="356" fill="white"/>
</clipPath>
</defs>
</svg>
