<svg width="619" height="634" viewBox="0 0 619 634" fill="none" xmlns="http://www.w3.org/2000/svg">
<g clip-path="url(#clip0_308_777)">
<path d="M111.33 615.176H120.809L125.32 578.614H111.33V615.176Z" fill="#A0616A"/>
<path d="M108.236 608.683L123.38 607.78V614.268L137.778 624.211C138.489 624.703 139.025 625.408 139.307 626.225C139.589 627.042 139.602 627.928 139.345 628.753C139.087 629.578 138.573 630.299 137.877 630.811C137.181 631.323 136.339 631.6 135.475 631.599H117.446L114.338 625.182L113.125 631.599H106.327L108.236 608.683Z" fill="#2F2E41"/>
<path d="M187.143 615.176H196.622L201.134 578.614H187.143V615.176Z" fill="#A0616A"/>
<path d="M184.05 608.683L199.194 607.78V614.268L213.592 624.211C214.303 624.703 214.838 625.408 215.12 626.225C215.402 627.042 215.415 627.928 215.158 628.753C214.901 629.578 214.387 630.299 213.691 630.811C212.994 631.323 212.153 631.6 211.289 631.599H193.259L190.152 625.182L188.938 631.599H182.14L184.05 608.683Z" fill="#2F2E41"/>
<path d="M118.834 391.865L169.231 393.128V338.66L127.834 338.865L118.834 391.865Z" fill="#A0616A"/>
<path d="M169.487 352.649L176.224 375.095L190.209 404.537L219.751 574.595L215.235 598.119L171.439 596.279L151.934 450.471L151.621 470.6L151.469 480.343C151.469 480.343 158.583 543.713 150.29 556.011C141.997 568.309 150.121 566.862 150.121 566.862L149.726 592.231L97.8342 592.599L109.282 519.562C109.282 519.562 115.095 514.972 111.985 510.358C108.875 505.744 115 500.094 115 500.094L112.253 443.076C112.253 443.076 115.294 433.227 111.717 431.947C108.139 430.667 111.247 422.198 111.247 422.198L110.715 411.161L122.487 366.649L169.487 352.649Z" fill="#2F2E41"/>
<path d="M120.652 338.66L115.5 323.203L111.819 318.051L110.347 303.33C110.347 263.583 119.213 270.202 119.213 270.202L130.777 256.222L143.934 255.811L154.331 255.486L162.975 269.839L175.488 274.256L180.388 299.716L171.44 326.883L171.834 324.865C176.047 332.641 174.975 333.811 171.487 339.649L171.314 341.757C170.904 346.742 174.378 347.601 169.487 348.649C127.487 357.649 123.487 375.649 118.487 368.649C117.374 367.09 122.098 348.488 120.487 348.649C116.072 349.091 120.652 338.66 120.652 338.66Z" fill="#E6E6E6"/>
<path d="M146.391 250.545C158.45 250.545 168.226 240.769 168.226 228.71C168.226 216.651 158.45 206.875 146.391 206.875C134.332 206.875 124.556 216.651 124.556 228.71C124.556 240.769 134.332 250.545 146.391 250.545Z" fill="#A0616A"/>
<path d="M100.333 384.497L102.569 307.577L117.132 313.949L109.871 384.217C111.013 385.155 111.84 386.419 112.244 387.84C112.648 389.262 112.608 390.772 112.13 392.17C111.652 393.568 110.759 394.787 109.57 395.664C108.381 396.54 106.953 397.034 105.476 397.077C103.999 397.12 102.544 396.712 101.306 395.907C100.067 395.101 99.1042 393.937 98.5451 392.569C97.986 391.202 97.8576 389.696 98.177 388.254C98.4964 386.811 99.2484 385.501 100.333 384.497Z" fill="#A0616A"/>
<path d="M118.952 269.804L117.259 270.339C112.733 271.768 108.781 274.602 105.976 278.43C103.171 282.257 101.658 286.879 101.658 291.625L98.4727 306.212C103.088 314.13 109.91 318.054 119.407 317.135L118.952 269.804Z" fill="#E6E6E6"/>
<path d="M218.502 296.354C218.503 295.276 218.263 294.212 217.801 293.238C217.338 292.265 216.665 291.407 215.829 290.726C214.993 290.046 214.016 289.561 212.968 289.305C211.921 289.05 210.83 289.032 209.775 289.251C208.72 289.47 207.727 289.922 206.868 290.574C206.01 291.225 205.307 292.06 204.812 293.017C204.317 293.975 204.041 295.03 204.005 296.107C203.969 297.184 204.173 298.256 204.603 299.244L190.324 321.746V308.25L174.215 309.991L176.47 334.044C176.65 335.969 177.441 337.786 178.726 339.231C180.011 340.676 181.724 341.672 183.616 342.076C185.507 342.479 187.477 342.268 189.24 341.474C191.003 340.679 192.467 339.343 193.417 337.659L212.72 303.456C214.353 303.117 215.82 302.226 216.874 300.933C217.927 299.639 218.502 298.022 218.502 296.354Z" fill="#A0616A"/>
<path d="M172.909 273.42L174.529 273.932C178.858 275.299 182.639 278.01 185.322 281.672C188.006 285.334 189.453 289.755 189.453 294.295L192.5 308.25C188.085 315.824 181.559 319.577 172.474 318.698L172.909 273.42Z" fill="#E6E6E6"/>
<path d="M118.364 233.587C119.584 228.945 120.042 224.087 121.804 219.623C123.553 215.191 126.516 211.341 130.353 208.516C134.191 205.691 138.747 204.005 143.498 203.652C148.25 203.298 153.005 204.291 157.219 206.517C161.432 208.743 164.932 212.111 167.318 216.235C169.409 219.582 170.291 223.544 169.816 227.462C169.121 231.723 166.298 235.775 167.182 240.001C167.773 242.829 169.909 245.025 171.604 247.364C173.3 249.702 174.639 252.795 173.417 255.412C172.09 258.255 168.405 259.095 165.279 258.828C162.153 258.562 159.023 257.552 155.937 258.118L157.406 252.36C153.749 255.881 150.091 259.401 146.434 262.921C146.839 259.258 145.137 255.742 143.963 252.248C142.789 248.754 142.241 244.543 144.567 241.683C145.958 239.973 148.102 239.109 150.015 238.014C151.928 236.919 153.826 235.279 154.021 233.083C154.263 230.368 151.83 228.189 149.441 226.876C147.052 225.564 144.301 224.463 142.96 222.09C143.922 224.156 144.885 226.222 145.847 228.288C142.646 228.062 139.562 226.995 136.905 225.196C134.249 223.397 132.113 220.929 130.715 218.041L129.396 218.905C118.431 231.201 132.473 249.624 124.241 256.071C127.856 249.625 116.487 240.735 118.364 233.587Z" fill="#2F2E41"/>
<path d="M403.808 2.32872L203.479 60.2841C172.322 69.2979 154.372 101.863 163.385 133.02L295.819 590.791C304.833 621.949 337.398 639.899 368.555 630.885L568.884 572.93C600.041 563.916 617.992 531.351 608.978 500.194L476.544 42.4227C467.53 11.2656 434.965 -6.68508 403.808 2.32872Z" fill="#3F3D56"/>
<path d="M405.336 7.61199L379.139 15.1909L381.757 24.241C382.942 28.3374 382.452 32.7368 380.393 36.4713C378.335 40.2059 374.877 42.9697 370.78 44.1548L253.737 78.0155C249.641 79.2006 245.242 78.7098 241.507 76.6513C237.773 74.5927 235.009 71.1349 233.824 67.0385L231.205 57.9883L205.008 65.5672C191.456 69.5045 180.02 78.6564 173.207 91.0153C166.394 103.374 164.762 117.931 168.669 131.492L301.103 589.263C305.04 602.815 314.192 614.251 326.551 621.064C338.91 627.876 353.466 629.509 367.027 625.602L567.355 567.647C580.907 563.71 592.344 554.558 599.156 542.199C605.969 529.84 607.601 515.283 603.694 501.723L471.261 43.9513C467.323 30.3995 458.171 18.9628 445.812 12.1502C433.454 5.33764 418.897 3.70555 405.336 7.61199Z" fill="white"/>
<path d="M179.111 192.775C178.092 193.069 176.998 192.946 176.07 192.434C175.141 191.922 174.453 191.063 174.157 190.044L171.934 182.359C171.788 181.855 171.743 181.326 171.801 180.804C171.859 180.282 172.02 179.777 172.273 179.317C172.527 178.857 172.869 178.451 173.279 178.123C173.689 177.795 174.16 177.551 174.665 177.405C175.169 177.259 175.698 177.214 176.22 177.272C176.742 177.331 177.247 177.491 177.707 177.745C178.167 177.998 178.573 178.34 178.901 178.75C179.229 179.161 179.473 179.632 179.619 180.136L181.842 187.821C182.136 188.84 182.013 189.934 181.501 190.863C180.989 191.791 180.13 192.479 179.111 192.775Z" fill="#3F3D56"/>
<path d="M190.511 232.181C189.492 232.474 188.398 232.351 187.47 231.839C186.541 231.328 185.853 230.468 185.557 229.45L179.437 208.296C179.291 207.791 179.246 207.263 179.304 206.741C179.363 206.219 179.523 205.713 179.777 205.253C180.03 204.793 180.372 204.388 180.782 204.06C181.193 203.732 181.664 203.488 182.168 203.342C182.673 203.196 183.201 203.151 183.723 203.209C184.245 203.267 184.751 203.427 185.211 203.681C185.671 203.935 186.076 204.276 186.404 204.687C186.732 205.097 186.976 205.568 187.122 206.072L193.242 227.226C193.536 228.246 193.413 229.339 192.901 230.268C192.389 231.197 191.53 231.885 190.511 232.181Z" fill="#3F3D56"/>
<path d="M199.676 263.86C198.657 264.154 197.563 264.031 196.634 263.519C195.706 263.007 195.018 262.148 194.722 261.129L188.602 239.975C188.307 238.956 188.429 237.862 188.942 236.933C189.454 236.004 190.314 235.316 191.333 235.021C192.352 234.726 193.446 234.848 194.376 235.36C195.305 235.873 195.992 236.733 196.287 237.752L202.407 258.906C202.7 259.925 202.578 261.019 202.066 261.948C201.554 262.876 200.694 263.564 199.676 263.86Z" fill="#3F3D56"/>
<path d="M509.753 155.416C508.734 155.71 507.64 155.587 506.712 155.075C505.783 154.563 505.095 153.704 504.799 152.685L489.867 101.069C489.572 100.05 489.694 98.9551 490.206 98.0261C490.718 97.097 491.578 96.4094 492.597 96.1146C493.616 95.8198 494.711 95.9419 495.64 96.454C496.569 96.9661 497.257 97.8263 497.551 98.8454L512.484 150.462C512.778 151.481 512.655 152.575 512.143 153.504C511.631 154.433 510.772 155.12 509.753 155.416Z" fill="#3F3D56"/>
<path d="M254.992 183.53C254.637 183.633 254.257 183.601 253.924 183.441L234.52 174.093C234.342 174.007 234.183 173.888 234.052 173.741C233.921 173.594 233.82 173.423 233.755 173.237C233.69 173.051 233.662 172.854 233.673 172.657C233.684 172.461 233.734 172.268 233.82 172.091L243.167 152.686C243.253 152.509 243.373 152.35 243.519 152.219C243.666 152.088 243.838 151.987 244.024 151.922C244.209 151.856 244.406 151.829 244.603 151.84C244.8 151.851 244.992 151.901 245.17 151.986C245.347 152.072 245.506 152.191 245.637 152.338C245.769 152.485 245.87 152.656 245.935 152.842C246 153.028 246.027 153.225 246.016 153.422C246.005 153.618 245.956 153.811 245.87 153.988L237.173 172.041L255.226 180.738C255.5 180.87 255.727 181.082 255.878 181.345C256.028 181.609 256.095 181.912 256.07 182.215C256.044 182.518 255.928 182.805 255.735 183.04C255.543 183.275 255.283 183.446 254.992 183.53Z" fill="#6C63FF"/>
<path d="M266.021 180.298C265.725 180.384 265.409 180.377 265.118 180.277C264.826 180.177 264.572 179.99 264.391 179.74C264.209 179.491 264.109 179.192 264.104 178.884C264.098 178.575 264.188 178.273 264.361 178.017L275.584 161.417L258.984 150.193C258.82 150.083 258.68 149.942 258.571 149.777C258.462 149.613 258.386 149.428 258.349 149.235C258.311 149.041 258.312 148.842 258.352 148.649C258.391 148.456 258.468 148.272 258.579 148.109C258.689 147.945 258.831 147.805 258.996 147.697C259.16 147.588 259.345 147.513 259.538 147.476C259.732 147.439 259.931 147.44 260.124 147.48C260.318 147.52 260.501 147.597 260.664 147.708L278.507 159.772C278.67 159.882 278.81 160.024 278.919 160.188C279.027 160.353 279.102 160.537 279.14 160.73C279.177 160.924 279.176 161.122 279.136 161.315C279.097 161.508 279.02 161.692 278.909 161.855L266.845 179.698C266.65 179.989 266.358 180.201 266.021 180.298Z" fill="#6C63FF"/>
<path d="M462.533 144.614L233.636 210.834C230.105 211.851 226.316 211.426 223.098 209.652C219.88 207.879 217.497 204.901 216.472 201.373L203.61 156.913C202.593 153.382 203.018 149.592 204.791 146.374C206.565 143.157 209.543 140.774 213.071 139.749L441.968 73.5285C445.498 72.5114 449.288 72.9363 452.506 74.71C455.724 76.4837 458.107 79.4614 459.132 82.9897L471.994 127.45C473.011 130.98 472.586 134.77 470.813 137.988C469.039 141.206 466.061 143.588 462.533 144.614ZM213.627 141.67C210.608 142.547 208.06 144.586 206.542 147.339C205.024 150.093 204.661 153.336 205.531 156.357L218.393 200.817C219.271 203.836 221.31 206.384 224.063 207.901C226.816 209.419 230.059 209.783 233.08 208.913L461.977 142.692C464.996 141.815 467.544 139.776 469.062 137.023C470.58 134.27 470.943 131.027 470.073 128.006L457.211 83.5455C456.333 80.5264 454.294 77.9785 451.541 76.4608C448.788 74.9431 445.545 74.5795 442.524 75.4497L213.627 141.67Z" fill="#3F3D56"/>
<path d="M343.409 133.272L304.985 144.388C303.966 144.683 302.871 144.561 301.942 144.049C301.013 143.537 300.325 142.676 300.031 141.657C299.736 140.638 299.858 139.544 300.37 138.615C300.882 137.686 301.742 136.998 302.761 136.703L341.186 125.587C342.205 125.292 343.299 125.414 344.228 125.926C345.157 126.439 345.845 127.299 346.14 128.318C346.435 129.337 346.313 130.431 345.8 131.36C345.288 132.289 344.428 132.977 343.409 133.272Z" fill="#E6E6E6"/>
<path d="M432.135 130.505L310.138 165.799C309.119 166.094 308.024 165.972 307.095 165.46C306.166 164.948 305.479 164.088 305.184 163.068C304.889 162.049 305.011 160.955 305.523 160.026C306.035 159.097 306.896 158.409 307.915 158.114L429.912 122.82C430.931 122.526 432.026 122.648 432.955 123.16C433.884 123.672 434.571 124.532 434.866 125.551C435.161 126.57 435.039 127.665 434.527 128.594C434.015 129.523 433.154 130.21 432.135 130.505Z" fill="#E6E6E6"/>
<path d="M341.753 487.516C341.398 487.619 341.018 487.587 340.685 487.426L321.281 478.079C321.104 477.993 320.945 477.873 320.814 477.726C320.682 477.58 320.581 477.408 320.516 477.222C320.451 477.036 320.423 476.839 320.435 476.643C320.446 476.446 320.495 476.254 320.581 476.076L329.929 456.672C330.101 456.314 330.409 456.038 330.785 455.907C331.16 455.776 331.573 455.799 331.931 455.972C332.289 456.144 332.565 456.452 332.696 456.828C332.827 457.203 332.804 457.616 332.631 457.974L323.935 476.027L341.987 484.724C342.261 484.855 342.488 485.067 342.639 485.331C342.79 485.595 342.857 485.898 342.831 486.201C342.806 486.503 342.689 486.791 342.496 487.026C342.304 487.261 342.045 487.432 341.753 487.516Z" fill="#6C63FF"/>
<path d="M352.782 484.284C352.486 484.37 352.171 484.363 351.879 484.263C351.587 484.163 351.333 483.976 351.152 483.726C350.97 483.477 350.87 483.178 350.865 482.87C350.859 482.562 350.949 482.259 351.122 482.004L362.345 465.403L345.745 454.178C345.416 453.955 345.189 453.611 345.114 453.22C345.039 452.83 345.121 452.426 345.344 452.097C345.567 451.767 345.911 451.54 346.301 451.464C346.691 451.389 347.096 451.471 347.425 451.693L365.268 463.758C365.598 463.981 365.825 464.325 365.901 464.716C365.977 465.106 365.894 465.511 365.671 465.84L353.607 483.684C353.411 483.974 353.119 484.187 352.782 484.284Z" fill="#6C63FF"/>
<path d="M567.581 507.723L338.684 573.944C335.153 574.961 331.364 574.536 328.146 572.762C324.928 570.988 322.545 568.011 321.52 564.482L288.371 449.898C287.354 446.367 287.779 442.577 289.552 439.36C291.326 436.142 294.304 433.759 297.832 432.734L526.729 366.514C530.26 365.497 534.049 365.922 537.267 367.695C540.485 369.469 542.868 372.447 543.893 375.975L577.042 490.56C578.059 494.09 577.634 497.88 575.861 501.098C574.087 504.316 571.109 506.698 567.581 507.723ZM298.388 434.655C295.369 435.532 292.821 437.571 291.303 440.325C289.785 443.078 289.422 446.321 290.292 449.342L323.442 563.927C324.319 566.946 326.358 569.494 329.111 571.011C331.864 572.529 335.107 572.893 338.128 572.022L567.025 505.802C570.044 504.925 572.592 502.886 574.11 500.133C575.628 497.379 575.991 494.136 575.121 491.115L541.971 376.531C541.094 373.512 539.055 370.964 536.302 369.446C533.549 367.928 530.306 367.565 527.285 368.435L298.388 434.655Z" fill="#3F3D56"/>
<path d="M430.17 437.257L391.746 448.374C391.241 448.52 390.712 448.566 390.189 448.509C389.667 448.451 389.161 448.291 388.7 448.037C388.24 447.784 387.833 447.442 387.505 447.031C387.177 446.621 386.932 446.149 386.786 445.644C386.64 445.139 386.595 444.61 386.653 444.088C386.712 443.565 386.873 443.059 387.127 442.599C387.381 442.139 387.724 441.733 388.135 441.406C388.546 441.078 389.017 440.834 389.523 440.689L427.947 429.572C428.965 429.279 430.059 429.403 430.986 429.915C431.914 430.427 432.601 431.287 432.895 432.305C433.19 433.323 433.068 434.416 432.557 435.345C432.046 436.274 431.188 436.961 430.17 437.257Z" fill="#E6E6E6"/>
<path d="M518.897 434.491L396.899 469.785C396.395 469.932 395.866 469.977 395.343 469.919C394.821 469.862 394.315 469.701 393.854 469.448C393.394 469.194 392.988 468.853 392.659 468.442C392.331 468.032 392.087 467.56 391.941 467.055C391.795 466.55 391.75 466.022 391.808 465.499C391.866 464.977 392.027 464.471 392.281 464.011C392.535 463.551 392.878 463.145 393.288 462.817C393.699 462.489 394.171 462.245 394.676 462.1L516.673 426.806C517.692 426.511 518.787 426.633 519.716 427.145C520.645 427.658 521.333 428.518 521.627 429.537C521.922 430.556 521.8 431.65 521.288 432.579C520.776 433.508 519.916 434.196 518.897 434.491Z" fill="#E6E6E6"/>
<path d="M251.975 268.131L240.763 271.374C239.235 271.816 238.355 273.413 238.797 274.941L239.731 278.172C240.173 279.699 241.77 280.58 243.298 280.138L254.51 276.894C256.038 276.452 256.918 274.855 256.476 273.327L255.542 270.097C255.1 268.569 253.503 267.689 251.975 268.131Z" fill="#E6E6E6"/>
<path d="M343.26 241.722L332.049 244.965C330.521 245.407 329.64 247.004 330.082 248.532L331.017 251.762C331.459 253.29 333.056 254.171 334.584 253.729L345.796 250.485C347.324 250.043 348.204 248.446 347.762 246.918L346.827 243.688C346.385 242.16 344.788 241.28 343.26 241.722Z" fill="#6C63FF"/>
<path d="M369.125 234.239L357.913 237.483C356.385 237.925 355.505 239.522 355.947 241.049L356.881 244.28C357.323 245.808 358.92 246.688 360.448 246.246L371.66 243.002C373.188 242.56 374.068 240.963 373.626 239.435L372.692 236.205C372.25 234.677 370.653 233.797 369.125 234.239Z" fill="#E6E6E6"/>
<path d="M318.219 248.174L265.382 263.46C263.854 263.902 262.973 265.499 263.415 267.027L264.35 270.258C264.792 271.785 266.389 272.666 267.917 272.224L320.754 256.938C322.282 256.496 323.163 254.899 322.721 253.371L321.786 250.141C321.344 248.613 319.747 247.732 318.219 248.174Z" fill="#E6E6E6"/>
<path d="M439.933 212.962L387.096 228.248C385.568 228.69 384.688 230.287 385.13 231.815L386.064 235.045C386.506 236.573 388.103 237.454 389.631 237.012L442.469 221.726C443.997 221.283 444.877 219.687 444.435 218.159L443.5 214.928C443.058 213.4 441.461 212.52 439.933 212.962Z" fill="#F2F2F2"/>
<path d="M258.024 287.814L246.812 291.058C245.285 291.5 244.404 293.097 244.846 294.625L245.781 297.855C246.223 299.383 247.82 300.263 249.348 299.821L260.56 296.578C262.088 296.136 262.968 294.539 262.526 293.011L261.591 289.781C261.149 288.253 259.552 287.372 258.024 287.814Z" fill="#E6E6E6"/>
<path d="M349.31 261.405L338.098 264.649C336.57 265.091 335.69 266.688 336.132 268.216L337.066 271.446C337.508 272.974 339.105 273.854 340.633 273.412L351.845 270.169C353.373 269.727 354.253 268.13 353.811 266.602L352.877 263.372C352.435 261.844 350.838 260.963 349.31 261.405Z" fill="#6C63FF"/>
<path d="M375.174 253.923L363.963 257.166C362.435 257.608 361.554 259.205 361.996 260.733L362.931 263.964C363.373 265.491 364.97 266.372 366.498 265.93L377.71 262.686C379.238 262.244 380.118 260.647 379.676 259.119L378.741 255.889C378.299 254.361 376.702 253.481 375.174 253.923Z" fill="#E6E6E6"/>
<path d="M324.269 267.858L271.431 283.144C269.903 283.586 269.023 285.183 269.465 286.711L270.399 289.941C270.841 291.469 272.438 292.35 273.966 291.908L326.804 276.622C328.332 276.179 329.212 274.583 328.77 273.055L327.836 269.824C327.394 268.296 325.797 267.416 324.269 267.858Z" fill="#E6E6E6"/>
<path d="M445.986 232.643L393.148 247.93C391.62 248.372 390.74 249.969 391.182 251.496L392.117 254.727C392.559 256.255 394.155 257.135 395.683 256.693L448.521 241.407C450.049 240.965 450.929 239.368 450.487 237.84L449.553 234.609C449.111 233.082 447.514 232.201 445.986 232.643Z" fill="#F2F2F2"/>
<path d="M312.104 293.603L300.892 296.847C299.365 297.289 298.484 298.886 298.926 300.414L299.861 303.644C300.303 305.172 301.9 306.052 303.428 305.61L314.64 302.366C316.168 301.924 317.048 300.327 316.606 298.799L315.671 295.569C315.229 294.041 313.632 293.161 312.104 293.603Z" fill="#E6E6E6"/>
<path d="M403.39 267.194L392.178 270.437C390.65 270.879 389.77 272.476 390.212 274.004L391.147 277.235C391.589 278.762 393.185 279.643 394.713 279.201L405.925 275.957C407.453 275.515 408.334 273.918 407.891 272.39L406.957 269.16C406.515 267.632 404.918 266.752 403.39 267.194Z" fill="#6C63FF"/>
<path d="M429.254 259.711L418.042 262.955C416.514 263.397 415.634 264.994 416.076 266.522L417.011 269.752C417.453 271.28 419.05 272.16 420.578 271.718L431.79 268.475C433.317 268.033 434.198 266.436 433.756 264.908L432.821 261.678C432.379 260.15 430.782 259.269 429.254 259.711Z" fill="#E6E6E6"/>
<path d="M378.349 273.647L325.511 288.933C323.983 289.375 323.103 290.972 323.545 292.5L324.48 295.73C324.922 297.258 326.518 298.138 328.046 297.696L380.884 282.41C382.412 281.968 383.292 280.371 382.85 278.843L381.916 275.613C381.474 274.085 379.877 273.205 378.349 273.647Z" fill="#E6E6E6"/>
<path d="M500.066 238.432L447.228 253.718C445.701 254.16 444.82 255.757 445.262 257.285L446.197 260.515C446.639 262.043 448.236 262.923 449.764 262.481L502.601 247.195C504.129 246.753 505.01 245.156 504.568 243.628L503.633 240.398C503.191 238.87 501.594 237.99 500.066 238.432Z" fill="#F2F2F2"/>
<path d="M280.217 365.649L269.005 368.893C267.477 369.335 266.597 370.931 267.039 372.459L267.974 375.69C268.416 377.218 270.013 378.098 271.541 377.656L282.752 374.412C284.28 373.97 285.161 372.373 284.719 370.845L283.784 367.615C283.342 366.087 281.745 365.207 280.217 365.649Z" fill="#6C63FF"/>
<path d="M306.081 358.166L294.87 361.41C293.342 361.852 292.461 363.449 292.903 364.977L293.838 368.207C294.28 369.735 295.877 370.615 297.405 370.173L308.617 366.93C310.145 366.488 311.025 364.891 310.583 363.363L309.648 360.133C309.206 358.605 307.609 357.724 306.081 358.166Z" fill="#E6E6E6"/>
<path d="M377.313 338.351L324.475 353.637C322.947 354.079 322.067 355.676 322.509 357.204L323.444 360.434C323.886 361.962 325.483 362.842 327.01 362.4L379.848 347.114C381.376 346.672 382.256 345.075 381.814 343.547L380.88 340.317C380.438 338.789 378.841 337.909 377.313 338.351Z" fill="#F2F2F2"/>
<path d="M341.105 326.6L329.893 329.844C328.365 330.286 327.485 331.883 327.927 333.411L328.861 336.641C329.303 338.169 330.9 339.049 332.428 338.607L343.64 335.363C345.168 334.921 346.048 333.324 345.606 331.796L344.672 328.566C344.23 327.038 342.633 326.158 341.105 326.6Z" fill="#6C63FF"/>
<path d="M366.972 319.115L355.76 322.359C354.232 322.801 353.352 324.398 353.794 325.926L354.729 329.156C355.171 330.684 356.768 331.564 358.295 331.122L369.507 327.879C371.035 327.437 371.916 325.84 371.474 324.312L370.539 321.081C370.097 319.554 368.5 318.673 366.972 319.115Z" fill="#6C63FF"/>
<path d="M316.486 334.514L263.649 349.8C262.121 350.242 261.24 351.839 261.682 353.367L262.617 356.597C263.059 358.125 264.656 359.005 266.184 358.563L319.021 343.277C320.549 342.835 321.43 341.238 320.988 339.71L320.053 336.48C319.611 334.952 318.014 334.072 316.486 334.514Z" fill="#E6E6E6"/>
<path d="M438.204 299.299L385.366 314.586C383.838 315.028 382.958 316.625 383.4 318.152L384.334 321.383C384.776 322.911 386.373 323.791 387.901 323.349L440.739 308.063C442.267 307.621 443.147 306.024 442.705 304.496L441.771 301.265C441.328 299.738 439.732 298.857 438.204 299.299Z" fill="#F2F2F2"/>
<path d="M317.431 312.015L306.219 315.259C304.691 315.701 303.811 317.298 304.253 318.826L305.188 322.056C305.63 323.584 307.227 324.464 308.754 324.022L319.966 320.778C321.494 320.336 322.375 318.739 321.933 317.212L320.998 313.981C320.556 312.453 318.959 311.573 317.431 312.015Z" fill="#E6E6E6"/>
<path d="M408.717 285.606L397.505 288.85C395.977 289.292 395.097 290.888 395.539 292.416L396.473 295.647C396.915 297.175 398.512 298.055 400.04 297.613L411.252 294.369C412.78 293.927 413.66 292.33 413.218 290.802L412.284 287.572C411.842 286.044 410.245 285.164 408.717 285.606Z" fill="#6C63FF"/>
<path d="M434.581 278.124L423.369 281.367C421.841 281.809 420.961 283.406 421.403 284.934L422.337 288.164C422.779 289.692 424.376 290.572 425.904 290.13L437.116 286.887C438.644 286.445 439.524 284.848 439.082 283.32L438.148 280.09C437.706 278.562 436.109 277.681 434.581 278.124Z" fill="#E6E6E6"/>
<path d="M384.098 293.52L331.261 308.806C329.733 309.248 328.852 310.845 329.294 312.373L330.229 315.603C330.671 317.131 332.268 318.011 333.796 317.569L386.633 302.283C388.161 301.841 389.042 300.244 388.6 298.716L387.665 295.486C387.223 293.958 385.626 293.078 384.098 293.52Z" fill="#E6E6E6"/>
<path d="M505.812 258.308L452.975 273.594C451.447 274.036 450.567 275.633 451.009 277.161L451.943 280.391C452.385 281.919 453.982 282.799 455.51 282.357L508.348 267.071C509.876 266.629 510.756 265.032 510.314 263.504L509.379 260.274C508.937 258.746 507.34 257.866 505.812 258.308Z" fill="#F2F2F2"/>
<path d="M289.985 328.637C292.47 328.637 294.485 326.622 294.485 324.137C294.485 321.652 292.47 319.637 289.985 319.637C287.5 319.637 285.485 321.652 285.485 324.137C285.485 326.622 287.5 328.637 289.985 328.637Z" fill="#6C63FF"/>
<path d="M284.705 310.386C287.19 310.386 289.205 308.371 289.205 305.886C289.205 303.4 287.19 301.386 284.705 301.386C282.219 301.386 280.205 303.4 280.205 305.886C280.205 308.371 282.219 310.386 284.705 310.386Z" fill="#6C63FF"/>
<path d="M316.996 46.5415L287.217 55.1565C286.581 55.3378 285.899 55.2597 285.321 54.9393C284.742 54.6189 284.314 54.0823 284.13 53.4471C283.947 52.8118 284.022 52.1296 284.34 51.5498C284.658 50.97 285.193 50.5399 285.828 50.3535L315.607 41.7385C315.922 41.6458 316.253 41.6163 316.581 41.6518C316.908 41.6873 317.225 41.7871 317.513 41.9454C317.802 42.1037 318.056 42.3175 318.262 42.5744C318.468 42.8313 318.621 43.1263 318.712 43.4424C318.804 43.7586 318.832 44.0897 318.795 44.4168C318.758 44.7439 318.657 45.0605 318.498 45.3484C318.338 45.6364 318.124 45.89 317.866 46.0947C317.608 46.2994 317.313 46.4513 316.996 46.5415Z" fill="white"/>
<path d="M331.671 41.6936C332.776 41.6936 333.671 40.7982 333.671 39.6936C333.671 38.589 332.776 37.6936 331.671 37.6936C330.567 37.6936 329.671 38.589 329.671 39.6936C329.671 40.7982 330.567 41.6936 331.671 41.6936Z" fill="white"/>
<path d="M34.3747 631.859C34.1021 631.105 33.9131 630.323 33.8112 629.528C33.8 629.47 33.7956 629.411 33.7981 629.352C33.2888 624.51 35.7883 620.021 38.6203 615.465L42.5031 609.227C42.8647 608.646 43.3915 608.186 44.0161 607.906C44.6407 607.626 45.3347 607.538 46.0092 607.655C46.6837 607.771 47.3081 608.087 47.8024 608.56C48.2967 609.034 48.6384 609.644 48.7839 610.313C48.9948 611.282 49.2058 612.264 49.4074 613.244C51.4978 611.504 53.6804 609.895 55.5915 608.504C60.6384 604.842 65.6838 601.176 70.7277 597.505C71.2807 597.103 71.9413 596.874 72.6249 596.849C73.3086 596.824 73.9841 597.003 74.5652 597.364C75.1462 597.726 75.6062 598.252 75.8864 598.876C76.1666 599.5 76.2542 600.193 76.1379 600.868L75.1779 606.434C73.903 613.819 72.4582 622.189 69.0397 629.507C68.6569 630.345 68.2472 631.161 67.8229 631.93L67.6803 632.189H34.4939L34.3747 631.859Z" fill="#F0F0F0"/>
<path d="M1.18445 632.907L617.542 633.214C617.857 633.212 618.158 633.086 618.379 632.863C618.601 632.64 618.726 632.338 618.726 632.023C618.726 631.709 618.601 631.407 618.379 631.184C618.158 630.961 617.857 630.835 617.542 630.833L1.18445 630.525C0.869697 630.527 0.568381 630.653 0.346375 630.876C0.124368 631.099 -0.000244141 631.401 -0.000244141 631.716C-0.000244141 632.031 0.124368 632.333 0.346375 632.556C0.568381 632.779 0.869697 632.905 1.18445 632.907Z" fill="#CACACA"/>
<path d="M426.381 520.448C423.136 521.387 419.686 521.342 416.467 520.32C413.247 519.298 410.403 517.344 408.294 514.705C406.185 512.067 404.906 508.862 404.618 505.497C404.331 502.131 405.047 498.756 406.678 495.798C408.309 492.839 410.78 490.431 413.779 488.878C416.778 487.324 420.171 486.694 423.528 487.069C426.885 487.443 430.056 488.805 432.639 490.981C435.222 493.158 437.102 496.051 438.041 499.296C439.299 503.647 438.778 508.32 436.591 512.287C434.405 516.254 430.732 519.189 426.381 520.448Z" fill="#E6E6E6"/>
<path d="M427.64 500.551L422.785 501.956L421.381 497.101C421.319 496.888 421.216 496.69 421.078 496.517C420.94 496.344 420.769 496.2 420.575 496.094C420.184 495.878 419.723 495.826 419.294 495.951C418.865 496.075 418.502 496.364 418.287 496.756C418.071 497.147 418.02 497.608 418.144 498.037L419.548 502.892L414.693 504.297C414.265 504.422 413.903 504.711 413.688 505.102C413.473 505.493 413.422 505.954 413.546 506.383C413.67 506.811 413.959 507.173 414.35 507.389C414.74 507.605 415.201 507.657 415.63 507.533L420.485 506.129L421.889 510.984C421.951 511.196 422.054 511.395 422.192 511.568C422.33 511.74 422.501 511.884 422.694 511.991C422.888 512.098 423.101 512.165 423.321 512.19C423.541 512.214 423.763 512.195 423.976 512.134C424.188 512.073 424.387 511.97 424.56 511.832C424.732 511.693 424.876 511.523 424.983 511.329C425.09 511.135 425.158 510.922 425.182 510.702C425.207 510.483 425.188 510.26 425.126 510.047L423.721 505.192L428.577 503.788C429.005 503.663 429.367 503.374 429.582 502.982C429.797 502.591 429.848 502.131 429.724 501.702C429.6 501.273 429.311 500.911 428.92 500.696C428.529 500.48 428.069 500.428 427.64 500.551Z" fill="white"/>
<path d="M474.379 506.562C471.135 507.501 467.685 507.456 464.465 506.434C461.246 505.412 458.402 503.458 456.293 500.819C454.184 498.181 452.904 494.976 452.617 491.611C452.329 488.245 453.046 484.87 454.677 481.912C456.307 478.953 458.778 476.545 461.778 474.992C464.777 473.438 468.17 472.808 471.527 473.183C474.884 473.557 478.054 474.919 480.637 477.095C483.221 479.272 485.1 482.165 486.039 485.41C487.298 489.761 486.777 494.434 484.59 498.401C482.403 502.368 478.731 505.303 474.379 506.562Z" fill="#E6E6E6"/>
<path d="M475.638 486.665L470.783 488.07L467.547 489.006L462.692 490.411C462.262 490.535 461.9 490.824 461.684 491.216C461.469 491.607 461.417 492.068 461.541 492.497C461.666 492.926 461.955 493.289 462.347 493.504C462.738 493.72 463.199 493.772 463.628 493.647L468.483 492.243L471.72 491.306L476.575 489.902C476.787 489.841 476.986 489.738 477.159 489.6C477.332 489.462 477.477 489.291 477.584 489.097C477.691 488.903 477.759 488.69 477.783 488.47C477.808 488.25 477.789 488.027 477.727 487.815C477.666 487.602 477.563 487.403 477.425 487.23C477.286 487.057 477.115 486.914 476.921 486.807C476.727 486.7 476.514 486.633 476.294 486.608C476.074 486.584 475.851 486.603 475.638 486.665Z" fill="white"/>
<path d="M522.378 492.676C519.133 493.615 515.683 493.57 512.463 492.548C509.244 491.526 506.4 489.572 504.291 486.933C502.182 484.295 500.903 481.09 500.615 477.725C500.327 474.359 501.044 470.984 502.675 468.026C504.305 465.067 506.777 462.659 509.776 461.106C512.775 459.552 516.168 458.922 519.525 459.297C522.882 459.671 526.052 461.033 528.636 463.209C531.219 465.386 533.099 468.279 534.037 471.524C535.296 475.875 534.775 480.548 532.588 484.515C530.402 488.482 526.729 491.417 522.378 492.676Z" fill="#E6E6E6"/>
<path d="M526.636 472.821L520.021 467.378C519.875 467.258 519.707 467.168 519.527 467.113C519.347 467.058 519.157 467.039 518.97 467.057C518.782 467.076 518.6 467.131 518.433 467.219C518.267 467.308 518.12 467.429 518 467.574C517.88 467.72 517.79 467.888 517.735 468.068C517.68 468.248 517.661 468.438 517.679 468.625C517.698 468.813 517.753 468.995 517.841 469.162C517.93 469.328 518.051 469.475 518.196 469.595L522.474 473.115L518.782 474.184L515.545 475.12L510.69 476.525C510.261 476.649 509.899 476.938 509.683 477.33C509.467 477.721 509.416 478.182 509.54 478.611C509.664 479.04 509.954 479.403 510.345 479.618C510.736 479.834 511.197 479.885 511.626 479.761L516.482 478.357L519.718 477.42L523.559 476.309L521.735 481.829C521.617 482.19 521.646 482.584 521.818 482.923C521.989 483.263 522.288 483.52 522.649 483.64C523.01 483.759 523.404 483.73 523.744 483.56C524.084 483.389 524.342 483.09 524.462 482.73L527.149 474.595C527.222 474.28 527.213 473.952 527.123 473.641C527.034 473.331 526.866 473.048 526.636 472.821Z" fill="white"/>
</g>
<defs>
<clipPath id="clip0_308_777">
<rect width="618.726" height="633.214" fill="white"/>
</clipPath>
</defs>
</svg>
