<svg width="469" height="356" viewBox="0 0 469 356" fill="none" xmlns="http://www.w3.org/2000/svg">
<g clip-path="url(#clip0_308_697)">
<path d="M433.934 323.585C418.568 335.275 399.847 347.117 381.441 352.701C376.135 354.358 370.659 355.416 365.117 355.855C359.936 356.271 354.721 355.867 349.666 354.657C336.382 351.357 324.061 345.576 312.139 338.823C308.244 336.613 304.394 334.302 300.567 331.94C294.319 328.083 288.133 324.091 281.93 320.194C281.001 319.603 280.078 319.024 279.149 318.451H279.144C277.646 317.512 276.145 316.586 274.641 315.673C274.376 315.51 274.112 315.352 273.841 315.189C270.999 313.469 268.108 311.787 265.167 310.146C264.807 309.949 264.447 309.746 264.087 309.549C258.398 306.397 252.552 303.539 246.57 300.986C242.641 299.332 238.662 297.842 234.643 296.571H234.637C233.1 296.088 231.558 295.632 230.01 295.216C225.369 293.944 220.639 293.019 215.86 292.45C209.274 291.653 202.613 291.706 196.041 292.607C195.596 292.669 195.157 292.731 194.712 292.804C176.926 295.649 160.692 305.242 142.827 307.503C142.247 307.576 141.673 307.643 141.093 307.694C140.845 307.716 140.598 307.744 140.35 307.761C135.158 308.205 129.933 308.077 124.77 307.379C110.343 305.478 96.2937 299.58 83.6459 292.146C54.0781 274.765 30.0996 248.05 15.5211 217.112C13.0177 211.81 10.795 206.38 8.86233 200.845C3.45868 185.495 0.482879 169.398 0.0420542 153.133C-1.32573 96.7007 30.775 40.0824 81.1749 14.5594C131.58 -10.9636 197.887 -2.52338 238.538 36.686C263.197 60.4715 277.466 92.7027 296.024 121.498C314.582 150.288 340.959 177.79 374.979 181.985C392.31 184.122 410.446 179.989 427.056 185.365C436.253 188.345 444.1 194.047 450.421 201.312C454.671 206.242 458.227 211.728 460.992 217.618C463.018 221.877 464.662 226.307 465.906 230.855C466.136 231.693 466.35 232.531 466.559 233.369C474.833 267.129 461.611 302.521 433.934 323.585Z" fill="#F2F2F2"/>
<path d="M157.135 262.468H104.225C96.2975 262.468 89.8713 268.887 89.8713 276.806V276.806C89.8713 284.725 96.2975 291.145 104.225 291.145H157.135C165.062 291.145 171.488 284.725 171.488 276.806C171.488 268.887 165.062 262.468 157.135 262.468Z" fill="#3F3D56"/>
<path d="M141.093 283.835V307.694C135.658 308.219 130.18 308.113 124.77 307.379V283.835H141.093Z" fill="#3F3D56"/>
<path d="M196.041 292.607C195.596 292.669 195.157 292.731 194.712 292.804C176.926 295.649 160.692 305.242 142.827 307.503C142.247 307.576 141.673 307.643 141.093 307.694C140.845 307.716 140.598 307.744 140.35 307.761C135.988 303.493 131.625 298.95 127.528 294.243C125.304 291.696 123.154 289.098 121.133 286.467C115.887 279.674 111.441 272.69 108.502 265.83C108.801 262.541 106.752 254.933 105.772 249.107L105.767 249.102C105.35 246.656 105.125 244.53 105.333 243.164C106.527 235.28 112.972 236.186 114.953 228.46C116.74 226.978 118.643 225.641 120.644 224.462C120.976 224.265 121.313 224.068 121.662 223.871L143.164 209.026L151.382 217.079L163.889 229.337L177.443 242.613L165.938 254.224C165.938 254.224 175.552 265.296 186.793 280.057C189.81 284.021 192.945 288.255 196.041 292.607Z" fill="#2F2E41"/>
<path d="M381.441 283.835V352.701C376.135 354.358 370.659 355.416 365.117 355.855V283.835H381.441Z" fill="#3F3D56"/>
<path d="M402.549 278.212H349.638C341.711 278.212 335.285 284.632 335.285 292.551V292.551C335.285 300.47 341.711 306.89 349.638 306.89H402.549C410.476 306.89 416.902 300.47 416.902 292.551C416.902 284.632 410.476 278.212 402.549 278.212Z" fill="#3F3D56"/>
<path d="M273.842 315.189C270.999 313.469 268.108 311.787 265.168 310.145C264.807 309.949 264.447 309.746 264.087 309.549L266.023 308.723L271.247 306.479L271.297 306.457L271.354 306.648L273.842 315.189Z" fill="#FFB6B6"/>
<path d="M281.93 320.194C281.001 319.603 280.078 319.024 279.149 318.451H279.144C277.647 317.512 276.146 316.586 274.641 315.673C274.376 315.51 274.112 315.352 273.841 315.189C270.999 313.469 268.108 311.787 265.168 310.145C264.807 309.949 264.447 309.746 264.087 309.549C258.398 306.397 252.552 303.539 246.57 300.985C242.641 299.332 238.662 297.842 234.643 296.571H234.637L231.48 291.291L217.267 267.511L214.143 262.288C214.143 262.288 203.488 265.437 188.408 268.456C182.92 269.558 176.853 270.638 170.486 271.549C163.681 272.516 156.544 273.286 149.452 273.657C146.069 273.837 142.697 273.927 139.376 273.899C130.792 273.843 122.546 273.039 115.325 271.127C112.916 268.867 105.654 265.791 100.453 262.974H100.448C98.2639 261.793 96.4514 260.663 95.5002 259.656C90.0178 253.864 94.7009 249.349 89.8264 243.029C89.7608 240.71 89.8793 238.39 90.181 236.09C90.2316 235.708 90.2823 235.32 90.3442 234.926L91.8809 208.858L103.296 207.351L120.666 205.056L139.483 202.571L141.555 218.777C141.555 218.777 156.206 218.034 174.77 218.282C204.585 218.687 244.482 221.656 249.886 234.397C250.392 235.595 250.899 236.804 251.405 238.013C252.61 240.903 253.803 243.809 254.985 246.729C259.269 257.3 263.355 267.973 267.087 278.06C269.406 284.336 271.59 290.386 273.599 296.048C275.215 300.603 276.712 304.91 278.08 308.875C279.33 312.496 280.461 315.83 281.468 318.822C281.626 319.288 281.778 319.749 281.93 320.194Z" fill="#2F2E41"/>
<path d="M176.922 162.25L140.867 131.66L164.325 107.943L180.691 134.722L241.354 146.737C243.178 145.365 245.362 144.554 247.64 144.401C249.918 144.248 252.191 144.761 254.182 145.876C256.173 146.992 257.797 148.662 258.854 150.683C259.911 152.704 260.357 154.989 260.137 157.259C259.918 159.529 259.041 161.686 257.615 163.467C256.189 165.248 254.276 166.576 252.107 167.29C249.939 168.003 247.609 168.07 245.403 167.484C243.197 166.898 241.209 165.683 239.682 163.987L176.922 162.25Z" fill="#A0616A"/>
<path d="M109.003 91.4569C104.836 104.999 144.52 137.296 144.52 137.296C144.961 134.045 167.46 162.078 168.991 159.54C173.342 152.324 178.129 134.488 183.151 132.208C186.023 130.905 169.546 112.784 169.546 112.784C169.546 112.784 161.141 101.676 150.043 87.5965C146.98 83.5579 142.943 80.3594 138.309 78.2985C133.675 76.2377 128.595 75.3816 123.541 75.8099C123.541 75.8099 113.169 77.9151 109.003 91.4569Z" fill="#3F3D56"/>
<path d="M126.549 61.4784C140.017 61.4784 150.935 50.5715 150.935 37.1171C150.935 23.6628 140.017 12.7559 126.549 12.7559C113.081 12.7559 102.163 23.6628 102.163 37.1171C102.163 50.5715 113.081 61.4784 126.549 61.4784Z" fill="#A0616A"/>
<path d="M138.742 77.5795C143.995 80.6997 147.138 86.4325 148.942 92.2662C152.282 103.066 154.293 114.233 154.929 125.519L156.835 159.308L180.434 231.253C159.981 248.541 83.1021 235.182 83.1021 235.182C83.1021 235.182 80.7421 234.396 83.1021 232.039C85.462 229.681 87.7594 231.77 85.3995 229.412C83.0396 227.055 84.6664 229.681 85.4531 227.324C86.2398 224.966 85.4531 226.538 84.6665 225.752C83.8798 224.966 90.7563 217.893 90.7563 217.893L84.4631 176.596L76.5967 93.2964C86.0365 81.5087 105.021 74.56 105.021 74.56L109.926 65.7393L134.453 67.6994L138.742 77.5795Z" fill="#3F3D56"/>
<path d="M146.651 24.1744C148.546 25.5866 149.95 27.5571 150.666 29.8084C150.941 26.1292 150.958 22.4354 150.718 18.7538C150.431 16.1668 148.607 15.5848 146.496 14.9105C144.59 14.3013 142.433 13.6132 141.853 11.1018C134.188 3.65211 120.844 4.02776 111.711 6.62631C106.686 8.05625 103.795 9.89342 103.536 10.9697L103.482 11.1912L103.278 11.2931C99.4047 13.2279 98.6507 19.3376 98.7005 24.1222C98.7949 33.1367 101.911 43.3749 103.666 44.2066C103.759 44.2506 103.782 44.2334 103.822 44.1999C106.465 42.09 109.69 44.3603 111.107 45.5944C111.942 39.9918 114.633 34.8305 118.75 30.9349C122.867 27.0393 128.171 24.6342 133.816 24.1036C135.66 23.9256 137.489 23.6192 139.29 23.1867C140.203 22.9506 141.143 22.8275 142.086 22.8201C143.71 22.7955 145.303 23.2681 146.651 24.1744Z" fill="#2F2E41"/>
<path d="M115.923 198.953L108.464 195.136C108.064 194.852 107.78 194.433 107.664 193.957C107.548 193.48 107.607 192.978 107.83 192.542C108.054 192.105 108.428 191.764 108.882 191.58C109.337 191.396 109.843 191.381 110.308 191.539L117.768 195.356C118.167 195.64 118.451 196.059 118.567 196.535C118.684 197.011 118.625 197.514 118.401 197.95C118.177 198.386 117.804 198.728 117.349 198.912C116.894 199.096 116.388 199.11 115.923 198.953Z" fill="#6C63FF"/>
<path d="M90.8177 188.728L78.5464 143.09L111.339 136.889L109.575 168.214L152.662 212.534C154.943 212.441 157.202 213.013 159.163 214.18C161.124 215.347 162.703 217.059 163.707 219.107C164.711 221.155 165.097 223.451 164.818 225.714C164.539 227.978 163.606 230.111 162.134 231.854C160.662 233.598 158.714 234.875 156.527 235.531C154.341 236.188 152.011 236.194 149.821 235.55C147.631 234.906 145.676 233.64 144.194 231.905C142.712 230.17 141.767 228.042 141.475 225.78L90.8177 188.728Z" fill="#A0616A"/>
<path d="M75.1906 91.9204C64.0597 100.699 78.3463 149.801 78.3463 149.801C80.5582 147.376 83.1286 183.216 85.8322 181.996C93.5162 178.527 107.6 166.567 113.03 167.542C116.135 168.1 112.882 143.836 112.882 143.836C112.882 143.836 112.283 129.923 111.159 112.039C110.935 106.976 109.432 102.053 106.791 97.727C104.15 93.4009 100.456 89.8127 96.0535 87.2964C96.0535 87.2964 86.3215 83.142 75.1906 91.9204Z" fill="#3F3D56"/>
<path d="M460.992 217.618L15.5211 217.112C13.0177 211.81 10.795 206.38 8.8623 200.845L450.421 201.312C454.671 206.242 458.227 211.728 460.992 217.618Z" fill="#3F3D56"/>
<path d="M319.108 335.601C316.806 336.714 314.483 337.788 312.14 338.823C308.245 336.613 304.394 334.302 300.567 331.94L314.763 325.71L319.108 335.601Z" fill="#FFB6B6"/>
<path d="M422.609 258.115C420.301 261.208 417.92 264.239 415.466 267.208C413.204 269.946 410.881 272.632 408.498 275.266C407.513 276.357 406.517 277.442 405.498 278.516C403.623 280.523 401.708 282.497 399.751 284.437C396.227 285.545 389.09 287.496 381.441 289.318C375.874 290.639 370.037 291.893 365.117 292.691C362.363 293.185 359.577 293.482 356.781 293.58C353.46 293.608 350.088 293.518 346.705 293.338C342.889 293.136 339.067 292.821 335.29 292.416C325.468 291.387 315.956 289.784 307.749 288.137C304.743 287.541 301.917 286.933 299.317 286.343C294.392 285.235 290.272 284.201 287.288 283.413C283.928 282.536 282.014 281.968 282.014 281.968L273.599 296.048L269.231 303.353L266.023 308.723L265.167 310.145C264.807 309.949 264.447 309.746 264.087 309.549C258.398 306.397 252.552 303.539 246.57 300.985C242.641 299.332 238.662 297.842 234.643 296.571H234.637C233.1 296.088 231.558 295.632 230.01 295.216C230.494 293.917 230.984 292.609 231.479 291.291C232.402 288.834 233.344 286.354 234.305 283.852C236.382 278.431 238.532 272.932 240.744 267.461C242.557 262.968 244.403 258.492 246.272 254.078C247.133 252.043 248.883 250.254 251.332 248.686C252.502 247.948 253.723 247.294 254.985 246.729C261.993 243.54 272.316 241.466 283.692 240.133C284.632 240.026 285.577 239.919 286.529 239.818C295.946 238.828 305.937 238.317 315.28 238.081C319.958 237.962 324.472 237.917 328.671 237.912C330.028 237.912 331.347 237.916 332.628 237.923H332.634C336.095 237.94 339.281 237.991 342.084 238.047C342.63 238.058 343.159 238.075 343.677 238.086H343.683C344.032 238.092 344.375 238.103 344.713 238.109C350.843 238.266 354.603 238.457 354.603 238.457L356.061 227.031L356.359 224.726L356.64 222.533V222.527L356.674 222.252L356.905 222.246L360.958 222.167L395.023 221.504L413.631 221.138L410.682 233.768L405.813 254.607C406.308 257.902 422.778 255.321 422.609 258.115Z" fill="#2F2E41"/>
<path d="M323.307 333.52C321.917 334.229 320.515 334.926 319.108 335.601C316.806 336.714 314.483 337.788 312.139 338.823C308.244 336.613 304.394 334.302 300.567 331.94C294.319 328.083 288.133 324.09 281.93 320.194C281.001 319.603 280.078 319.024 279.149 318.451H279.144C276.588 314.661 273.982 310.713 271.354 306.648C271.314 306.592 271.28 306.535 271.247 306.479C270.571 305.444 269.899 304.402 269.232 303.353C265.027 296.774 260.8 289.914 256.696 282.907L267.087 278.06L286.405 269.052L289.737 267.5L299.317 286.343L307.862 303.15L309.764 306.89L323.307 333.52Z" fill="#2F2E41"/>
<path d="M326.218 243.056L375.47 195.606L389.121 156.993L368.986 148.246C358.643 158.144 347.463 188.971 347.463 188.971L313.571 232.046C313.307 232.136 313.043 232.232 312.783 232.347C311.257 233.019 309.93 234.074 308.93 235.408C307.931 236.743 307.293 238.312 307.078 239.965C306.864 241.618 307.079 243.298 307.704 244.843C308.33 246.389 309.343 247.746 310.647 248.786C311.952 249.825 313.502 250.511 315.149 250.777C316.796 251.043 318.484 250.88 320.049 250.304C321.615 249.728 323.005 248.758 324.086 247.488C325.166 246.219 325.901 244.692 326.218 243.056Z" fill="#FFB8B8"/>
<path d="M363.32 152.558L388.861 160.658L388.957 160.642C398.463 159.051 406.351 143.541 411.294 130.809C412.921 126.61 412.89 121.95 411.209 117.772C409.528 113.595 406.322 110.21 402.239 108.303C399.217 106.917 395.868 106.403 392.569 106.819C389.27 107.234 386.153 108.564 383.571 110.656L370.456 121.362L363.32 152.558Z" fill="#6C63FF"/>
<path d="M422.507 258.685L422.656 258.487C430.625 247.929 419.726 221.783 418.078 217.991L425.487 215.799L424.196 201.705L423.574 195.421L429.335 189.956L429.354 189.816L433.316 161.649L438.5 143.007C440.454 135.959 440.496 128.519 438.62 121.45C436.744 114.381 433.02 107.938 427.828 102.782L417.23 92.2712L404.534 72.4183L383.246 71.8693L375.591 85.4539C368.473 86.9053 362.089 90.8055 357.553 96.4751C353.017 102.145 350.615 109.224 350.767 116.481L351.488 152.646L343.849 197.454L343.635 205.594L336.138 213.497L337.524 221.487L331.916 223.718L329.172 235.072C328.124 236.382 321.204 245.121 321.141 247.557C321.131 247.922 321.392 248.283 321.962 248.69C326.441 251.892 351.478 258.829 362.746 254.658C374.748 250.219 421.788 258.556 422.262 258.641L422.507 258.685Z" fill="#6C63FF"/>
<path d="M392.031 65.7834C407.606 65.7834 420.233 53.1697 420.233 37.61C420.233 22.0502 407.606 9.43652 392.031 9.43652C376.455 9.43652 363.829 22.0502 363.829 37.61C363.829 53.1697 376.455 65.7834 392.031 65.7834Z" fill="#FFB8B8"/>
<path d="M388.591 66.1603C392.958 66.2284 397.323 65.9236 401.638 65.2494C405.916 64.3805 415.485 57.3754 418.152 53.16C420.134 50.028 421.402 45.1372 422.116 41.5861C423.078 36.8869 423.041 32.0381 422.008 27.3539C420.975 22.6698 418.969 18.2545 416.119 14.3942C415.024 12.7795 413.512 11.4905 411.744 10.6636C411.587 10.6024 411.426 10.5482 411.263 10.5018C408.686 9.8245 406.371 8.39332 404.614 6.39197C404.274 5.98718 403.904 5.60741 403.509 5.25563C401.524 3.58187 399.17 2.40124 396.64 1.81024C392.557 0.718578 386.648 1.8022 379.078 5.03412C375.274 6.6579 371.115 6.07024 367.915 5.37681C367.735 5.34218 367.55 5.3551 367.377 5.41429C367.204 5.47348 367.049 5.57688 366.929 5.7142C365.567 6.99102 363.773 7.70574 361.905 7.71468C360.762 7.76486 359.562 9.34692 358.111 11.41C357.782 11.8783 357.398 12.4249 357.121 12.7573L357.084 12.1186L356.437 12.8311C355.42 13.951 354.703 15.3097 354.353 16.7807C354.003 18.2518 354.032 19.7874 354.436 21.2445C354.84 22.7016 355.607 24.0328 356.665 25.1142C357.723 26.1956 359.037 26.9919 360.486 27.4291C361.637 27.7349 362.816 27.9226 364.004 27.9892C364.724 28.0539 365.469 28.1208 366.183 28.2446C368.473 28.7132 370.603 29.7671 372.365 31.3036C374.126 32.8401 375.458 34.8065 376.232 37.0109C376.415 37.5205 376.712 37.9813 377.102 38.3576C377.491 38.734 377.962 39.016 378.478 39.1817C378.994 39.3475 379.541 39.3926 380.077 39.3136C380.613 39.2346 381.123 39.0336 381.569 38.7261C382.313 38.1478 383.185 37.7576 384.112 37.589C385.04 37.4203 385.994 37.4782 386.894 37.7576C387.671 38.1896 388.277 38.8755 388.608 39.7004C389.011 40.6194 389.679 41.3976 390.526 41.9359C393.425 43.4289 393.625 50.0427 392.584 55.5561C391.58 60.8706 389.596 64.7151 387.76 64.9052C386.346 65.0513 386.184 65.1516 386.082 65.4015L385.99 65.6251L386.149 65.8343C386.93 66.1171 387.763 66.2283 388.591 66.1603Z" fill="#2F2E41"/>
<path d="M370.323 144.04L359.449 122.382C343.665 123.459 312.339 141.69 312.339 141.69L253.069 154.244C251.314 153.57 249.411 153.37 247.553 153.663C245.695 153.957 243.947 154.735 242.486 155.918C241.024 157.101 239.901 158.648 239.228 160.403C238.555 162.157 238.357 164.058 238.653 165.914C238.95 167.77 239.73 169.515 240.916 170.973C242.102 172.432 243.652 173.553 245.409 174.223C247.167 174.893 249.07 175.088 250.927 174.79C252.784 174.492 254.53 173.71 255.989 172.523L331.384 167.125L370.323 144.04Z" fill="#FFB8B8"/>
<path d="M365.937 147.596L394.336 126.512L399.339 108.504C400.308 104.964 400.267 101.225 399.22 97.7082C398.174 94.1912 396.164 91.0367 393.417 88.6012C389.671 85.3248 384.819 83.5915 379.843 83.7519C374.867 83.9123 370.137 85.9544 366.61 89.4652C355.923 100.122 343.734 114.988 346.352 125.297L346.379 125.402L365.937 147.596Z" fill="#6C63FF"/>
<path d="M330.782 203.988H254.794V214.109H330.782V203.988Z" fill="white"/>
<path d="M136.59 203.988H60.6018V214.109H136.59V203.988Z" fill="white"/>
<path d="M145.463 155.314V203.506C145.464 204.12 145.708 204.709 146.143 205.143C146.577 205.577 147.167 205.821 147.782 205.822H219.269C219.884 205.821 220.474 205.577 220.908 205.143C221.343 204.709 221.587 204.12 221.588 203.506V155.314C221.586 154.7 221.342 154.112 220.907 153.679C220.472 153.245 219.884 153.001 219.269 153H147.782C147.167 153.001 146.579 153.245 146.144 153.679C145.709 154.112 145.465 154.7 145.463 155.314Z" fill="#3F3D56"/>
<path d="M147.14 155.914V202.911C147.141 203.239 147.271 203.554 147.504 203.786C147.736 204.018 148.051 204.148 148.379 204.149H218.674C219.003 204.148 219.317 204.018 219.55 203.786C219.782 203.554 219.913 203.239 219.913 202.911V155.914C219.913 155.585 219.783 155.27 219.55 155.037C219.318 154.805 219.003 154.674 218.674 154.673H148.379C148.05 154.674 147.735 154.805 147.503 155.037C147.271 155.27 147.14 155.585 147.14 155.914Z" fill="#6C63FF"/>
<path d="M143.968 212.904C144.099 213.068 144.265 213.201 144.455 213.291C144.644 213.382 144.852 213.428 145.062 213.427H221.608C221.818 213.427 222.024 213.38 222.213 213.29C222.402 213.2 222.569 213.069 222.701 212.907C222.833 212.744 222.927 212.554 222.976 212.351C223.025 212.148 223.028 211.936 222.985 211.732L221.797 206.093C221.748 205.863 221.642 205.649 221.489 205.471C221.335 205.292 221.14 205.155 220.92 205.071C220.761 205.009 220.591 204.977 220.42 204.977H146.246C146.074 204.977 145.905 205.009 145.746 205.071C145.526 205.155 145.33 205.292 145.177 205.471C145.024 205.649 144.918 205.863 144.869 206.093L143.68 211.732C143.638 211.936 143.642 212.147 143.692 212.35C143.742 212.553 143.836 212.743 143.968 212.904Z" fill="#2F2E41"/>
<path d="M217.794 207.405H219.602C219.753 207.405 219.876 207.282 219.876 207.131V206.267C219.876 206.115 219.753 205.992 219.602 205.992H217.794C217.642 205.992 217.519 206.115 217.519 206.267V207.131C217.519 207.282 217.642 207.405 217.794 207.405Z" fill="#3F3D56"/>
<path d="M213.079 207.405H214.887C215.038 207.405 215.161 207.282 215.161 207.131V206.267C215.161 206.115 215.038 205.992 214.887 205.992H213.079C212.927 205.992 212.804 206.115 212.804 206.267V207.131C212.804 207.282 212.927 207.405 213.079 207.405Z" fill="#3F3D56"/>
<path d="M208.363 207.405H210.171C210.323 207.405 210.446 207.282 210.446 207.131V206.267C210.446 206.115 210.323 205.992 210.171 205.992H208.363C208.212 205.992 208.088 206.115 208.088 206.267V207.131C208.088 207.282 208.212 207.405 208.363 207.405Z" fill="#3F3D56"/>
<path d="M203.648 207.405H205.456C205.608 207.405 205.731 207.282 205.731 207.131V206.267C205.731 206.115 205.608 205.992 205.456 205.992H203.648C203.496 205.992 203.373 206.115 203.373 206.267V207.131C203.373 207.282 203.496 207.405 203.648 207.405Z" fill="#3F3D56"/>
<path d="M198.933 207.405H200.741C200.893 207.405 201.016 207.282 201.016 207.131V206.267C201.016 206.115 200.893 205.992 200.741 205.992H198.933C198.781 205.992 198.658 206.115 198.658 206.267V207.131C198.658 207.282 198.781 207.405 198.933 207.405Z" fill="#3F3D56"/>
<path d="M194.218 207.405H196.026C196.177 207.405 196.301 207.282 196.301 207.131V206.267C196.301 206.115 196.177 205.992 196.026 205.992H194.218C194.066 205.992 193.943 206.115 193.943 206.267V207.131C193.943 207.282 194.066 207.405 194.218 207.405Z" fill="#3F3D56"/>
<path d="M189.503 207.405H191.311C191.462 207.405 191.585 207.282 191.585 207.131V206.267C191.585 206.115 191.462 205.992 191.311 205.992H189.503C189.351 205.992 189.228 206.115 189.228 206.267V207.131C189.228 207.282 189.351 207.405 189.503 207.405Z" fill="#3F3D56"/>
<path d="M184.787 207.405H186.595C186.747 207.405 186.87 207.282 186.87 207.131V206.267C186.87 206.115 186.747 205.992 186.595 205.992H184.787C184.636 205.992 184.513 206.115 184.513 206.267V207.131C184.513 207.282 184.636 207.405 184.787 207.405Z" fill="#3F3D56"/>
<path d="M180.072 207.405H181.88C182.032 207.405 182.155 207.282 182.155 207.131V206.267C182.155 206.115 182.032 205.992 181.88 205.992H180.072C179.92 205.992 179.797 206.115 179.797 206.267V207.131C179.797 207.282 179.92 207.405 180.072 207.405Z" fill="#3F3D56"/>
<path d="M175.357 207.405H177.165C177.317 207.405 177.44 207.282 177.44 207.131V206.267C177.44 206.115 177.317 205.992 177.165 205.992H175.357C175.205 205.992 175.082 206.115 175.082 206.267V207.131C175.082 207.282 175.205 207.405 175.357 207.405Z" fill="#3F3D56"/>
<path d="M170.642 207.405H172.45C172.602 207.405 172.725 207.282 172.725 207.131V206.267C172.725 206.115 172.602 205.992 172.45 205.992H170.642C170.49 205.992 170.367 206.115 170.367 206.267V207.131C170.367 207.282 170.49 207.405 170.642 207.405Z" fill="#3F3D56"/>
<path d="M165.926 207.405H167.734C167.886 207.405 168.009 207.282 168.009 207.131V206.267C168.009 206.115 167.886 205.992 167.734 205.992H165.926C165.775 205.992 165.652 206.115 165.652 206.267V207.131C165.652 207.282 165.775 207.405 165.926 207.405Z" fill="#3F3D56"/>
<path d="M161.211 207.405H163.019C163.171 207.405 163.294 207.282 163.294 207.131V206.267C163.294 206.115 163.171 205.992 163.019 205.992H161.211C161.06 205.992 160.937 206.115 160.937 206.267V207.131C160.937 207.282 161.06 207.405 161.211 207.405Z" fill="#3F3D56"/>
<path d="M156.496 207.405H158.304C158.456 207.405 158.579 207.282 158.579 207.131V206.267C158.579 206.115 158.456 205.992 158.304 205.992H156.496C156.344 205.992 156.221 206.115 156.221 206.267V207.131C156.221 207.282 156.344 207.405 156.496 207.405Z" fill="#3F3D56"/>
<path d="M151.781 207.405H153.589C153.741 207.405 153.864 207.282 153.864 207.131V206.267C153.864 206.115 153.741 205.992 153.589 205.992H151.781C151.629 205.992 151.506 206.115 151.506 206.267V207.131C151.506 207.282 151.629 207.405 151.781 207.405Z" fill="#3F3D56"/>
<path d="M147.066 207.405H148.874C149.026 207.405 149.149 207.282 149.149 207.131V206.267C149.149 206.115 149.026 205.992 148.874 205.992H147.066C146.914 205.992 146.791 206.115 146.791 206.267V207.131C146.791 207.282 146.914 207.405 147.066 207.405Z" fill="#3F3D56"/>
<path d="M217.849 209.76H219.657C219.809 209.76 219.932 209.638 219.932 209.486V208.622C219.932 208.47 219.809 208.347 219.657 208.347H217.849C217.698 208.347 217.575 208.47 217.575 208.622V209.486C217.575 209.638 217.698 209.76 217.849 209.76Z" fill="#3F3D56"/>
<path d="M213.134 209.76H214.942C215.094 209.76 215.217 209.638 215.217 209.486V208.622C215.217 208.47 215.094 208.347 214.942 208.347H213.134C212.982 208.347 212.859 208.47 212.859 208.622V209.486C212.859 209.638 212.982 209.76 213.134 209.76Z" fill="#3F3D56"/>
<path d="M208.419 209.76H210.227C210.379 209.76 210.502 209.638 210.502 209.486V208.622C210.502 208.47 210.379 208.347 210.227 208.347H208.419C208.267 208.347 208.144 208.47 208.144 208.622V209.486C208.144 209.638 208.267 209.76 208.419 209.76Z" fill="#3F3D56"/>
<path d="M203.704 209.76H205.512C205.664 209.76 205.787 209.638 205.787 209.486V208.622C205.787 208.47 205.664 208.347 205.512 208.347H203.704C203.552 208.347 203.429 208.47 203.429 208.622V209.486C203.429 209.638 203.552 209.76 203.704 209.76Z" fill="#3F3D56"/>
<path d="M198.989 209.76H200.797C200.948 209.76 201.072 209.638 201.072 209.486V208.622C201.072 208.47 200.948 208.347 200.797 208.347H198.989C198.837 208.347 198.714 208.47 198.714 208.622V209.486C198.714 209.638 198.837 209.76 198.989 209.76Z" fill="#3F3D56"/>
<path d="M194.273 209.76H196.081C196.233 209.76 196.356 209.638 196.356 209.486V208.622C196.356 208.47 196.233 208.347 196.081 208.347H194.273C194.122 208.347 193.999 208.47 193.999 208.622V209.486C193.999 209.638 194.122 209.76 194.273 209.76Z" fill="#3F3D56"/>
<path d="M189.558 209.76H191.366C191.518 209.76 191.641 209.638 191.641 209.486V208.622C191.641 208.47 191.518 208.347 191.366 208.347H189.558C189.407 208.347 189.284 208.47 189.284 208.622V209.486C189.284 209.638 189.407 209.76 189.558 209.76Z" fill="#3F3D56"/>
<path d="M184.843 209.76H186.651C186.803 209.76 186.926 209.638 186.926 209.486V208.622C186.926 208.47 186.803 208.347 186.651 208.347H184.843C184.691 208.347 184.568 208.47 184.568 208.622V209.486C184.568 209.638 184.691 209.76 184.843 209.76Z" fill="#3F3D56"/>
<path d="M180.128 209.76H181.936C182.088 209.76 182.211 209.638 182.211 209.486V208.622C182.211 208.47 182.088 208.347 181.936 208.347H180.128C179.976 208.347 179.853 208.47 179.853 208.622V209.486C179.853 209.638 179.976 209.76 180.128 209.76Z" fill="#3F3D56"/>
<path d="M175.413 209.76H177.221C177.373 209.76 177.496 209.638 177.496 209.486V208.622C177.496 208.47 177.373 208.347 177.221 208.347H175.413C175.261 208.347 175.138 208.47 175.138 208.622V209.486C175.138 209.638 175.261 209.76 175.413 209.76Z" fill="#3F3D56"/>
<path d="M170.697 209.76H172.505C172.657 209.76 172.78 209.638 172.78 209.486V208.622C172.78 208.47 172.657 208.347 172.505 208.347H170.697C170.546 208.347 170.423 208.47 170.423 208.622V209.486C170.423 209.638 170.546 209.76 170.697 209.76Z" fill="#3F3D56"/>
<path d="M165.982 209.76H167.79C167.942 209.76 168.065 209.638 168.065 209.486V208.622C168.065 208.47 167.942 208.347 167.79 208.347H165.982C165.831 208.347 165.708 208.47 165.708 208.622V209.486C165.708 209.638 165.831 209.76 165.982 209.76Z" fill="#3F3D56"/>
<path d="M161.267 209.76H163.075C163.227 209.76 163.35 209.638 163.35 209.486V208.622C163.35 208.47 163.227 208.347 163.075 208.347H161.267C161.115 208.347 160.992 208.47 160.992 208.622V209.486C160.992 209.638 161.115 209.76 161.267 209.76Z" fill="#3F3D56"/>
<path d="M156.552 209.76H158.36C158.512 209.76 158.635 209.638 158.635 209.486V208.622C158.635 208.47 158.512 208.347 158.36 208.347H156.552C156.4 208.347 156.277 208.47 156.277 208.622V209.486C156.277 209.638 156.4 209.76 156.552 209.76Z" fill="#3F3D56"/>
<path d="M151.837 209.76H153.645C153.796 209.76 153.919 209.638 153.919 209.486V208.622C153.919 208.47 153.796 208.347 153.645 208.347H151.837C151.685 208.347 151.562 208.47 151.562 208.622V209.486C151.562 209.638 151.685 209.76 151.837 209.76Z" fill="#3F3D56"/>
<path d="M147.122 209.76H148.93C149.081 209.76 149.204 209.638 149.204 209.486V208.622C149.204 208.47 149.081 208.347 148.93 208.347H147.122C146.97 208.347 146.847 208.47 146.847 208.622V209.486C146.847 209.638 146.97 209.76 147.122 209.76Z" fill="#3F3D56"/>
<path d="M178.713 212.587H197.025C197.176 212.587 197.299 212.464 197.299 212.312V211.448C197.299 211.297 197.176 211.174 197.025 211.174H178.713C178.562 211.174 178.439 211.297 178.439 211.448V212.312C178.439 212.464 178.562 212.587 178.713 212.587Z" fill="#3F3D56"/>
</g>
<defs>
<clipPath id="clip0_308_697">
<rect width="469" height="356" fill="white"/>
</clipPath>
</defs>
</svg>
