<svg width="84" height="71" viewBox="0 0 84 71" fill="none" xmlns="http://www.w3.org/2000/svg">
<path opacity="0.95" fill-rule="evenodd" clip-rule="evenodd" d="M44.1433 36.7906C46.2949 36.7317 48.4378 36.8467 50.5719 37.1354C52.496 37.7695 53.4602 39.1872 53.4647 41.3888C53.5719 46.2162 53.6077 51.0443 53.5719 55.8731C50.5719 55.8731 47.5719 55.8731 44.5718 55.8731C44.536 58.9394 44.5718 62.005 44.679 65.0695C44.8575 65.261 45.0362 65.4528 45.2147 65.6443C46.2986 65.8765 47.3342 65.7615 48.3219 65.2994C48.6315 63.1783 48.7386 61.0323 48.6433 58.8619C50.2862 58.8619 51.929 58.8619 53.5719 58.8619C53.6077 61.3155 53.5719 63.768 53.4647 66.219C53.327 69.2024 51.8625 70.6968 49.0719 70.7023C46.3815 71.0007 43.7387 70.7708 41.1432 70.0126C39.9486 69.0975 39.3415 67.833 39.3218 66.219C39.1789 57.9423 39.1789 49.6655 39.3218 41.3888C39.3139 39.0596 40.3495 37.6417 42.429 37.1354C43.0429 37.0934 43.6142 36.9784 44.1433 36.7906ZM46.2861 41.8486C46.8574 41.9482 47.4287 42.0631 48.0004 42.1935C48.2578 42.4011 48.4365 42.6691 48.5361 42.9981C48.6433 45.7559 48.6791 48.5148 48.6433 51.2749C47.2862 51.2749 45.9289 51.2749 44.5718 51.2749C44.536 48.4383 44.5718 45.6028 44.679 42.7682C44.745 42.5825 44.8521 42.4291 45.0004 42.3084C45.4626 42.182 45.8912 42.0286 46.2861 41.8486Z" fill="#FEFFFE"/>
<path opacity="0.974" fill-rule="evenodd" clip-rule="evenodd" d="M17.5716 30.1233C21.6531 30.0233 25.7246 30.1382 29.7859 30.4681C32.2912 31.1641 33.9699 32.8118 34.8217 35.4112C34.9646 39.9328 34.9646 44.4543 34.8217 48.9759C34.3091 50.2924 33.4875 51.3269 32.3574 52.0797C33.522 52.4864 34.3434 53.2911 34.8217 54.4937C34.9646 59.6283 34.9646 64.7631 34.8217 69.8977C33.0885 70.1616 31.3387 70.2 29.5717 70.0126C29.1165 69.7547 28.7237 69.4098 28.3931 68.9781C28.1151 64.4714 27.9722 59.9497 27.9645 55.4134C27.6819 54.9565 27.2891 54.6882 26.7859 54.6087C25.9318 54.494 25.0746 54.4556 24.2145 54.4937C24.3143 59.3372 24.2072 64.1653 23.893 68.9781C23.5624 69.4098 23.1696 69.7547 22.7145 70.0126C20.9475 70.2 19.1975 70.1616 17.4644 69.8977C17.2868 56.6234 17.3225 43.3652 17.5716 30.1233ZM24.2145 35.4112C25.1458 35.373 26.0743 35.4114 27.0002 35.5262C27.3829 35.7066 27.7044 35.9747 27.9645 36.3308C28.1074 40.2393 28.1074 44.1478 27.9645 48.0562C27.7016 48.568 27.3086 48.9129 26.7859 49.0908C25.9318 49.2056 25.0746 49.244 24.2145 49.2058C24.2145 44.6076 24.2145 40.0094 24.2145 35.4112Z" fill="#FEFFFE"/>
<path opacity="0.952" fill-rule="evenodd" clip-rule="evenodd" d="M0 17.938C0 16.8651 0 15.7922 0 14.7192C0.514347 14.0894 1.15721 13.8978 1.92858 14.1445C7.69865 15.7399 13.4487 17.3876 19.1787 19.0875C19.1319 18.4717 18.9891 17.8586 18.7501 17.2483C17.1762 16.8633 16.2834 15.8287 16.0715 14.1445C16.1777 13.1139 16.392 12.1177 16.7144 11.1556C14.9755 10.5643 13.2254 9.98956 11.4644 9.43132C11.2942 7.27099 12.1156 6.58127 13.9287 7.36213C13.7818 6.49146 13.996 5.76341 14.5715 5.17799C15.7156 5.2923 16.8585 5.48388 18.0001 5.75276C18.0366 5.4488 17.9651 5.18058 17.7858 4.94808C16.6014 4.70329 15.4586 4.3201 14.3572 3.79853C13.9064 2.72147 14.1564 1.91679 15.1072 1.38447C16.2098 1.70895 17.317 2.01551 18.4287 2.30411C18.8999 1.72658 19.3999 1.15179 19.9287 0.57979C20.4724 0.157312 21.0796 -0.0342784 21.7501 0.00501552C26.877 1.32741 31.9843 2.74517 37.0717 4.25835C39.9931 5.47652 42.1717 7.58404 43.6074 10.5809C44.8726 12.8137 45.6226 15.2277 45.8575 17.823C45.782 19.3775 45.4606 20.872 44.8932 22.3063C43.9201 23.5354 42.6699 24.0336 41.1431 23.8007C40.8181 24.1881 40.4608 24.5329 40.0717 24.8353C46.6222 26.784 53.1936 28.6614 59.7861 30.4681C60.1789 30.583 60.429 30.8513 60.5361 31.2728C60.7016 32.5152 60.6302 33.7415 60.3218 34.9513C59.5386 36.4618 58.36 36.96 56.7861 36.4457C41.9444 31.508 27.087 26.6417 12.2144 21.8465C12.2501 37.787 12.2144 53.7274 12.1072 69.6677C12.0001 69.7827 11.8929 69.8976 11.7858 70.0126C9.78579 70.1659 7.78576 70.1659 5.78575 70.0126C5.67861 69.8976 5.57147 69.7827 5.46432 69.6677C5.35718 53.191 5.32146 36.714 5.35718 20.2371C4.1408 20.2753 2.9265 20.2369 1.7143 20.1221C0.856129 19.6253 0.284696 18.8973 0 17.938ZM21.4287 2.76393C26.2118 3.91318 30.9261 5.29264 35.5717 6.90231C35.1808 8.50333 34.8236 10.1127 34.5002 11.7304C34.5829 13.1738 35.2258 14.2084 36.4288 14.8342C38.6707 15.4317 40.8849 16.1214 43.0717 16.9034C43.202 17.1864 43.2734 17.4929 43.286 17.823C43.1214 18.8734 42.9071 19.908 42.6431 20.9268C42.3575 20.9268 42.0716 20.9268 41.786 20.9268C41.5844 18.8322 40.5129 17.5677 38.5717 17.1333C37.8575 16.98 37.143 16.98 36.4288 17.1333C35.5442 17.5537 34.7229 18.0519 33.9645 18.6277C31.6517 17.9594 29.3301 17.3463 27.0002 16.7884C26.8324 14.8838 25.9039 13.6193 24.2144 12.9949C22.3664 12.4854 20.7951 12.9452 19.5001 14.3744C19.1153 14.4746 18.8296 14.3213 18.643 13.9146C18.9895 12.3113 19.4181 10.7402 19.9287 9.20141C21.2443 9.60221 22.5657 9.98538 23.893 10.351C24.7971 9.88155 25.0827 9.11519 24.7502 8.05186C23.4362 7.3634 22.0433 6.90358 20.5716 6.6724C20.5154 6.33264 20.5868 6.02608 20.7859 5.75276C22.2439 6.14319 22.8509 5.53012 22.6073 3.91348C22.2428 3.47433 21.7786 3.2061 21.2144 3.1088C21.3336 3.02084 21.405 2.90588 21.4287 2.76393ZM37.9288 7.82195C39.9155 9.26857 41.2012 11.1845 41.786 13.5697C40.187 13.1899 38.6514 12.6534 37.1788 11.9603C37.3573 10.5782 37.6074 9.19877 37.9288 7.82195ZM22.5002 15.409C23.5208 15.455 24.1637 15.9915 24.4287 17.0183C23.9777 18.257 23.1919 18.6018 22.0716 18.0529C21.1556 16.9519 21.2985 16.0705 22.5002 15.409ZM26.3573 19.3174C28.833 19.9478 31.2617 20.7141 33.6431 21.6165C33.9011 22.169 33.9727 22.7054 33.8574 23.2259C30.918 22.3801 27.9895 21.4988 25.0716 20.5819C25.6065 20.2759 26.035 19.8544 26.3573 19.3174ZM37.0717 19.7773C38.544 19.6212 39.2227 20.311 39.1074 21.8465C38.1148 22.8116 37.1863 22.7348 36.3217 21.6165C36.1672 20.7995 36.4172 20.1864 37.0717 19.7773Z" fill="#FEFFFE"/>
<path opacity="0.975" fill-rule="evenodd" clip-rule="evenodd" d="M83.7862 38.8599C83.7862 49.2058 83.7862 59.5517 83.7862 69.8977C81.9459 70.1589 80.0887 70.197 78.2148 70.0126C77.679 69.7443 77.2863 69.3229 77.0362 68.7481C77.3574 62.7748 77.7502 56.7972 78.2148 50.8152C78.1758 50.1884 78.0686 49.5753 77.8933 48.9759C76.7688 56.0254 75.5188 63.0376 74.1433 70.0126C71.9482 70.2009 69.7697 70.1625 67.6076 69.8977C66.3111 63.0192 65.0967 56.1219 63.9647 49.2058C63.8406 49.6999 63.7335 50.1979 63.6432 50.7002C64.123 56.7183 64.5158 62.7342 64.8218 68.7481C64.5717 69.3229 64.179 69.7443 63.6432 70.0126C61.8049 70.2003 59.9834 70.1619 58.1789 69.8977C58.0718 59.4754 58.036 49.0529 58.0718 38.6299C60.787 38.5915 63.5014 38.6299 66.2147 38.7449C66.7924 38.9035 67.2568 39.2484 67.6076 39.7795C68.6918 46.8361 69.7991 53.8868 70.929 60.9312C72.0461 53.8824 73.1533 46.8317 74.2505 39.7795C74.6687 39.2291 75.2045 38.8842 75.8576 38.7449C78.5167 38.5582 81.1595 38.5966 83.7862 38.8599Z" fill="#FEFFFE"/>
</svg>
