<svg width="595" height="230" viewBox="0 0 595 230" fill="none" xmlns="http://www.w3.org/2000/svg">
<rect x="92.5363" y="3.52486" width="308.743" height="182.478" rx="13" fill="#3C3E9D"/>
<rect x="92.5363" y="66.657" width="359.767" height="120.211" rx="13" fill="#3C3E9D"/>
<path d="M92.5363 145.384C92.5363 138.204 98.3566 132.384 105.536 132.384H537.922V173.868C537.922 181.048 532.101 186.868 524.922 186.868H105.536C98.3567 186.868 92.5363 181.048 92.5363 173.868V145.384Z" fill="#3C3E9D"/>
<rect x="324.31" y="61.7674" width="79.564" height="182.478" rx="13" transform="rotate(-48.9173 324.31 61.7674)" fill="#3C3E9D"/>
<rect x="340.77" y="57.2789" width="75.9907" height="201.764" rx="13" transform="rotate(-48.9173 340.77 57.2789)" fill="#3C3E9D"/>
<path d="M88.2122 153.14H541.381V173.868C541.381 181.048 535.561 186.868 528.381 186.868H101.212C94.0325 186.868 88.2122 181.048 88.2122 173.868V153.14Z" fill="#484AB5"/>
<path d="M108.407 29.2825C108.969 22.5447 114.601 17.3621 121.362 17.3621H342.443C349.623 17.3621 355.443 23.1824 355.443 30.3621V77.0074C355.443 84.1871 349.623 90.0074 342.443 90.0074H117.475C109.87 90.0074 103.888 83.5071 104.52 75.9278L108.407 29.2825Z" fill="#484AB5"/>
<path d="M369.409 30.4895C369.338 23.2603 375.179 17.3621 382.409 17.3621H386.022C389.168 17.3621 392.207 18.5027 394.575 20.5724L465.778 82.7846C474.821 90.6857 469.233 105.574 457.224 105.574H383.019C375.889 105.574 370.089 99.8314 370.019 92.7017L369.409 30.4895Z" fill="#484AB5"/>
<path d="M377.232 41.6325C377.139 35.4201 382.15 30.3345 388.363 30.3345C391.061 30.3345 393.667 31.3141 395.697 33.0911L436.661 68.9561C445.691 76.862 440.1 91.7371 428.098 91.7371H390.783C383.679 91.7371 377.89 86.0337 377.785 78.9299L377.232 41.6325Z" fill="#292A7A"/>
<circle cx="153.074" cy="181.679" r="38.0523" fill="#1C1D50"/>
<circle cx="153.074" cy="181.679" r="25.0799" fill="#484AB5"/>
<path d="M117.113 30.594C117.398 27.5071 119.988 25.1455 123.088 25.1455H339.93C343.244 25.1455 345.93 27.8318 345.93 31.1455V75.3591C345.93 78.6728 343.244 81.3591 339.93 81.3591H119.007C115.475 81.3591 112.707 78.3242 113.032 74.8076L117.113 30.594Z" fill="#292A7A"/>
<rect x="180.749" y="17.3621" width="14.702" height="72.6453" fill="#40419A"/>
<rect x="297.5" y="17.3621" width="14.702" height="72.6453" fill="#40419A"/>
<path d="M194.586 136.708H439.764L425.494 186.868H212.747L194.586 136.708Z" fill="#3C3E9D"/>
<rect x="189.438" y="7.02486" width="114.076" height="157.317" rx="4.5" stroke="#484AB5" stroke-width="7"/>
<rect x="191.991" y="3.52486" width="108.968" height="12.9724" fill="#3C3E9D"/>
<line x1="188.491" y1="19.0917" x2="188.491" y2="3.52485" stroke="#484AB5" stroke-width="7"/>
<line x1="303.513" y1="19.0917" x2="303.513" y2="3.52485" stroke="#484AB5" stroke-width="7"/>
<line x1="469.56" y1="156.599" x2="469.56" y2="91.737" stroke="#484AB5" stroke-width="7"/>
<mask id="path-21-inside-1_1_43" fill="white">
<path d="M370.145 94.548C370.145 90.1297 373.727 86.548 378.145 86.548H439.98C444.398 86.548 447.98 90.1298 447.98 94.548V159.842C447.98 164.26 444.398 167.842 439.98 167.842H378.145C373.727 167.842 370.145 164.26 370.145 159.842V94.548Z"/>
</mask>
<path d="M370.145 86.548H447.98H370.145ZM447.98 159.842C447.98 168.126 441.264 174.842 432.98 174.842H378.145C369.861 174.842 363.145 168.126 363.145 159.842H377.145C377.145 160.394 377.593 160.842 378.145 160.842H439.98C444.398 160.842 447.98 160.394 447.98 159.842ZM378.145 174.842C369.861 174.842 363.145 168.126 363.145 159.842V101.548C363.145 93.2638 369.861 86.548 378.145 86.548C377.593 86.548 377.145 90.1298 377.145 94.548V159.842C377.145 160.394 377.593 160.842 378.145 160.842V174.842ZM447.98 86.548V167.842V86.548Z" fill="#484AB5" mask="url(#path-21-inside-1_1_43)"/>
<circle cx="487.762" cy="181.679" r="38.0523" fill="#1C1D50"/>
<circle cx="487.762" cy="181.679" r="25.0799" fill="#484AB5"/>
<rect x="281.068" y="96.0611" width="16.4317" height="16.4317" rx="1" fill="#343694"/>
<rect x="291.446" y="96.0611" width="6.05378" height="16.4317" rx="1" fill="#3C3E9D"/>
<rect x="318.256" y="100.385" width="44.1061" height="67.4564" rx="8" fill="#A5A6FC"/>
<rect x="383.118" y="109.898" width="78.6991" height="38.0523" rx="8" fill="#A5A6FC"/>
<rect x="400.71" y="9.20929" width="123.887" height="5.41375" rx="1" transform="rotate(40.8429 400.71 9.20929)" fill="#A5A6FC"/>
<path d="M525.814 111.628L533.713 115.879C536.305 117.274 537.922 119.98 537.922 122.924V134.978H525.814V111.628Z" fill="#A5A6FC"/>
<rect x="115.022" y="96.0611" width="65.7267" height="33.7282" rx="5" fill="#A5A6FC"/>
<rect x="31.9986" y="136.642" width="65.7267" height="6.9186" rx="3.4593" fill="#A5A6FC"/>
<rect x="44.1061" y="120.211" width="65.7267" height="6.9186" rx="3.4593" fill="#A5A6FC"/>
<rect x="16.4317" y="102.049" width="65.7267" height="6.9186" rx="3.4593" fill="#A5A6FC"/>
<rect x="46.7006" y="85.6177" width="65.7267" height="6.9186" rx="3.4593" fill="#A5A6FC"/>
<rect x="46.7006" y="8.64828" width="51.0247" height="6.9186" rx="3.4593" fill="#A5A6FC"/>
<rect x="59.673" y="63.1323" width="39.782" height="6.9186" rx="3.4593" fill="#A5A6FC"/>
<rect x="59.673" y="25.08" width="39.782" height="6.9186" rx="3.4593" fill="#A5A6FC"/>
<path d="M29.4041 50.1599C29.4041 48.2494 30.9529 46.7006 32.8634 46.7006H65.7267C67.6373 46.7006 69.186 48.2494 69.186 50.1599C69.186 52.0705 67.6373 53.6192 65.7267 53.6192H32.8634C30.9529 53.6192 29.4041 52.0705 29.4041 50.1599Z" fill="#A5A6FC"/>
<path d="M0 50.1599C0 48.2494 1.54878 46.7006 3.4593 46.7006H16.4317C18.3422 46.7006 19.891 48.2494 19.891 50.1599C19.891 52.0704 18.3422 53.6192 16.4317 53.6192H3.4593C1.54878 53.6192 0 52.0704 0 50.1599Z" fill="#A5A6FC"/>
<path d="M27.6744 28.5392C27.6744 26.6287 29.2232 25.0799 31.1337 25.0799H44.1061C46.0166 25.0799 47.5654 26.6287 47.5654 28.5392C47.5654 30.4498 46.0166 31.9985 44.1061 31.9985H31.1337C29.2232 31.9985 27.6744 30.4498 27.6744 28.5392Z" fill="#A5A6FC"/>
<path d="M19.891 88.2122C19.891 86.3017 21.4398 84.7529 23.3503 84.7529H36.3227C38.2332 84.7529 39.782 86.3017 39.782 88.2122C39.782 90.1227 38.2332 91.6715 36.3227 91.6715H23.3503C21.4398 91.6715 19.891 90.1227 19.891 88.2122Z" fill="#A5A6FC"/>
<rect x="119.346" y="100.385" width="31.9985" height="16.4317" rx="4" fill="#C4C4FF"/>
<rect x="216.206" y="96.0611" width="60.5378" height="58.8081" rx="6" fill="#A5A6FC"/>
<rect x="216.206" y="122.006" width="81.2936" height="32.8634" rx="6" fill="#A5A6FC"/>
<rect x="196.315" y="96.0611" width="80.4288" height="32.8634" rx="6" fill="#A5A6FC"/>
<line x1="372.74" y1="100.574" x2="470.465" y2="100.574" stroke="#484AB5" stroke-width="10"/>
<rect x="256.853" y="129.789" width="31.9985" height="16.4317" rx="4" fill="#C4C4FF"/>
<rect x="324.31" y="105.574" width="31.9985" height="16.4317" rx="4" fill="#C4C4FF"/>
<rect x="389.172" y="115.087" width="31.9985" height="16.4317" rx="4" fill="#C4C4FF"/>
<rect x="204.964" y="38.1179" width="83.8881" height="35.4578" rx="4" fill="#1C1D50"/>
<rect x="199.775" y="28.6049" width="94.266" height="44.9709" rx="4" fill="#1C1D50"/>
<path d="M507.653 102.547L520.193 109.466L525.814 111.628V133.249H495.545L507.653 102.547Z" fill="#3C3E9D"/>
<rect x="0.864826" y="219.666" width="594.135" height="9.51308" fill="#1C1D50"/>
<path d="M3.4593 140.102C3.4593 138.191 5.00808 136.642 6.9186 136.642H19.891C21.8015 136.642 23.3503 138.191 23.3503 140.102C23.3503 142.012 21.8015 143.561 19.891 143.561H6.9186C5.00808 143.561 3.4593 142.012 3.4593 140.102Z" fill="#A5A6FC"/>
</svg>
