<svg width="553" height="557" viewBox="0 0 553 557" fill="none" xmlns="http://www.w3.org/2000/svg">
<g clip-path="url(#clip0_308_154)">
<path d="M388.939 554H148.491C122.423 554 101.215 532.792 101.215 506.724V47.2759C101.215 21.208 122.423 0 148.491 0H388.939C415.007 0 436.215 21.208 436.215 47.2759V506.724C436.215 532.792 415.007 554 388.939 554Z" fill="#3F3D56"/>
<path d="M436.215 169C435.112 169 434.215 169.897 434.215 171V235C434.215 236.103 435.112 237 436.215 237C437.318 237 438.215 236.103 438.215 235V171C438.215 169.897 437.318 169 436.215 169Z" fill="#3F3D56"/>
<path d="M431.715 47.2762V506.716C431.715 529.406 414.055 547.966 391.725 549.406H391.715C391.385 549.426 391.055 549.446 390.715 549.456C390.125 549.486 389.535 549.496 388.935 549.496C388.935 549.496 386.735 549.336 382.715 549.036C378.655 548.736 372.745 548.286 365.375 547.696C363.165 547.526 360.835 547.336 358.375 547.136C353.475 546.736 348.095 546.296 342.325 545.796C340.025 545.606 337.645 545.396 335.215 545.186C322.795 544.116 308.885 542.866 294.215 541.446C291.735 541.216 289.235 540.976 286.715 540.726C286.055 540.656 285.385 540.596 284.715 540.526C274.255 539.496 263.505 538.386 252.715 537.206C252.045 537.136 251.375 537.066 250.715 536.996C232.125 534.946 213.465 532.716 196.005 530.316C182.575 528.476 169.855 526.536 158.435 524.526C154.715 523.866 151.135 523.206 147.715 522.536C147.045 522.406 146.375 522.276 145.715 522.136C121.545 517.296 105.715 512.076 105.715 506.716V47.2762C105.715 23.6463 124.865 4.49628 148.495 4.49628H174.035C178.115 4.49628 181.395 7.67627 181.745 11.7463C181.775 12.0163 181.805 12.2863 181.855 12.5563C182.595 16.6463 186.345 19.4963 190.505 19.4963H346.925C351.085 19.4963 354.835 16.6463 355.575 12.5563C355.625 12.2863 355.655 12.0163 355.685 11.7463C356.035 7.67627 359.315 4.49628 363.395 4.49628H388.935C412.565 4.49628 431.715 23.6463 431.715 47.2762Z" fill="white"/>
<path d="M229.895 465C230.045 465.67 230.175 466.33 230.305 467H158.215C153.555 467 149.595 470.05 148.225 474.26C147.955 473.82 147.675 473.38 147.405 472.94V472.93C147.485 472.23 147.565 471.53 147.655 470.83C149.085 459.52 151.885 448.41 155.995 437.77C161.805 438.77 167.335 434.87 168.345 429.06C168.875 425.96 168.015 422.77 165.985 420.36L165.625 417.39L165.995 416.73C173.945 403.02 191.505 398.36 205.205 406.31C211.715 410.08 216.485 416.27 218.475 423.53C222.255 437.24 226.955 451.08 229.895 465Z" fill="#FAFAFA"/>
<path d="M423.995 352.05L423.815 352.7C419.905 353.75 416.065 355.04 412.325 356.56C410.185 357.44 408.075 358.39 405.995 359.42C398.835 363 395.935 371.7 399.525 378.86C401.335 382.49 404.595 385.19 408.505 386.31L408.785 386.39L409.385 386.56C401.125 400.91 390.465 413.74 377.865 424.48C359.715 481.49 312.585 481.19 265.055 457.95L265.025 457.94C261.365 467.94 257.255 477.75 252.715 487.37C252.055 488.76 251.395 490.14 250.715 491.52V477.5C250.715 476.6 250.605 475.72 250.385 474.89C250.785 474 251.165 473.11 251.545 472.21C263.755 443.49 271.995 413.14 275.955 382.01C277.485 369.86 278.335 357.64 278.505 345.4C278.635 335.37 278.315 325.35 277.565 315.35C273.405 261.07 256.435 208.55 228.035 162.1C212.845 151.15 201.375 135.8 195.175 118.13C192.915 111.78 191.595 105.13 191.245 98.3902C193.055 98.8701 201.685 71.4801 200.505 69.5901C203.565 66.0201 208.395 64.6601 211.675 61.2201C227.975 44.0801 246.755 49.8001 253.545 76.7201C273.585 90.2101 271.545 108.15 256.245 123.73C246.515 133.64 243.495 148.32 234.695 159.13C235.325 160.19 235.995 161.23 236.625 162.29C248.185 181.75 257.805 202.29 265.355 223.63C265.735 200.84 271.515 178.46 282.225 158.34C292.865 139.67 310.255 125.01 325.875 109.67C337.435 98.1501 356.155 98.1801 367.675 109.74C373.205 115.29 376.305 122.81 376.305 130.64L376.285 131.4C374.145 132.28 372.035 133.23 369.955 134.26C362.795 137.84 359.905 146.55 363.485 153.7C365.295 157.33 368.555 160.04 372.465 161.15L372.745 161.23C371.125 168.36 368.975 175.35 366.295 182.15C375.175 251.18 334.785 270.84 281.355 265.23C280.095 265.69 278.875 266.15 277.625 266.57C284.145 296.52 286.735 327.2 285.335 357.81C284.455 375.87 282.115 393.83 278.345 411.51L278.515 410.89C284.875 391.5 297.725 374.9 314.905 363.89C340.395 347.82 373.905 344.94 400.745 332.82C409.035 328.86 418.955 332.37 422.915 340.66C424.615 344.21 424.995 348.24 423.995 352.05Z" fill="#FAFAFA"/>
<path d="M100.215 121C99.1118 121 98.2148 121.897 98.2148 123V139C98.2148 140.103 99.1118 141 100.215 141C101.318 141 102.215 140.103 102.215 139V123C102.215 121.897 101.318 121 100.215 121Z" fill="#3F3D56"/>
<path d="M100.215 169C99.1118 169 98.2148 169.897 98.2148 171V202C98.2148 203.103 99.1118 204 100.215 204C101.318 204 102.215 203.103 102.215 202V171C102.215 169.897 101.318 169 100.215 169Z" fill="#3F3D56"/>
<path d="M100.215 213C99.1118 213 98.2148 213.897 98.2148 215V246C98.2148 247.103 99.1118 248 100.215 248C101.318 248 102.215 247.103 102.215 246V215C102.215 213.897 101.318 213 100.215 213Z" fill="#3F3D56"/>
<path d="M171.715 11.5002H136.715C135.61 11.5002 134.715 12.3956 134.715 13.5002V14.5002C134.715 15.6048 135.61 16.5002 136.715 16.5002H171.715C172.819 16.5002 173.715 15.6048 173.715 14.5002V13.5002C173.715 12.3956 172.819 11.5002 171.715 11.5002Z" fill="#3F3D56"/>
<path d="M369.715 16.5002C371.924 16.5002 373.715 14.7093 373.715 12.5002C373.715 10.291 371.924 8.50018 369.715 8.50018C367.506 8.50018 365.715 10.291 365.715 12.5002C365.715 14.7093 367.506 16.5002 369.715 16.5002Z" fill="#3F3D56"/>
<path d="M380.715 16.5002C382.924 16.5002 384.715 14.7093 384.715 12.5002C384.715 10.291 382.924 8.50018 380.715 8.50018C378.506 8.50018 376.715 10.291 376.715 12.5002C376.715 14.7093 378.506 16.5002 380.715 16.5002Z" fill="#3F3D56"/>
<path d="M391.715 16.5002C393.924 16.5002 395.715 14.7093 395.715 12.5002C395.715 10.291 393.924 8.50018 391.715 8.50018C389.506 8.50018 387.715 10.291 387.715 12.5002C387.715 14.7093 389.506 16.5002 391.715 16.5002Z" fill="#3F3D56"/>
<path d="M358.715 62.0002H178.715C174.028 62.0002 170.215 58.1872 170.215 53.5002C170.215 48.8132 174.028 45.0002 178.715 45.0002H358.715C363.402 45.0002 367.215 48.8132 367.215 53.5002C367.215 58.1872 363.402 62.0002 358.715 62.0002Z" fill="#E6E6E6"/>
<path d="M181.715 57.5002C178.958 57.5002 176.715 55.257 176.715 52.5002C176.715 49.7433 178.958 47.5002 181.715 47.5002C184.472 47.5002 186.715 49.7433 186.715 52.5002C186.715 55.257 184.472 57.5002 181.715 57.5002ZM181.715 49.5002C180.061 49.5002 178.715 50.8459 178.715 52.5002C178.715 54.1545 180.061 55.5002 181.715 55.5002C183.369 55.5002 184.715 54.1545 184.715 52.5002C184.715 50.8459 183.369 49.5002 181.715 49.5002Z" fill="white"/>
<path d="M189.408 60.8981C189.163 60.8981 188.917 60.8088 188.724 60.6276L184.031 56.2297C183.628 55.8522 183.607 55.2194 183.985 54.8166C184.362 54.4123 184.995 54.3922 185.398 54.7707L190.091 59.1686C190.495 59.5461 190.515 60.1789 190.137 60.5817C189.94 60.7922 189.674 60.8981 189.408 60.8981Z" fill="white"/>
<path d="M181.215 231C180.388 231 179.715 231.673 179.715 232.5V233.5C179.715 234.327 180.388 235 181.215 235H216.215C217.042 235 217.715 234.327 217.715 233.5V232.5C217.715 231.673 217.042 231 216.215 231H181.215Z" fill="#3F3D56"/>
<path d="M240.215 216H158.215C151.322 216 145.715 210.393 145.715 203.5V121.5C145.715 114.608 151.322 109 158.215 109H240.215C247.107 109 252.715 114.608 252.715 121.5V203.5C252.715 210.393 247.107 216 240.215 216ZM158.215 111C152.416 111 147.715 115.701 147.715 121.5V203.5C147.715 209.299 152.416 214 158.215 214H215.654C235.018 214 250.715 198.303 250.715 178.939V121.5C250.715 115.701 246.014 111 240.215 111H158.215Z" fill="#F2F2F2"/>
<path d="M170.215 119.5C163.874 119.5 158.715 124.659 158.715 131V149C158.715 155.341 163.874 160.5 170.215 160.5H188.215C194.556 160.5 199.715 155.341 199.715 149V131C199.715 124.659 194.556 119.5 188.215 119.5H170.215Z" fill="#F2F2F2"/>
<path d="M217.215 119.5C210.874 119.5 205.715 124.659 205.715 131V149C205.715 155.341 210.874 160.5 217.215 160.5H235.215C241.556 160.5 246.715 155.341 246.715 149V131C246.715 124.659 241.556 119.5 235.215 119.5H217.215Z" fill="#F2F2F2"/>
<path d="M166.715 165C160.374 165 155.215 170.159 155.215 176.5V194.5C155.215 200.841 160.374 206 166.715 206H184.715C191.056 206 196.215 200.841 196.215 194.5V176.5C196.215 170.159 191.056 165 184.715 165H166.715Z" fill="#F2F2F2"/>
<path d="M320.215 231C319.388 231 318.715 231.673 318.715 232.5V233.5C318.715 234.327 319.388 235 320.215 235H355.215C356.042 235 356.715 234.327 356.715 233.5V232.5C356.715 231.673 356.042 231 355.215 231H320.215Z" fill="#3F3D56"/>
<path d="M181.215 409C180.388 409 179.715 409.673 179.715 410.5V411.5C179.715 412.327 180.388 413 181.215 413H216.215C217.042 413 217.715 412.327 217.715 411.5V410.5C217.715 409.673 217.042 409 216.215 409H181.215Z" fill="#3F3D56"/>
<path d="M240.215 394H158.215C151.322 394 145.715 388.393 145.715 381.5V299.5C145.715 292.608 151.322 287 158.215 287H240.215C247.107 287 252.715 292.608 252.715 299.5V381.5C252.715 388.393 247.107 394 240.215 394ZM158.215 289C152.416 289 147.715 293.701 147.715 299.5V381.5C147.715 387.299 152.416 392 158.215 392H216.654C235.465 392 250.715 376.75 250.715 357.939V299.5C250.715 293.701 246.014 289 240.215 289H158.215Z" fill="#F2F2F2"/>
<path d="M166.715 297C160.374 297 155.215 302.159 155.215 308.5V326.5C155.215 332.841 160.374 338 166.715 338H184.715C191.056 338 196.215 332.841 196.215 326.5V308.5C196.215 302.159 191.056 297 184.715 297H166.715Z" fill="#F2F2F2"/>
<path d="M213.715 297C207.374 297 202.215 302.159 202.215 308.5V326.5C202.215 332.841 207.374 338 213.715 338H231.715C238.056 338 243.215 332.841 243.215 326.5V308.5C243.215 302.159 238.056 297 231.715 297H213.715Z" fill="#F2F2F2"/>
<path d="M166.715 343C160.374 343 155.215 348.159 155.215 354.5V372.5C155.215 378.841 160.374 384 166.715 384H184.715C191.056 384 196.215 378.841 196.215 372.5V354.5C196.215 348.159 191.056 343 184.715 343H166.715Z" fill="#F2F2F2"/>
<path d="M320.215 409C319.388 409 318.715 409.673 318.715 410.5V411.5C318.715 412.327 319.388 413 320.215 413H355.215C356.042 413 356.715 412.327 356.715 411.5V410.5C356.715 409.673 356.042 409 355.215 409H320.215Z" fill="#3F3D56"/>
<path d="M379.215 394H297.215C290.322 394 284.715 388.393 284.715 381.5V299.5C284.715 292.608 290.322 287 297.215 287H379.215C386.107 287 391.715 292.608 391.715 299.5V381.5C391.715 388.393 386.107 394 379.215 394ZM297.215 289C291.416 289 286.715 293.701 286.715 299.5V381.5C286.715 387.299 291.416 392 297.215 392H356.311C374.76 392 389.715 377.045 389.715 358.597V299.5C389.715 293.701 385.014 289 379.215 289H297.215Z" fill="#F2F2F2"/>
<path d="M305.715 297C299.374 297 294.215 302.159 294.215 308.5V326.5C294.215 332.841 299.374 338 305.715 338H323.715C330.056 338 335.215 332.841 335.215 326.5V308.5C335.215 302.159 330.056 297 323.715 297H305.715Z" fill="#F2F2F2"/>
<path d="M352.715 297C346.374 297 341.215 302.159 341.215 308.5V326.5C341.215 332.841 346.374 338 352.715 338H370.715C377.056 338 382.215 332.841 382.215 326.5V308.5C382.215 302.159 377.056 297 370.715 297H352.715Z" fill="#F2F2F2"/>
<path d="M305.715 343C299.374 343 294.215 348.159 294.215 354.5V372.5C294.215 378.841 299.374 384 305.715 384H323.715C330.056 384 335.215 378.841 335.215 372.5V354.5C335.215 348.159 330.056 343 323.715 343H305.715Z" fill="#F2F2F2"/>
<path d="M252.715 477.496V537.206C252.045 537.136 251.375 537.066 250.715 536.996V477.496C250.715 476.596 250.605 475.716 250.385 474.886C249.225 470.356 245.105 466.996 240.215 466.996H158.215C153.555 466.996 149.595 470.046 148.225 474.256C147.895 475.276 147.715 476.366 147.715 477.496V522.536C147.045 522.406 146.375 522.276 145.715 522.136V477.496C145.715 475.046 146.425 472.756 147.655 470.826C149.875 467.326 153.775 464.996 158.215 464.996H240.215C245.215 464.996 249.535 467.946 251.545 472.206C252.295 473.806 252.715 475.606 252.715 477.496Z" fill="#F2F2F2"/>
<path d="M184.715 475H166.715C160.375 475 155.215 480.16 155.215 486.5V504.5C155.215 510.84 160.375 516 166.715 516H184.715C191.055 516 196.215 510.84 196.215 504.5V486.5C196.215 480.16 191.055 475 184.715 475Z" fill="#F2F2F2"/>
<path d="M231.715 475H213.715C207.375 475 202.215 480.16 202.215 486.5V504.5C202.215 510.84 207.375 516 213.715 516H231.715C238.055 516 243.215 510.84 243.215 504.5V486.5C243.215 480.16 238.055 475 231.715 475Z" fill="#F2F2F2"/>
<path d="M184.715 520.996H166.715C163.465 520.996 160.525 522.356 158.435 524.526C169.855 526.536 182.575 528.476 196.005 530.316C194.985 525.016 190.315 520.996 184.715 520.996Z" fill="#F2F2F2"/>
<path d="M391.715 477.496V549.456H389.715V477.496C389.715 471.706 385.005 466.996 379.215 466.996H297.215C291.425 466.996 286.715 471.706 286.715 477.496V540.726C286.055 540.656 285.385 540.596 284.715 540.526V477.496C284.715 470.606 290.325 464.996 297.215 464.996H379.215C386.105 464.996 391.715 470.606 391.715 477.496Z" fill="#F2F2F2"/>
<path d="M323.715 475H305.715C299.375 475 294.215 480.16 294.215 486.5V504.5C294.215 510.84 299.375 516 305.715 516H323.715C330.055 516 335.215 510.84 335.215 504.5V486.5C335.215 480.16 330.055 475 323.715 475Z" fill="#F2F2F2"/>
<path d="M370.715 475H352.715C346.375 475 341.215 480.16 341.215 486.5V504.5C341.215 510.84 346.375 516 352.715 516H370.715C377.055 516 382.215 510.84 382.215 504.5V486.5C382.215 480.16 377.055 475 370.715 475Z" fill="#F2F2F2"/>
<path d="M323.715 520.996H305.715C299.375 520.996 294.215 526.156 294.215 532.496V541.446C308.885 542.866 322.795 544.116 335.215 545.186V532.496C335.215 526.156 330.055 520.996 323.715 520.996Z" fill="#F2F2F2"/>
<path d="M206.944 342.829C204.238 342.829 202.036 345.031 202.036 347.737V355.42C202.036 358.127 204.238 360.329 206.944 360.329H214.627C217.334 360.329 219.536 358.127 219.536 355.42V347.737C219.536 345.031 217.334 342.829 214.627 342.829H206.944Z" fill="#F2F2F2"/>
<path d="M230.944 342.829C228.238 342.829 226.036 345.031 226.036 347.737V355.42C226.036 358.127 228.238 360.329 230.944 360.329H238.627C241.334 360.329 243.536 358.127 243.536 355.42V347.737C243.536 345.031 241.334 342.829 238.627 342.829H230.944Z" fill="#F2F2F2"/>
<path d="M206.944 166.829C204.238 166.829 202.036 169.031 202.036 171.737V179.42C202.036 182.127 204.238 184.329 206.944 184.329H214.627C217.334 184.329 219.536 182.127 219.536 179.42V171.737C219.536 169.031 217.334 166.829 214.627 166.829H206.944Z" fill="#F2F2F2"/>
<path d="M230.944 166.829C228.238 166.829 226.036 169.031 226.036 171.737V179.42C226.036 182.127 228.238 184.329 230.944 184.329H238.627C241.334 184.329 243.536 182.127 243.536 179.42V171.737C243.536 169.031 241.334 166.829 238.627 166.829H230.944Z" fill="#F2F2F2"/>
<path d="M353.805 521H346.125C343.415 521 341.215 523.2 341.215 525.91V533.59C341.215 536.3 343.415 538.5 346.125 538.5H353.805C356.515 538.5 358.715 536.3 358.715 533.59V525.91C358.715 523.2 356.515 521 353.805 521Z" fill="#F2F2F2"/>
<path d="M377.805 521H370.125C367.415 521 365.215 523.2 365.215 525.91V533.59C365.215 536.3 367.415 538.5 370.125 538.5H377.805C380.515 538.5 382.715 536.3 382.715 533.59V525.91C382.715 523.2 380.515 521 377.805 521Z" fill="#F2F2F2"/>
<path d="M353.805 543.996H346.125C344.595 543.996 343.225 544.696 342.325 545.796C348.095 546.296 353.475 546.736 358.375 547.136C357.675 545.296 355.895 543.996 353.805 543.996Z" fill="#F2F2F2"/>
<path d="M377.805 543.996H370.125C367.835 543.996 365.905 545.566 365.375 547.696C372.745 548.286 378.655 548.736 382.715 549.036V548.906C382.715 546.196 380.515 543.996 377.805 543.996Z" fill="#F2F2F2"/>
<path d="M397.936 121.544L401.302 138.332L391.98 141.593L389.053 123.717C388.624 123.367 388.239 122.95 387.915 122.467C386.153 119.837 386.857 116.277 389.486 114.515C392.116 112.754 395.676 113.457 397.438 116.087C398.561 117.764 398.678 119.818 397.936 121.544Z" fill="#A0616A"/>
<path d="M446.683 231.467L460.328 216.769L416.585 172.025C416.585 172.025 414.798 170.345 416.005 170.112C417.213 169.879 415.387 168.07 415.387 168.07C415.387 168.07 412.538 165.364 414.823 166.208C417.108 167.053 414.212 164.19 414.212 164.19L403.967 130.372L402.149 124.373L386.849 133.505C386.849 133.505 386.985 134.666 387.256 136.647C388.621 146.637 393.416 177.484 401.512 185.322C411.213 194.715 446.683 231.467 446.683 231.467Z" fill="#6C63FF"/>
<path d="M408.186 544.675L398.548 544.674L393.964 507.5L408.188 507.501L408.186 544.675Z" fill="#A0616A"/>
<path d="M408.525 554.729L378.888 554.727V554.353C378.889 547.982 384.053 542.818 390.424 542.817L395.838 538.71L405.938 542.818L408.526 542.818L408.525 554.729Z" fill="#2F2E41"/>
<path d="M486.809 535.228L477.695 538.362L461.269 504.701L474.72 500.075L486.809 535.228Z" fill="#A0616A"/>
<path d="M490.4 544.625L462.374 554.263L462.252 553.909C460.181 547.884 463.385 541.321 469.409 539.249L473.193 533.604L484.08 534.204L486.526 533.362L490.4 544.625Z" fill="#2F2E41"/>
<path d="M468.825 295.916H404.195C404.195 295.916 401.05 323.897 399.882 322.199C398.715 320.5 399.053 322.967 399.384 325.234C399.715 327.5 396.424 328.899 398.569 330.199C400.715 331.5 399.945 333.913 397.83 334.707C395.715 335.5 396.715 341.5 396.715 341.5L385.715 448.917L394.715 529.5H409.715L429.715 382.5V457.5L469.715 524.5L482.715 519.5L466.715 447.5L478.715 314.5L468.825 295.916Z" fill="#2F2E41"/>
<path d="M479.715 303.5L474.775 308.92L399.715 311.5L396.715 304.5L411.715 270.5L427.715 201.5L434.715 186.5V184.851C434.715 184.62 434.661 184.393 434.558 184.187C434.128 183.327 434.616 182.292 435.552 182.076L435.715 179.5L433.715 180.5L446.715 174.5L457.415 175.55L457.715 176.5L459.945 178.21C469.235 185.31 474.595 196.4 474.385 208.09L473.715 245.5L479.715 303.5Z" fill="#3F3D56"/>
<path d="M435.976 169.478C436.422 169.581 436.868 169.67 437.314 169.739C438.7 169.965 440.086 170.034 441.438 169.951C445.542 169.739 449.412 168.222 452.542 165.724C455.849 163.089 458.32 159.363 459.356 154.93C461.792 144.464 455.28 133.992 444.815 131.556C434.5 129.147 424.186 135.433 421.551 145.631C421.51 145.789 421.469 145.94 421.434 146.098C418.998 156.57 425.504 167.035 435.976 169.478Z" fill="#A0616A"/>
<path d="M406.406 304.513L416.419 290.624L425.151 295.237L414.042 309.545C414.077 310.097 414.034 310.663 413.9 311.23C413.171 314.31 410.083 316.216 407.003 315.487C403.923 314.759 402.017 311.671 402.746 308.591C403.21 306.626 404.636 305.144 406.406 304.513Z" fill="#A0616A"/>
<path d="M453.801 194H433.746L430.715 256.5C430.715 256.5 430.699 258.953 429.707 258.227C428.715 257.5 428.631 260.069 428.631 260.069C428.631 260.069 428.586 263.999 427.651 261.749C426.715 259.5 426.588 263.57 426.588 263.57L408.772 294.087L405.612 299.5L422.715 304.5C422.715 304.5 423.473 303.611 424.741 302.065C431.134 294.268 450.478 269.767 450.715 258.5C450.998 245 453.801 194 453.801 194Z" fill="#6C63FF"/>
<path d="M427.715 208.5C427.715 208.5 443.715 187.5 457.715 207.5L454.715 181.5L439.414 178.682C438.517 178.586 437.742 179.306 437.772 180.208L427.715 208.5Z" fill="#3F3D56"/>
<path d="M433.715 187.5L433.665 184.04L433.205 183.3L433.715 182.5L433.795 182.32L435.715 174.5L452.815 168.5L457.415 175.55C450.505 180.21 448.935 187.67 433.715 187.5Z" fill="#6C63FF"/>
<path d="M449.858 166.588L448.191 154.074C448.026 152.832 446.41 152.458 445.715 153.5H442.715L439.715 143.5C439.715 143.5 438.571 148.027 436.637 146.917C434.508 145.696 431.842 146.308 429.473 146.953L430.555 144.081L425.739 145.397L426.385 143.359L423.392 144.318C423.907 143.935 423.443 143.024 422.809 142.925C422.175 142.827 419.715 145.5 418.715 145.5C417.89 145.5 417.079 144.839 416.443 144.315C414.755 142.925 413.913 135.949 414.715 134.5C416.202 131.813 419.578 132.706 421.715 130.5C422.191 130.008 427.231 129.984 427.715 129.5C428.312 128.903 432.631 126.769 433.475 126.761C434.319 126.754 435.118 127.81 434.569 128.451C434.961 127.179 436.597 126.851 437.928 126.877C438.864 126.895 441.782 124.418 442.715 124.5C444.724 124.678 444.749 127.415 446.758 127.593C448.38 127.736 450.307 128.088 450.945 129.587C451.257 130.319 451.164 131.15 451.187 131.945C451.21 132.741 451.418 133.628 452.096 134.046C452.686 134.41 453.475 134.292 454.07 133.936C454.665 133.58 455.108 133.023 455.538 132.479C456.187 134.579 459.836 139.68 460.485 141.781C461.142 143.906 461.801 146.04 462.136 148.239C463.157 154.942 455.94 162.065 451.294 167.004" fill="#2F2E41"/>
<path d="M297.215 110C290.874 110 285.715 115.159 285.715 121.5V203.5C285.715 209.841 290.874 215 297.215 215H379.215C385.556 215 390.715 209.841 390.715 203.5V121.5C390.715 115.159 385.556 110 379.215 110H297.215Z" fill="#F2F2F2"/>
<path d="M305.715 119C299.374 119 294.215 124.159 294.215 130.5V148.5C294.215 154.841 299.374 160 305.715 160H323.715C330.056 160 335.215 154.841 335.215 148.5V130.5C335.215 124.159 330.056 119 323.715 119H305.715Z" fill="#6C63FF"/>
<path d="M352.715 119C346.374 119 341.215 124.159 341.215 130.5V148.5C341.215 154.841 346.374 160 352.715 160H370.715C377.056 160 382.215 154.841 382.215 148.5V130.5C382.215 124.159 377.056 119 370.715 119H352.715Z" fill="#6C63FF"/>
<path d="M305.715 165C299.374 165 294.215 170.159 294.215 176.5V194.5C294.215 200.841 299.374 206 305.715 206H323.715C330.056 206 335.215 200.841 335.215 194.5V176.5C335.215 170.159 330.056 165 323.715 165H305.715Z" fill="white"/>
<path d="M346.123 165C343.417 165 341.215 167.202 341.215 169.909V177.592C341.215 180.298 343.417 182.5 346.123 182.5H353.806C356.513 182.5 358.715 180.298 358.715 177.592V169.909C358.715 167.202 356.513 165 353.806 165H346.123Z" fill="white"/>
<path d="M370.123 165C367.417 165 365.215 167.202 365.215 169.909V177.592C365.215 180.298 367.417 182.5 370.123 182.5H377.806C380.513 182.5 382.715 180.298 382.715 177.592V169.909C382.715 167.202 380.513 165 377.806 165H370.123Z" fill="white"/>
<path d="M346.123 188C343.417 188 341.215 190.202 341.215 192.909V200.592C341.215 203.298 343.417 205.5 346.123 205.5H353.806C356.513 205.5 358.715 203.298 358.715 200.592V192.909C358.715 190.202 356.513 188 353.806 188H346.123Z" fill="white"/>
<path d="M370.123 188C367.417 188 365.215 190.202 365.215 192.909V200.592C365.215 203.298 367.417 205.5 370.123 205.5H377.806C380.513 205.5 382.715 203.298 382.715 200.592V192.909C382.715 190.202 380.513 188 377.806 188H370.123Z" fill="white"/>
<path d="M498.551 538.68C500.617 538.809 501.759 536.242 500.196 534.746L500.041 534.128C500.061 534.079 500.082 534.029 500.102 533.98C502.192 528.998 509.272 529.032 511.344 534.021C513.182 538.45 515.523 542.885 516.099 547.567C516.358 549.634 516.242 551.74 515.783 553.768C520.091 544.357 522.358 534.081 522.358 523.747C522.358 521.151 522.216 518.554 521.925 515.964C521.686 513.846 521.357 511.74 520.931 509.654C518.625 498.377 513.632 487.636 506.431 478.664C502.969 476.772 500.082 473.814 498.338 470.268C497.711 468.989 497.22 467.613 496.988 466.211C497.382 466.263 498.473 460.263 498.176 459.895C498.725 459.062 499.708 458.647 500.308 457.834C503.29 453.791 507.399 454.497 509.544 459.992C514.126 462.304 514.17 466.14 511.359 469.828C509.57 472.175 509.324 475.351 507.755 477.863C507.916 478.07 508.084 478.27 508.246 478.477C511.207 482.275 513.768 486.357 515.927 490.645C515.316 485.879 516.217 480.137 517.753 476.436C519.501 472.219 522.778 468.667 525.663 465.021C529.129 460.642 536.237 462.553 536.847 468.104C536.853 468.158 536.859 468.212 536.865 468.265C536.436 468.507 536.016 468.764 535.606 469.035C533.267 470.583 534.075 474.209 536.847 474.637L536.91 474.647C536.755 476.19 536.49 477.721 536.103 479.226C539.804 493.542 531.813 498.756 520.401 498.99C520.149 499.119 519.904 499.249 519.652 499.371C520.808 502.627 521.732 505.966 522.416 509.35C523.03 512.341 523.456 515.363 523.695 518.399C523.992 522.229 523.966 526.079 523.643 529.902L523.663 529.767C524.483 525.556 526.77 521.622 530.089 518.896C535.035 514.834 542.022 513.338 547.358 510.072C549.926 508.5 553.217 510.532 552.769 513.509L552.747 513.652C551.953 513.975 551.178 514.349 550.428 514.769C550 515.011 549.58 515.268 549.17 515.539C546.83 517.086 547.639 520.713 550.411 521.141L550.474 521.151C550.519 521.157 550.558 521.164 550.603 521.17C549.24 524.406 547.341 527.409 544.964 529.999C542.65 542.496 532.708 543.682 522.074 540.043H522.068C520.905 545.107 519.206 550.054 517.023 554.769H499.003C498.938 554.569 498.88 554.362 498.822 554.162C500.488 554.265 502.168 554.168 503.808 553.865C502.471 552.224 501.134 550.571 499.797 548.93C499.765 548.898 499.739 548.866 499.713 548.833C499.035 547.994 498.351 547.16 497.672 546.321L497.672 546.32C497.63 543.742 497.939 541.173 498.551 538.68Z" fill="#F2F2F2"/>
<path d="M0 554.823C0 555.483 0.53003 556.013 1.19006 556.013H551.48C552.14 556.013 552.67 555.483 552.67 554.823C552.67 554.163 552.14 553.633 551.48 553.633H1.19006C0.53003 553.633 0 554.163 0 554.823Z" fill="#CCCCCC"/>
</g>
<defs>
<clipPath id="clip0_308_154">
<rect width="552.81" height="556.013" fill="white"/>
</clipPath>
</defs>
</svg>
