<svg width="1093" height="464" viewBox="0 0 1093 464" fill="none" xmlns="http://www.w3.org/2000/svg">
<g clip-path="url(#clip0_308_581)">
<path d="M1093 35.79V426.372C1092.99 432.352 1091.49 438.236 1088.63 443.487C1086.71 447.009 1084.21 450.182 1081.23 452.872C1081.01 453.077 1080.79 453.266 1080.57 453.44C1077.87 455.802 1074.82 457.734 1071.53 459.165C1070.08 459.812 1068.57 460.355 1067.04 460.79C1066.03 461.074 1064.99 461.326 1063.95 461.516C1062.54 461.796 1061.11 461.98 1059.67 462.068C1058.87 462.131 1058.05 462.162 1057.21 462.162H696.255L678.196 463.14L661.131 462.162H35.7867C35.0612 462.162 34.3199 462.147 33.6101 462.084C31.6559 461.973 29.7144 461.699 27.8061 461.263C19.9049 459.457 12.8511 455.022 7.79956 448.683C2.748 442.344 -0.00195133 434.478 1.03886e-06 426.372V35.79C0.0114292 26.3014 3.78549 17.2047 10.4943 10.4953C17.2031 3.78583 26.299 0.0114445 35.7867 1.52588e-05H1057.21C1066.7 0.0114445 1075.8 3.78583 1082.51 10.4953C1089.21 17.2047 1092.99 26.3014 1093 35.79Z" fill="#F2F2F2"/>
<path d="M255.254 1.52588e-05C199.283 130.563 210.017 289.122 255.254 462.162H569.259C608.527 288.925 628.404 125.16 569.259 1.52588e-05H255.254Z" fill="#E4E4E4"/>
<path d="M128.605 1.52588e-05C26.3329 125.872 54.8657 287.789 128.605 462.162H255.254C209.581 297.428 202.114 141.628 255.254 1.52588e-05H128.605Z" fill="#CACACA"/>
<path d="M511.209 10.7137H463.713V58.2136H511.209V10.7137Z" fill="white"/>
<path d="M434.688 10.7137H387.193V58.2136H434.688V10.7137Z" fill="white"/>
<path d="M358.168 10.7137H310.672V58.2136H358.168V10.7137Z" fill="white"/>
<path d="M509.89 118.908H462.394V166.408H509.89V118.908Z" fill="white"/>
<path d="M433.369 118.908H385.874V166.408H433.369V118.908Z" fill="white"/>
<path d="M356.848 118.908H309.353V166.408H356.848V118.908Z" fill="white"/>
<path d="M508.57 227.102H461.075V274.602H508.57V227.102Z" fill="white"/>
<path d="M432.05 227.102H384.554V274.602H432.05V227.102Z" fill="white"/>
<path d="M355.529 227.102H308.033V274.602H355.529V227.102Z" fill="white"/>
<path d="M507.251 335.297H459.755V382.797H507.251V335.297Z" fill="white"/>
<path d="M430.73 335.297H383.235V382.797H430.73V335.297Z" fill="white"/>
<path d="M354.21 335.297H306.714V382.797H354.21V335.297Z" fill="white"/>
<path d="M505.935 443.487H458.429V462.162H505.935V443.487Z" fill="white"/>
<path d="M429.409 443.487H381.919V462.162H429.409V443.487Z" fill="white"/>
<path d="M352.883 443.487H305.393V462.162H352.883V443.487Z" fill="white"/>
<path d="M1.03886e-06 245.482V426.372C-0.00195133 434.478 2.748 442.344 7.79956 448.683C12.8511 455.022 19.9049 459.457 27.8061 461.263C29.7144 461.699 31.6559 461.973 33.6101 462.084C34.3199 462.147 35.0612 462.162 35.7867 462.162H173.461C202.365 377.507 255.506 14.1961 37.8528 45.743L1.03886e-06 245.482Z" fill="#E4E4E4"/>
<path d="M111.454 335.297H63.9587V382.797H111.454V335.297Z" fill="white"/>
<path d="M34.935 335.296H0V382.79H34.935V335.296Z" fill="white"/>
<path d="M110.136 443.487H62.6465V462.162H110.136V443.487Z" fill="white"/>
<path d="M4.35303 443.487C6.78885 447.935 10.1375 451.819 14.1793 454.882C18.2212 457.946 22.8649 460.12 27.806 461.263C29.7144 461.699 31.6559 461.973 33.6101 462.084V443.487H4.35303Z" fill="white"/>
<path d="M1093 296.226V426.372C1092.99 432.352 1091.49 438.236 1088.63 443.487L1086.17 441.42L1081.42 437.445L1055.15 415.473L1061.68 442.383L1054 442.793L1053.4 442.824L1039.45 443.581L1027.26 444.244H1027.21L1009.82 445.19L992.832 446.105L987.17 446.405L951.099 448.361L935.721 449.197L928.75 449.575L910.313 450.569L885.582 451.91L880.993 452.162L808.41 456.09L762.245 458.598L755.085 458.976L754.548 459.008L751.631 459.165H751.615L745.29 459.512L736.206 460.001L721.49 460.79L714.992 461.137L696.255 462.162L678.196 463.14L661.131 462.162L606.102 459.008L570.426 456.957L569.259 456.894L505.934 453.266L458.429 450.537L429.408 448.881L381.919 446.152L360.027 444.906L352.883 444.496L335.313 443.487L255.254 438.897L249.292 438.55L248.961 438.534L219.956 436.878L201.85 435.836L239.892 400.488L240.413 399.999L255.254 386.213C265.932 367.048 276.184 347.694 306.718 338.388L310.046 335.296L355.895 292.692L363.718 292.582L569.259 289.869L600.298 289.459L663.891 288.623L686.934 288.323L703.952 289.317L851.389 297.961L860.994 298.529L910.013 301.399L955.373 304.049L976.934 305.311L982.202 305.627L982.549 305.642L985.198 305.8L992.296 305.169L1001.02 304.396L1004.25 304.112L1005.73 303.97L1036.79 301.226L1039.39 300.989L1046.82 300.327L1089.85 359.635L1093 296.226Z" fill="#3F3D56"/>
<path d="M926.519 436.904C904.668 405.27 888.742 324.95 894.974 291.788C894.702 290.706 907.738 308.898 907.78 307.77C907.987 302.199 911.955 297.883 916.644 298.128L975.567 301.217C977.025 301.343 978.425 301.849 979.627 302.685C980.828 303.521 981.789 304.657 982.414 305.981L1026.96 391.304C1027.67 392.668 1028.09 394.16 1028.2 395.691C1028.64 401.242 1025.2 406.162 1020.53 406.678L941.527 415.404C941.267 415.432 941.006 415.447 940.744 415.447C936.991 415.437 927.604 441.172 926.519 436.904Z" fill="white"/>
<path d="M675.696 436.609L676.275 439.748L678.517 451.831C678.97 454.288 679.671 456.692 680.609 459.008C680.89 459.733 681.207 460.443 681.544 461.137C681.712 461.484 681.88 461.815 682.067 462.162H843.835L870.684 459.055L871.02 459.008C876.554 458.247 881.697 455.725 885.687 451.815C888.998 448.518 891.624 444.6 893.417 440.285C895.209 435.971 896.132 431.344 896.132 426.672C896.169 425.367 896.131 424.061 896.019 422.76C895.874 420.917 895.587 419.087 895.16 417.287C898.182 382.98 890.221 349.536 871.898 316.905C870.396 309.93 866.719 303.612 861.398 298.86C857.025 294.989 851.461 292.73 845.628 292.456L715.044 287.093C710.071 286.933 705.164 288.268 700.956 290.926C692.96 295.879 687.149 305.217 686.009 316.447C675.017 351.749 671.348 388.924 675.228 425.694C674.869 429.337 675.026 433.011 675.696 436.609Z" fill="white"/>
<path d="M627.888 452.693L292.365 442.928C288.147 442.805 225.764 467.424 222.736 463.596C216.104 455.211 215.942 441.406 222.374 432.761L368.947 287.391C370.29 285.424 372.077 283.8 374.162 282.649C376.248 281.499 378.575 280.854 380.955 280.768H651.037C652.315 280.769 653.585 280.958 654.808 281.329C663.809 284.043 669.418 295.755 667.335 307.488L644.56 435.807C642.782 445.677 636.037 452.666 628.259 452.698C628.136 452.698 628.012 452.697 627.888 452.693Z" fill="white"/>
<path d="M978.645 311.271L693.491 291.603L355.896 292.696C397.423 248.779 579.948 195.235 775.432 259.917C970.997 266.472 985.2 305.808 985.2 305.808L987.639 309.631L978.645 311.271Z" fill="#6C63FF"/>
<path d="M1091.61 436.215C1090.89 438.743 1089.89 441.182 1088.63 443.487C1086.71 447.009 1084.21 450.182 1081.23 452.872C1081.01 453.077 1080.79 453.266 1080.57 453.44C1077.87 455.802 1074.82 457.734 1071.53 459.165C1070.08 459.812 1068.57 460.355 1067.04 460.79C1066.03 461.074 1064.99 461.326 1063.95 461.516C1062.54 461.796 1061.11 461.98 1059.67 462.068C1058.87 462.131 1058.05 462.162 1057.21 462.162H696.255L678.196 463.14L661.131 462.162H35.7866C35.0611 462.162 34.3198 462.147 33.61 462.084C31.6558 461.973 29.7143 461.699 27.8059 461.263L33.61 460.412L43.231 459.008L62.6463 456.168L110.136 449.228L128.605 446.531L173.46 439.985L180.952 438.897L201.85 435.836L220.288 436.199L248.504 436.767H248.851L255.254 436.893L298.138 437.745L313.894 438.061L429.472 440.348L440.039 440.553L455.795 440.868L505.966 441.878L569.259 443.124L573.486 443.203L641.258 444.559L642.141 444.575L676.714 442.13L710.545 439.748L736.174 437.95L744.439 437.367L744.754 437.351L746.584 437.225L747.782 437.13L757.845 436.42L795.493 433.77L812.258 432.587L819.482 432.082L827.037 431.546L896.134 426.672L915.376 425.316H915.391L925.911 424.574L945.201 423.218H945.216L965.042 421.814H965.057L972.754 421.278L975.704 421.073L998.163 419.495L1011.74 418.533L1035.05 416.893L1042.26 416.388L1051.95 415.694L1054.6 415.505L1055.15 415.473C1055.15 415.473 1063.25 415.646 1073.82 421.514C1077.17 423.379 1080.33 425.555 1083.27 428.013C1085.3 429.705 1087.24 431.511 1089.07 433.423C1089.92 434.306 1090.76 435.237 1091.61 436.215Z" fill="#6C63FF"/>
<path d="M734.045 462.162H758.507L756.268 460.08L755.116 459.008L755.085 458.976L749.927 454.197L745.827 450.38L742.499 453.708L741.158 455.049L737.199 459.008L736.206 460.001L734.045 462.162Z" fill="#CACACA"/>
<path d="M868.06 462.162H905.676L911.464 459.008L928.75 449.575L932.819 447.351L965.042 421.814H965.057L973.148 415.41L977.344 412.082L982.533 407.965L1008.16 387.664C1008.87 387.102 1009.53 386.479 1010.13 385.803C1011.53 384.222 1012.59 382.373 1013.24 380.368C1013.9 378.364 1014.14 376.247 1013.95 374.146C1013.94 373.966 1013.91 373.786 1013.87 373.61C1013.59 371.299 1012.79 369.081 1011.53 367.122C1010.27 365.164 1008.59 363.515 1006.6 362.301C1003.8 360.583 1000.53 359.8 997.253 360.063C993.979 360.327 990.873 361.624 988.384 363.768L969.584 379.62L962.076 385.945L933.009 410.457L915.391 425.316H915.375L912.016 428.155L880.993 452.162L872.129 459.008L868.06 462.162Z" fill="#FFB6B6"/>
<path d="M998.296 406.754C999.288 406.89 1000.3 406.696 1001.17 406.203C1002.04 405.71 1002.73 404.944 1003.12 404.023C1003.63 402.896 1004.48 401.955 1005.55 401.333C1005.76 401.216 1005.97 401.111 1006.19 401.022C1007.54 400.514 1008.75 399.688 1009.71 398.615C1010.67 397.541 1011.36 396.251 1011.71 394.855C1012.82 390.242 1016.36 385.767 1019.92 382.316C1023.82 378.54 1027.98 374.918 1030.86 370.319C1035.02 363.683 1036.19 354.371 1028.17 348.836C1024.72 346.534 1020.59 345.491 1016.46 345.882C1007.82 346.585 1000.68 351.856 993.898 356.963L995.596 353.629C988.283 359.337 979.892 363.509 970.927 365.895C972.478 367.305 971.134 370.126 969.143 370.782C967.152 371.438 965.006 370.746 962.955 370.311C960.371 369.762 957.175 369.809 956.155 372.895C955.932 373.641 955.865 374.424 955.959 375.196C956.053 375.968 956.306 376.713 956.702 377.382C963.903 390.198 973.677 401.386 985.41 410.242C988.017 412.208 991.043 414.142 994.285 413.758C997.527 413.373 1000.29 409.343 998.296 406.754Z" fill="#6C63FF"/>
<path d="M991.144 432.855L992.832 446.105L994.472 459.008L994.646 460.38L994.882 462.162H1057.21C1058.05 462.162 1058.87 462.131 1059.67 462.068C1061.11 461.98 1062.54 461.796 1063.95 461.516L1064.66 458.156L1065.07 456.153L1039 447.935L1027.26 444.244H1027.23L1010.28 438.881L991.144 432.855Z" fill="#FFB6B6"/>
<path d="M966.934 401.718C968.212 404.542 969.931 408.312 971.855 412.586C972.281 413.501 972.707 414.448 973.149 415.41C973.969 417.24 974.82 419.132 975.704 421.073C979.599 429.701 983.842 439.07 987.17 446.405C989.93 452.541 992.075 457.273 992.848 459.008C993.084 459.497 993.195 459.749 993.195 459.749L994.646 460.38L998.794 462.162H1057.21C1058.05 462.162 1058.87 462.131 1059.67 462.068C1061.11 461.98 1062.54 461.796 1063.95 461.516C1064.99 461.326 1066.03 461.074 1067.04 460.79C1068.57 460.355 1070.08 459.812 1071.53 459.165C1074.82 457.734 1077.87 455.802 1080.57 453.44C1080.7 452.351 1080.95 450.6 1081.22 448.471C1081.64 445.291 1081.87 442.088 1081.9 438.881C1081.9 436.31 1075.59 432.146 1073.82 421.514C1073.23 417.631 1073.22 413.68 1073.81 409.794C1077.07 385.85 1075.92 349.209 1052.84 342.048L1036.25 312.993H1004.6L999.456 328.151V328.167L996.507 336.858L994.74 342.048L994.362 342.552L983.069 357.364C983.069 357.364 981.271 359.651 978.811 363.263V363.279C975.26 368.443 972.172 373.912 969.584 379.62C967.895 383.318 966.676 387.212 965.956 391.213C965.253 394.736 965.593 398.387 966.934 401.718Z" fill="#2F2E41"/>
<path d="M1033.64 283.71C1010.39 301.404 984.486 315.486 979.603 334.959C979.603 334.959 982.528 304.363 968.886 310.163C945.964 319.907 953.72 266.916 960.148 258.25C970.861 243.809 1006.99 235.603 1006.99 235.603L1032.61 249.672L1033.64 283.71Z" fill="#2F2E41"/>
<path d="M993.146 305.182C1015.33 305.182 1033.31 287.197 1033.31 265.011C1033.31 242.825 1015.33 224.84 993.146 224.84C970.962 224.84 952.978 242.825 952.978 265.011C952.978 287.197 970.962 305.182 993.146 305.182Z" fill="#FFB6B6"/>
<path d="M1007.61 249.64L1009.16 256.43L982.137 262.582C982.113 261.209 981.806 259.855 981.234 258.607C980.662 257.358 979.838 256.241 978.814 255.326C979.397 257.988 979.331 260.751 978.62 263.383C964.048 271.56 964.886 274.457 953.109 272.372C952.318 272.552 951.501 272.574 950.702 272.438C949.903 272.302 949.139 272.01 948.453 271.578C947.768 271.147 947.173 270.584 946.705 269.923C946.236 269.262 945.903 268.515 945.723 267.725C940.984 246.908 939.427 225.632 960.14 220.465C965.174 219.206 970.41 218.965 975.539 219.756C980.668 220.548 985.587 222.355 990.009 225.072C994.43 227.789 998.265 231.362 1001.29 235.581C1004.31 239.8 1006.46 244.58 1007.61 249.64Z" fill="#2F2E41"/>
<path d="M1001 276.729C999.68 270.93 997.086 265.497 993.41 260.822C989.733 256.147 985.064 252.347 979.741 249.695C974.417 247.043 968.572 245.605 962.626 245.487C956.68 245.368 950.781 246.57 945.356 249.008C947.236 243.461 951.039 238.771 956.077 235.786L986.491 222.58C1001.49 219.165 1025.24 209.47 1036.08 218.754C1046.06 227.282 1041.2 243.976 1050.39 253.326C1060.47 263.572 1061.33 275.687 1058.47 282.655C1055.16 290.717 1048.55 301.716 1040.3 304.096C1039.87 301.259 1038.45 298.664 1036.3 296.766C1036.9 299.47 1036.95 302.265 1036.45 304.989L986.491 344.84C991.157 340.781 995.133 330.323 997.871 318.544C999.492 311.571 1009.16 309.124 1001.32 297.291C993.477 285.457 1002.07 281.407 1001 276.729Z" fill="#2F2E41"/>
<path d="M1041.02 232.28L1040.88 232.56C1040.71 232.934 1040.54 233.308 1040.4 233.697L1040.38 233.713C1039.62 233.993 1038.76 233.542 1037.92 232.825C1038.05 234.51 1038.14 236.139 1038.21 237.737L1011.62 227.327C1016.24 228.126 1016.93 211.667 1020.24 214.821C1020.43 214.992 1020.6 215.163 1020.77 215.335C1020.36 214.342 1020.08 213.3 1019.93 212.235C1019.79 210.898 1019.9 209.547 1020.24 208.248C1020.25 208.242 1020.25 208.235 1020.26 208.226C1020.26 208.218 1020.26 208.21 1020.26 208.201C1020.59 207.027 1021.11 205.913 1021.79 204.899C1022.77 203.426 1024.01 202.143 1025.45 201.115C1027.28 199.711 1029.42 198.76 1031.7 198.338C1033.97 197.915 1036.31 198.034 1038.53 198.685C1043.61 200.607 1047.81 204.325 1050.33 209.136C1052.63 212.838 1053.81 217.129 1053.71 221.487C1053.62 222.63 1053.37 223.756 1052.98 224.835C1052.49 226.351 1051.66 227.734 1050.56 228.876C1049.45 230.019 1048.09 230.891 1046.59 231.424C1046.22 231.548 1045.78 231.688 1045.32 231.86C1045.07 229.833 1045.05 227.784 1045.27 225.754C1043.54 227.708 1042.11 229.907 1041.02 232.28Z" fill="#2F2E41"/>
<path d="M1015.26 226.268C1015.29 227.137 1015.4 228.002 1015.57 228.854C1015.58 228.964 1015.61 229.073 1015.63 229.181C1016.72 234.025 1022.63 223.948 1027.19 227.327C1030.03 229.376 1033.19 230.954 1036.53 232C1036.67 231.61 1037.92 232.374 1038.09 232C1038.14 231.906 1038.04 230.536 1038.09 230.442C1035.24 229.347 1032.61 227.766 1030.3 225.77C1026.02 222.608 1026.63 225.567 1025.63 221.097C1024.48 215.942 1017.69 218.154 1021.18 215.708L1020.77 215.148C1018.3 216.859 1016.47 219.356 1015.59 222.234C1015.59 222.243 1015.59 222.251 1015.58 222.259C1015.58 222.268 1015.58 222.275 1015.57 222.281C1015.31 223.593 1015.21 224.932 1015.26 226.268Z" fill="#6C63FF"/>
<path d="M1008.59 462.162H1037.53L1037.86 459.008L1039 447.935L1039.45 443.581L1041.41 424.637L1042.26 416.388L1044.14 398.201L1044.77 392.081C1045.17 388.028 1043.96 383.979 1041.41 380.808C1038.85 377.636 1035.16 375.595 1031.11 375.124C1030.52 375.057 1029.93 375.02 1029.34 375.014H1029.3C1028.58 375.022 1027.86 375.069 1027.15 375.156C1023.51 375.679 1020.16 377.479 1017.72 380.235C1015.41 382.821 1014.04 386.112 1013.84 389.573L1013.82 389.81V389.825L1012.45 408.817L1011.74 418.533L1011.36 423.912L1010.28 438.881L1009.82 445.19L1008.82 459.008L1008.59 462.162Z" fill="#FFB6B6"/>
<path d="M1051.54 412.479C1052.33 411.864 1052.89 411.005 1053.15 410.037C1053.4 409.068 1053.33 408.042 1052.95 407.116C1052.5 405.966 1052.42 404.702 1052.72 403.503C1052.78 403.272 1052.85 403.045 1052.94 402.823C1053.52 401.503 1053.77 400.063 1053.67 398.626C1053.58 397.188 1053.13 395.795 1052.38 394.565C1049.85 390.554 1049.12 384.892 1049.14 379.932C1049.15 374.505 1049.47 368.997 1048.18 363.723C1046.33 356.116 1040.48 348.78 1030.92 350.658C1026.87 351.519 1023.23 353.752 1020.63 356.979C1015.11 363.655 1013.9 372.449 1012.82 380.873L1011.61 377.329C1010.6 386.551 1007.73 395.472 1003.18 403.557C1005.27 403.431 1006.35 406.362 1005.43 408.246C1004.51 410.13 1002.52 411.184 1000.77 412.349C998.577 413.817 996.38 416.138 997.878 419.022C998.256 419.702 998.77 420.297 999.388 420.769C1000.01 421.24 1000.72 421.579 1001.47 421.763C1015.67 425.552 1030.51 426.362 1045.04 424.142C1048.27 423.648 1051.76 422.831 1053.75 420.24C1055.74 417.65 1054.78 412.862 1051.54 412.479Z" fill="#6C63FF"/>
<path d="M744.439 445.411C744.439 449.854 746.204 454.114 749.345 457.256C752.486 460.398 756.746 462.162 761.189 462.162H795.508C799.951 462.162 804.211 460.398 807.352 457.256C810.494 454.114 812.258 449.854 812.258 445.411V432.64C812.258 429.936 811.604 427.273 810.352 424.878C809.1 422.482 807.286 420.426 805.067 418.883C802.847 417.341 800.287 416.358 797.605 416.02C794.924 415.681 792.2 415.997 789.667 416.94L755.348 429.711C752.145 430.903 749.384 433.045 747.434 435.852C745.484 438.658 744.439 441.993 744.439 445.411Z" fill="#CACACA"/>
<path d="M35.7867 459.008C35.0612 459.008 34.3357 458.976 33.6101 458.929V460.412L43.2311 459.008H35.7867ZM173.461 459.008V462.162H255.254V459.008H173.461ZM606.102 459.008L661.131 462.162H696.255L714.992 461.137L721.49 460.79L736.206 460.001L745.29 459.512L751.615 459.166H751.631L754.549 459.008H606.102ZM1057.21 459.008H1054.25L1054.42 462.162H1057.21C1058.05 462.162 1058.87 462.131 1059.67 462.068L1059.82 460.096L1059.91 458.882C1059.01 458.972 1058.11 459.014 1057.21 459.008ZM35.7867 459.008C35.0612 459.008 34.3357 458.976 33.6101 458.929V460.412L43.2311 459.008H35.7867ZM173.461 459.008V462.162H255.254V459.008H173.461ZM606.102 459.008L661.131 462.162H696.255L714.992 461.137L721.49 460.79L736.206 460.001L745.29 459.512L751.615 459.166H751.631L754.549 459.008H606.102ZM35.7867 459.008C35.0612 459.008 34.3357 458.976 33.6101 458.929V460.412L43.2311 459.008H35.7867ZM62.6464 459.008V462.162H352.883V459.008H62.6464ZM606.102 459.008L661.131 462.162H696.255L714.992 461.137L721.49 460.79L736.206 460.001L745.29 459.512L751.615 459.166H751.631L754.549 459.008H606.102ZM1057.21 459.008H933.624C933.45 460.049 933.293 461.106 933.151 462.162H1057.21C1058.05 462.162 1058.87 462.131 1059.67 462.068L1059.82 460.096L1059.91 458.882C1059.01 458.972 1058.11 459.014 1057.21 459.008ZM35.7867 459.008C35.0612 459.008 34.3357 458.976 33.6101 458.929V460.412L43.2311 459.008H35.7867ZM35.7867 459.008C35.0612 459.008 34.3357 458.976 33.6101 458.929V460.412L43.2311 459.008H35.7867ZM35.7867 459.008C35.0612 459.008 34.3357 458.976 33.6101 458.929V460.412L43.2311 459.008H35.7867ZM35.7867 459.008C35.0612 459.008 34.3357 458.976 33.6101 458.929V460.412L43.2311 459.008H35.7867ZM35.7867 459.008C35.0612 459.008 34.3357 458.976 33.6101 458.929V460.412L43.2311 459.008H35.7867ZM35.7867 459.008C35.0612 459.008 34.3357 458.976 33.6101 458.929V460.412L43.2311 459.008H35.7867ZM35.7867 459.008C35.0612 459.008 34.3357 458.976 33.6101 458.929V460.412L43.2311 459.008H35.7867ZM35.7867 459.008C35.0612 459.008 34.3357 458.976 33.6101 458.929C28.42 458.588 23.3872 457.008 18.9334 454.321C14.4797 451.634 10.7346 447.919 8.01218 443.487H4.35309C6.78891 447.935 10.1375 451.819 14.1794 454.882C18.2212 457.946 22.8649 460.12 27.8061 461.263L33.6101 460.412L43.2311 459.008H35.7867ZM1057.21 1.52588e-05H35.7867C26.299 0.0114445 17.2031 3.78583 10.4943 10.4953C3.78549 17.2047 0.0114292 26.3014 1.03886e-06 35.79V426.372C-0.00195133 434.478 2.748 442.344 7.79956 448.683C12.8511 455.022 19.9049 459.457 27.8061 461.263C29.7144 461.699 31.6559 461.973 33.6101 462.084C34.3199 462.147 35.0612 462.162 35.7867 462.162H1057.21C1058.05 462.162 1058.87 462.131 1059.67 462.068C1061.11 461.98 1062.54 461.796 1063.95 461.516C1064.99 461.326 1066.03 461.074 1067.04 460.79C1068.57 460.355 1070.08 459.812 1071.53 459.166C1074.82 457.734 1077.87 455.802 1080.57 453.44C1080.79 453.266 1081.01 453.077 1081.23 452.872C1084.21 450.182 1086.71 447.009 1088.63 443.487C1091.49 438.236 1092.99 432.352 1093 426.372V35.79C1092.99 26.3014 1089.21 17.2047 1082.51 10.4953C1075.8 3.78583 1066.7 0.0114445 1057.21 1.52588e-05ZM1089.85 426.372C1089.85 428.744 1089.59 431.108 1089.07 433.423C1088.47 436.207 1087.49 438.897 1086.17 441.42C1084.94 443.793 1083.42 446.003 1081.64 447.998V448.014L1081.63 448.029C1081.5 448.171 1081.36 448.329 1081.22 448.471C1077.32 452.726 1072.36 455.862 1066.85 457.557C1066.35 457.714 1065.84 457.856 1065.34 457.998C1065.11 458.061 1064.89 458.109 1064.66 458.156C1063.1 458.52 1061.51 458.763 1059.91 458.882C1059.01 458.972 1058.11 459.014 1057.21 459.008H35.7867C35.0612 459.008 34.3357 458.976 33.6101 458.929C25.3533 458.373 17.6156 454.702 11.9619 448.658C6.30812 442.614 3.16008 434.649 3.15433 426.372V248.716C3.15433 247.628 3.15432 246.555 3.17009 245.482C3.99227 180.911 30.2252 119.265 76.1835 73.9053C122.142 28.5451 184.123 3.12516 248.693 3.15471H1057.21C1061.5 3.15385 1065.74 3.9974 1069.7 5.63717C1073.66 7.27694 1077.26 9.68081 1080.29 12.7114C1083.32 15.7421 1085.72 19.3401 1087.36 23.3C1089 27.2599 1089.85 31.504 1089.85 35.79L1089.85 426.372ZM35.7867 459.008C35.0612 459.008 34.3357 458.976 33.6101 458.929V460.412L43.2311 459.008H35.7867ZM35.7867 459.008C35.0612 459.008 34.3357 458.976 33.6101 458.929V460.412L43.2311 459.008H35.7867ZM35.7867 459.008C35.0612 459.008 34.3357 458.976 33.6101 458.929V460.412L43.2311 459.008H35.7867ZM35.7867 459.008C35.0612 459.008 34.3357 458.976 33.6101 458.929V460.412L43.2311 459.008H35.7867ZM35.7867 459.008C35.0612 459.008 34.3357 458.976 33.6101 458.929V460.412L43.2311 459.008H35.7867ZM35.7867 459.008C35.0612 459.008 34.3357 458.976 33.6101 458.929V460.412L43.2311 459.008H35.7867ZM35.7867 459.008C35.0612 459.008 34.3357 458.976 33.6101 458.929V460.412L43.2311 459.008H35.7867ZM35.7867 459.008C35.0612 459.008 34.3357 458.976 33.6101 458.929V460.412L43.2311 459.008H35.7867ZM606.102 459.008L661.131 462.162H696.255L714.992 461.137L721.49 460.79L736.206 460.001L745.29 459.512L751.615 459.166H751.631L754.549 459.008H606.102ZM173.461 459.008V462.162H255.254V459.008H173.461ZM35.7867 459.008C35.0612 459.008 34.3357 458.976 33.6101 458.929V460.412L43.2311 459.008H35.7867ZM606.102 459.008L661.131 462.162H696.255L714.992 461.137L721.49 460.79L736.206 460.001L745.29 459.512L751.615 459.166H751.631L754.549 459.008H606.102ZM173.461 459.008V462.162H255.254V459.008H173.461ZM35.7867 459.008C35.0612 459.008 34.3357 458.976 33.6101 458.929V460.412L43.2311 459.008H35.7867ZM1057.21 459.008H1054.25L1054.42 462.162H1057.21C1058.05 462.162 1058.87 462.131 1059.67 462.068L1059.82 460.096L1059.91 458.882C1059.01 458.972 1058.11 459.014 1057.21 459.008ZM606.102 459.008L661.131 462.162H696.255L714.992 461.137L721.49 460.79L736.206 460.001L745.29 459.512L751.615 459.166H751.631L754.549 459.008H606.102ZM173.461 459.008V462.162H255.254V459.008H173.461Z" fill="#3F3D56"/>
</g>
<defs>
<clipPath id="clip0_308_581">
<rect width="1093" height="464" fill="white"/>
</clipPath>
</defs>
</svg>
