<svg width="685" height="593" viewBox="0 0 685 593" fill="none" xmlns="http://www.w3.org/2000/svg">
<g clip-path="url(#clip0_308_278)">
<path d="M106.024 527.501L119.188 527.812L114.216 567.879L105.296 567.668L106.024 527.501Z" fill="#FFB6B6"/>
<path d="M135.899 586.275C135.899 585.186 135.333 584.202 134.458 583.771L124.634 578.919L117.936 563.387L117.835 547.74L104.033 546.117L102.037 556.085C102.037 556.085 106.147 555.472 101.073 559.876C95.9988 564.281 98.442 572.897 98.442 572.897L97.3354 589.002H106.469L106.959 578.986C114.063 582 115.805 589.002 115.805 589.002H133.51C134.829 589.002 135.899 587.781 135.899 586.275Z" fill="#2F2E41"/>
<path d="M125.306 527.942L138.47 528.253L133.498 568.32L124.578 568.109L125.306 527.942Z" fill="#FFB6B6"/>
<path d="M155.181 586.716C155.181 585.628 154.614 584.644 153.74 584.212L143.916 579.36L137.218 563.828L137.117 548.181L123.315 546.558L121.319 556.526C121.319 556.526 125.429 555.913 120.355 560.317C115.281 564.722 117.724 573.338 117.724 573.338L116.617 589.444H125.751L126.241 579.428C133.345 582.441 135.087 589.444 135.087 589.444H152.792C154.111 589.444 155.181 588.222 155.181 586.716Z" fill="#2F2E41"/>
<path d="M110.21 292.929L95.2876 328.554C90.3133 340.43 88.7369 353.454 90.7343 366.173L97.9871 541.189H126.663L139.179 385.337L141.649 446.901L112.943 534.614H141.176L177.417 446.901L180.103 379.36L167.228 326.95L110.21 292.929Z" fill="#2F2E41"/>
<path d="M514.489 140.489V51.5027C514.489 23.0585 491.426 7.18191e-09 462.977 7.18191e-09H274.411C245.962 -0.000469893 222.899 23.0577 222.898 51.5019V539.689C222.898 568.133 245.961 591.192 274.41 591.192H462.975C491.424 591.192 514.486 568.133 514.486 539.689V203.831C516.278 203.831 517.731 202.379 517.731 200.588L517.733 143.733C517.733 141.942 516.281 140.489 514.489 140.489Z" fill="#3F3D56"/>
<path d="M504.815 47.2205V542.305C474.711 540.456 490.024 580.114 465.761 581.361H273.326C251.748 581.364 234.252 563.879 234.245 542.305V47.2205C234.252 25.6471 251.747 8.16252 273.324 8.16528H287.516C283.651 17.6678 314.842 20.7594 317.234 20.7624H415.789C426.048 20.7494 450.801 10.3799 449.9 8.16528H465.753C487.322 8.16897 504.808 25.6479 504.815 47.213V47.2205Z" fill="white"/>
<path d="M221.382 151.389C220.009 151.389 218.893 152.505 218.893 153.877V173.78C218.893 175.152 220.009 176.268 221.382 176.268C222.754 176.268 223.87 175.152 223.87 173.78V153.877C223.87 152.505 222.754 151.389 221.382 151.389Z" fill="#3F3D56"/>
<path d="M221.382 211.099C220.009 211.099 218.893 212.215 218.893 213.587V252.149C218.893 253.522 220.009 254.637 221.382 254.637C222.754 254.637 223.87 253.522 223.87 252.149V213.587C223.87 212.215 222.754 211.099 221.382 211.099Z" fill="#3F3D56"/>
<path d="M221.382 265.833C220.009 265.833 218.893 266.949 218.893 268.321V306.883C218.893 308.255 220.009 309.371 221.382 309.371C222.754 309.371 223.87 308.255 223.87 306.883V268.321C223.87 266.949 222.754 265.833 221.382 265.833Z" fill="#3F3D56"/>
<path d="M439.528 201.248H297.099C287.336 201.237 279.425 193.327 279.414 183.566V122.354C279.425 112.593 287.336 104.683 297.099 104.672C342.547 92.0823 390.213 93.2621 439.528 104.672C449.291 104.683 457.202 112.593 457.213 122.354V183.566C457.202 193.327 449.291 201.237 439.528 201.248Z" fill="#F2F2F2"/>
<path d="M454.039 265.4H282.59C280.837 265.399 279.416 263.979 279.415 262.226V219.705C279.417 217.953 280.837 216.533 282.59 216.531H454.039C455.791 216.533 457.212 217.953 457.214 219.705V262.227C457.212 263.979 455.791 265.399 454.039 265.402V265.4ZM282.59 217.801C281.538 217.802 280.686 218.654 280.685 219.705V262.227C280.686 263.279 281.538 264.131 282.59 264.132H454.039C455.09 264.131 455.943 263.279 455.944 262.227V219.705C455.943 218.654 455.09 217.802 454.039 217.801H282.59Z" fill="#E6E6E6"/>
<path d="M335.612 232.073C334.384 232.099 333.41 233.115 333.436 234.342C333.461 235.533 334.421 236.492 335.612 236.518H440.385C441.612 236.564 442.645 235.608 442.692 234.381C442.739 233.155 441.782 232.122 440.555 232.076H335.612V232.073Z" fill="#E6E6E6"/>
<path d="M335.612 245.41C334.384 245.436 333.41 246.451 333.436 247.679C333.461 248.869 334.421 249.829 335.612 249.854H440.385C441.612 249.901 442.645 248.944 442.692 247.718C442.739 246.491 441.782 245.459 440.555 245.412H335.612V245.41Z" fill="#E6E6E6"/>
<path d="M306.18 249.856C311.09 249.856 315.07 245.876 315.07 240.967C315.07 236.057 311.09 232.078 306.18 232.078C301.27 232.078 297.289 236.057 297.289 240.967C297.289 245.876 301.27 249.856 306.18 249.856Z" fill="#E6E6E6"/>
<path d="M454.039 474.112H282.59C280.837 474.111 279.416 472.69 279.415 470.938V428.417C279.417 426.665 280.837 425.245 282.59 425.243H454.039C455.791 425.245 457.212 426.665 457.214 428.417V470.939C457.212 472.691 455.791 474.111 454.039 474.113V474.112ZM282.59 426.512C281.538 426.513 280.686 427.366 280.685 428.417V470.939C280.686 471.99 281.538 472.842 282.59 472.844L434.563 471.346C435.614 471.345 451.561 465.399 451.562 464.348L455.944 428.417C455.943 427.366 455.09 426.513 454.039 426.512H282.59Z" fill="#E6E6E6"/>
<path d="M335.612 447.124C334.384 447.098 333.368 448.072 333.342 449.299C333.316 450.526 334.29 451.542 335.518 451.568C335.549 451.569 335.58 451.569 335.612 451.568H440.385C441.612 451.615 442.645 450.659 442.692 449.432C442.739 448.205 441.782 447.173 440.555 447.126H335.612V447.124Z" fill="#E6E6E6"/>
<path d="M306.18 458.568C311.09 458.568 315.07 454.588 315.07 449.678C315.07 444.769 311.09 440.789 306.18 440.789C301.27 440.789 297.289 444.769 297.289 449.678C297.289 454.588 301.27 458.568 306.18 458.568Z" fill="#E6E6E6"/>
<path d="M454.039 386.131H282.59C280.837 386.129 279.416 384.709 279.415 382.956V340.436C279.417 338.683 280.837 337.263 282.59 337.261H454.039C455.791 337.263 457.212 338.683 457.214 340.436V382.958C457.212 384.71 455.791 386.13 454.039 386.132V386.131ZM282.59 338.531C281.538 338.532 280.686 339.384 280.685 340.436V382.958C280.686 384.009 281.538 384.861 282.59 384.862L434.563 383.365C435.614 383.364 451.561 377.418 451.562 376.366L455.944 340.436C455.943 339.384 455.09 338.532 454.039 338.531H282.59Z" fill="#E6E6E6"/>
<path d="M335.612 359.142C334.384 359.117 333.368 360.09 333.342 361.318C333.316 362.545 334.29 363.561 335.518 363.587C335.549 363.587 335.58 363.587 335.612 363.587H440.385C441.612 363.633 442.645 362.677 442.692 361.451C442.739 360.224 441.782 359.191 440.555 359.145H335.612V359.142Z" fill="#E6E6E6"/>
<path d="M306.18 370.586C311.09 370.586 315.07 366.606 315.07 361.697C315.07 356.788 311.09 352.808 306.18 352.808C301.27 352.808 297.289 356.788 297.289 361.697C297.289 366.606 301.27 370.586 306.18 370.586Z" fill="#E6E6E6"/>
<path d="M301.308 161.322C306.51 163.049 311.964 164.797 317.516 164.502C320.043 164.368 322.474 163.765 324.766 162.694C327.117 161.594 329.265 160.102 331.644 159.061C340.39 155.234 349.062 161.771 357.218 164.225C361.287 165.449 365.567 165.742 369.547 164.037C373.944 162.153 377.261 158.558 380.882 155.556C389 148.826 399.592 145.198 410.129 145.472C421.687 145.773 432.875 150.878 440.834 159.227C441.501 159.927 442.561 158.865 441.895 158.166C434.939 150.87 425.566 145.95 415.584 144.46C405.582 142.966 395.198 144.962 386.403 149.942C381.952 152.462 378.383 155.912 374.462 159.132C370.644 162.267 366.399 164.287 361.366 163.621C352.694 162.473 345.235 155.792 336.241 156.398C330.497 156.785 326.395 161.106 320.99 162.483C314.542 164.127 307.802 161.899 301.707 159.876C300.789 159.571 300.395 161.019 301.308 161.322Z" fill="#3F3D56"/>
<path d="M317.589 169.313C320.658 169.313 323.145 166.826 323.145 163.758C323.145 160.69 320.658 158.203 317.589 158.203C314.521 158.203 312.034 160.69 312.034 163.758C312.034 166.826 314.521 169.313 317.589 169.313Z" fill="#6C63FF"/>
<path d="M365.551 169.559C368.62 169.559 371.107 167.072 371.107 164.004C371.107 160.936 368.62 158.449 365.551 158.449C362.483 158.449 359.996 160.936 359.996 164.004C359.996 167.072 362.483 169.559 365.551 169.559Z" fill="#6C63FF"/>
<path d="M414.259 150.716C417.328 150.716 419.815 148.229 419.815 145.161C419.815 142.093 417.328 139.606 414.259 139.606C411.191 139.606 408.704 142.093 408.704 145.161C408.704 148.229 411.191 150.716 414.259 150.716Z" fill="#6C63FF"/>
<path d="M91.8821 337.878C75.4559 384.639 96.3846 421.48 92.0415 397.715C88.4118 377.854 150.262 317.417 168.879 329.879C168.489 327.863 156.656 291.5 155.496 291.332C157.119 287.246 154.857 287.207 154.765 285.114C154.413 277.027 156.293 268.633 159.954 259.994C162.354 253.319 162.396 247.585 160.07 242.961C158.069 239.16 154.707 236.255 150.656 234.825L138.456 220.094C135.278 216.26 130.592 207.987 125.612 208.018L98.88 207.063C98.116 206.604 88.7294 214.675 79.5897 218.635C69.6771 222.934 71.722 234.667 71.747 234.817L71.77 234.957L71.879 235.057L86.4494 277.936L99.6139 290.272C98.947 292.205 99.1139 293.657 100.363 294.49C98.57 295.815 90.5942 335.488 91.8821 336.878L91.8821 337.878Z" fill="#6C63FF"/>
<path d="M229.241 253.016C227.253 253.81 225.484 255.067 224.082 256.684L202.913 263.939L206.661 273.909L227.731 265.476C229.866 265.625 232.006 265.261 233.972 264.414C238.918 262.362 241.871 258.146 240.563 254.999C239.256 251.852 234.188 250.964 229.241 253.016Z" fill="#FFB6B6"/>
<path d="M116.316 221.02L164.609 286.196L221.218 270.61L218.757 255.845L175.651 264.008L151.603 227.044C143.75 211.867 128.273 208.811 116.316 221.019V221.02Z" fill="#6C63FF"/>
<path d="M463.168 549.67H441.129C437.28 549.67 434.149 546.539 434.149 542.691C429.972 531.342 429.445 521.163 434.149 512.659C434.149 508.811 437.28 505.68 441.129 505.68C447.646 500.953 455.244 502.389 463.168 505.68C467.017 505.68 470.148 508.811 470.148 512.659C467.474 522.281 467.667 532.32 470.148 542.691C470.148 546.539 467.017 549.67 463.168 549.67Z" fill="#6C63FF"/>
<path d="M461.037 519.046H443.237C442.623 519.046 442.125 518.548 442.125 517.933C442.125 517.319 442.623 516.821 443.237 516.821H461.037C461.651 516.821 462.149 517.319 462.149 517.933C462.149 518.548 461.651 519.046 461.037 519.046Z" fill="white"/>
<path d="M461.037 527.942H443.237C442.623 527.942 442.125 527.444 442.125 526.83C442.125 526.215 442.623 525.717 443.237 525.717H461.037C461.651 525.717 462.149 526.215 462.149 526.83C462.149 527.444 461.651 527.942 461.037 527.942Z" fill="white"/>
<path d="M461.037 536.839H443.237C442.623 536.839 442.125 536.341 442.125 535.727C442.125 535.112 442.623 534.614 443.237 534.614H461.037C461.651 534.614 462.149 535.112 462.149 535.727C462.149 536.341 461.651 536.839 461.037 536.839Z" fill="white"/>
<path d="M851 590.105H0V591.787H851V590.105Z" fill="#E6E6E6"/>
<path d="M131.84 201.514L93.1823 205.034L92.0415 164.862L134.156 163.667L131.84 201.514Z" fill="#2F2E41"/>
<path d="M112.292 196.122C123.496 196.122 132.579 187.041 132.579 175.838C132.579 164.636 123.496 155.554 112.292 155.554C101.087 155.554 92.0042 164.636 92.0042 175.838C92.0042 187.041 101.087 196.122 112.292 196.122Z" fill="#FFB6B6"/>
<path d="M128.612 156.074C128.469 151.041 122.205 150.496 117.325 149.254L112.899 146.957C108.555 145.852 103.946 146.629 100.206 149.099L88.4055 156.246C83.1069 159.745 82.2652 165.399 80.1105 171.371L76.2107 180.113C74.0896 185.991 76.8925 193.781 79.0367 199.651L79.9351 202.111L78.5302 210.162L103.122 209.014L105.308 196.585L101.11 191.868C99.6206 190.194 99.4998 187.708 100.82 185.897C105.568 179.385 104.688 170.258 104.688 170.258L110.698 173.536C114.646 174.074 118.165 174.015 121.261 173.368C124.666 172.657 127.559 171.235 129.951 169.114L132.093 176.319C132.645 185.286 130.969 187.666 122.975 196.438L136.994 205.237L136.475 200.475C135.242 189.148 139.002 180.215 138.475 170.995C138.111 164.62 134.318 158.94 128.612 156.074Z" fill="#2F2E41"/>
<path d="M131.97 327.111C129.989 326.3 127.843 325.975 125.711 326.164L105.445 316.674L101.211 326.447L122.224 335.022C123.656 336.612 125.448 337.837 127.45 338.594C132.434 340.555 137.487 339.575 138.734 336.403C139.981 333.231 136.953 329.072 131.97 327.111Z" fill="#FFB6B6"/>
<path d="M72.9996 225.646L62.4312 306.068L113.973 334.189L122.465 321.861L85.7923 297.783L94.1887 254.493C99.0895 238.124 90.0834 225.173 73.0003 225.645L72.9996 225.646Z" fill="#6C63FF"/>
</g>
<defs>
<clipPath id="clip0_308_278">
<rect width="851" height="593" fill="white"/>
</clipPath>
</defs>
</svg>
