<svg width="536" height="479" viewBox="0 0 536 479" fill="none" xmlns="http://www.w3.org/2000/svg">
<path d="M443.722 86.6362C444.198 86.6935 444.673 86.7953 445.149 86.8014C452.059 86.8912 451.162 86.8988 451.189 92.3946C451.192 93.084 451.224 93.782 451.122 94.4615C450.563 98.1708 452.11 100.947 455.512 103.091C457.393 104.276 458.935 105.891 460.813 107.08C466.436 110.641 467.616 116.157 468.464 121.571C470.279 133.15 471.49 144.803 473.214 156.394C474.367 164.144 476.201 171.814 477.318 179.567C478.349 186.726 478.825 193.948 479.564 201.141C479.642 201.901 479.844 202.651 480 203.853C480 213.632 479.561 222.94 476.566 231.951C473.739 240.455 469.139 247.98 459.685 251.929C456.356 253.319 452.539 254.364 448.904 254.475C433.292 254.948 417.674 254.796 402.199 252.485C391.382 250.87 380.583 249.156 369.773 247.502C366.494 247 366.125 247.385 366.138 250.032C366.165 255.626 366.386 261.247 365.875 266.809C364.295 283.975 361.967 301.095 360.815 318.281C360.185 327.687 360.841 337.231 361.825 346.637C362.918 357.083 365.084 367.437 366.707 377.841C367.73 384.402 368.614 390.981 369.561 397.552C370.378 405.689 371.315 413.818 371.981 421.964C372.853 432.608 373.543 443.263 374.24 453.917C374.464 457.352 374.445 460.799 374.57 464.239C374.647 466.363 373.57 467.4 371.231 468.005C360.254 470.847 349 471.976 337.661 472.578C326.423 473.175 315.177 473.645 303.932 474.113C302.617 474.168 300.579 475.007 300.683 472.087C301.008 460.518 301.329 449.403 301.657 438.289C302.06 424.591 302.498 410.894 302.865 397.195C303.262 382.375 303.802 367.555 303.902 352.733C304.027 334.022 303.798 315.309 303.669 296.598C303.57 282.109 302.745 267.663 299.696 253.395C295.399 233.287 290.748 213.237 286.759 193.081C284.616 182.255 283.539 171.261 282.003 160.114C281.789 151.686 277.514 144.899 272.28 138.577C270.855 136.856 270.529 135.614 271.765 133.794C272.585 133.539 273.234 133.384 274.11 133.276C278.356 134.755 282.381 136.175 286.394 137.625C291.477 139.461 296.412 141.768 301.662 143.054C307.655 144.523 313.893 145.303 320.078 146.004C329.517 147.075 337.526 151.378 345.702 155.064C355.92 159.671 365.424 165.543 375.645 170.14C384.643 174.186 394.194 177.25 403.525 180.696C405.286 181.347 407.41 181.831 407.697 179.305C408.239 174.533 408.487 169.735 408.857 164.947C408.776 147.766 408.645 130.585 408.694 113.405C408.698 111.805 409.357 109.804 410.536 108.684C414.661 104.766 415.049 100.64 412.751 95.877C411.997 94.3156 411.396 92.2955 414.387 91.0749C416.81 90.5705 418.847 90.1798 420.9 89.883C428.505 88.784 436.115 87.7159 443.722 86.6362ZM312.179 273.347C312.518 270.798 312.673 268.216 313.233 265.707C314.506 259.995 315.888 254.299 317.391 248.632C319.481 240.749 321.275 232.771 324.032 225.072C326.433 218.365 325.605 212.71 320.406 207.478C315.695 202.737 311.044 197.947 306.409 193.146C305.727 192.44 305.277 191.555 304.598 190.578C309.443 189.83 313.773 189.143 318.11 188.5C320.313 188.173 320.858 187.498 319.514 185.607C313.795 177.558 308.423 169.306 302.529 161.364C297.665 154.811 292.285 148.561 287.013 142.258C286.422 141.551 285.045 141.371 284.032 140.946C284.303 141.913 284.282 143.071 284.892 143.816C289.301 149.196 294.052 154.361 298.275 159.852C302.53 165.387 306.321 171.209 310.275 176.928C312.313 179.875 314.264 182.871 316.396 186.058C315.521 186.335 314.939 186.618 314.325 186.698C310.065 187.249 305.792 187.723 301.539 188.317C300.905 188.406 300.142 188.888 299.846 189.384C299.653 189.706 300.054 190.496 300.436 190.881C305.69 196.17 310.966 201.441 316.28 206.683C321.509 211.84 324.115 217.53 321.767 224.617C319.269 232.155 317.022 239.763 314.826 247.378C313.592 251.661 312.485 255.989 311.675 260.35C310.579 266.252 309.722 272.195 308.953 278.14C308.348 282.82 307.94 287.525 307.673 292.23C307.623 293.098 308.661 294.016 309.197 294.911C309.622 294.025 310.332 293.163 310.426 292.25C311.056 286.109 311.555 279.956 312.179 273.347ZM343.375 185.607C343.435 185.948 343.4 186.332 343.568 186.622C347.411 193.25 350.377 200.198 352.181 207.465C353.983 214.721 355.256 222.08 356.819 229.385C357.105 230.722 355.768 233.188 358.352 233.078C360.735 232.976 359.81 230.483 359.583 229.198C357.933 219.831 356.609 210.435 353.017 201.378C349.685 192.975 346.276 184.657 341.213 176.955C340.801 176.328 339.819 175.999 339.102 175.531C338.981 176.284 338.5 177.188 338.802 177.763C340.14 180.31 341.703 182.763 343.375 185.607ZM403.986 195.538C403.858 197.251 403.861 198.98 403.579 200.672C402.313 208.258 403.56 215.554 406.749 222.599C407.106 223.387 408.354 223.852 409.189 224.467C409.231 223.516 409.631 222.431 409.257 221.638C407.225 217.33 405.671 212.939 406.038 208.21C406.49 202.405 407.178 196.615 407.605 190.809C407.677 189.834 406.948 188.811 406.589 187.811C406.009 188.625 405.16 189.379 404.909 190.268C404.468 191.833 404.393 193.481 403.986 195.538ZM338.764 311.193C340.357 309.479 341.867 307.696 343.567 306.071C345.154 304.553 344.318 303.939 342.632 303.331C341.295 304.796 340.086 306.233 338.748 307.565C333.038 313.254 327.152 318.677 317.574 318.325C316.986 318.303 316.371 318.861 315.768 319.149C316.374 319.701 317.018 320.755 317.578 320.72C320.32 320.549 323.208 320.493 325.73 319.646C330.734 317.967 335.064 315.216 338.764 311.193ZM320.183 289.411C319.032 290.322 317.756 291.139 316.775 292.178C316.177 292.811 316.033 293.786 315.685 294.608C316.58 294.36 317.687 294.331 318.337 293.829C324.84 288.804 331.289 283.722 337.701 278.604C339.054 277.524 340.197 276.232 341.436 275.039C341.272 274.811 341.107 274.583 340.943 274.355C340.223 274.355 339.231 274.078 338.824 274.397C332.636 279.251 326.526 284.183 320.183 289.411ZM413.282 206.368C415.452 208.846 417.558 211.373 419.838 213.768C420.369 214.325 421.494 214.428 422.346 214.741C422.089 213.859 422.152 212.682 421.527 212.141C415.664 207.064 412.582 200.96 412.329 193.65C412.285 192.37 411.56 191.109 411.15 189.838C410.719 189.932 410.289 190.026 409.858 190.12C408.783 195.7 410.127 200.971 413.282 206.368ZM428.864 106.435C434.973 106.432 441.082 106.48 447.188 106.36C447.935 106.345 448.66 105.43 449.395 104.932C448.587 104.607 447.79 104.045 446.967 104.011C445.555 103.953 444.119 104.389 442.708 104.331C436.406 104.072 430.112 103.677 423.81 103.445C423.19 103.422 422.534 104.168 421.895 104.558C422.334 105.001 422.704 105.733 423.226 105.835C424.898 106.16 426.626 106.252 428.864 106.435ZM327.682 357.256C325.46 360.536 323.165 363.779 321.064 367.12C320.491 368.032 320.503 369.238 320.246 370.31C320.567 370.437 320.888 370.564 321.208 370.692C321.712 370.133 322.279 369.61 322.709 369.009C325.285 365.41 327.753 361.746 330.422 358.204C331.476 356.806 333.061 355.734 334.183 354.369C334.555 353.916 334.236 353.009 334.232 352.31C333.584 352.504 332.758 352.537 332.318 352.922C330.817 354.234 329.452 355.671 327.682 357.256ZM402.349 192.171C401.818 190.047 400.398 190.997 399.803 191.853C397.02 195.859 395.774 200.319 395.648 205.015C395.636 205.446 396.278 205.89 396.617 206.328C397.042 205.974 397.705 205.686 397.857 205.254C399.352 201.024 400.763 196.77 402.349 192.171Z" fill="#6365FF"/>
<path d="M237 476.011C233.82 476.727 230.681 477.766 227.452 478.102C215.614 479.334 203.754 478.655 192.073 476.961C174.679 474.439 157.403 471.261 140.061 468.441C137.814 468.076 136.928 467.258 136.687 465.142C135.379 453.621 136.423 442.181 137.77 430.737C138.058 428.287 138.223 425.826 138.487 422.941C142.715 393.672 143.105 364.827 138.853 335.642C137.876 336.287 137.186 336.723 136.519 337.187C127.298 343.589 118.249 350.204 108.813 356.339C99.5387 362.369 89.5787 365.496 77.6272 362.675C55.8463 357.536 50.5332 336.389 55.9882 324.642C60.2379 315.49 63.1725 305.846 66.689 296.419C69.1732 289.76 70.5498 282.538 74.3306 276.54C88.8761 253.462 102.101 229.895 111.532 204.706C116.856 190.487 125.247 178.286 139.774 170.143C144.719 167.372 149.509 164.326 154.672 161.93C166.099 156.626 175.442 148.818 185.547 141.913C190.844 138.294 195.908 134.228 202.733 133.08C203.193 139.333 203.605 145.366 204.062 151.396C204.164 152.744 204.423 154.084 204.575 155.654C205.335 164.711 206.13 173.542 206.741 182.465C197.469 186.045 191.382 192.524 187.312 200.13C182.754 208.646 179.352 217.703 180.524 227.513C180.534 227.598 180.514 227.686 180.527 227.77C181.151 231.825 179.232 234.934 175.943 237.472C174.484 238.599 174.5 239.796 175.37 241.129C176.334 242.606 177.369 244.045 178.349 245.514C182.264 251.384 186.22 257.233 190.049 263.148C191.229 264.97 192.112 264.808 193.738 263.527C197.352 260.682 201.168 258.044 204.962 255.559C205.887 262.659 209.821 268.544 212.636 274.768C215.493 281.084 218.365 287.348 219.529 294.148C219.725 295.294 220.73 296.328 221.362 297.413C221.673 296.19 221.986 294.968 222.291 293.744C222.31 293.666 222.278 293.572 222.251 293.49C220.522 288.216 219.115 282.834 216.98 277.696C214.156 270.9 209.32 264.794 208.166 257.42C207.865 255.491 206.857 254.912 204.906 254.963C206.371 251.084 206.201 247.471 205.277 243.656C204.352 239.832 204.487 235.66 208.674 233.266C211.395 231.709 214.791 231.105 217.985 230.298C218.854 234.668 219.772 238.797 220.365 242.963C222.07 254.958 223.9 266.947 225.176 278.981C225.999 286.751 225.857 294.599 226.283 302.406C226.999 315.53 227.749 328.653 228.62 341.769C229.696 357.968 230.921 374.16 232.063 390.356C233.012 403.809 234.047 417.259 234.839 430.721C235.611 443.843 236.126 456.978 236.75 470.108C236.843 472.075 236.917 474.043 237 476.011ZM131.586 252.308C128.662 254.307 125.899 256.544 122.773 258.242C119.346 260.105 115.206 260.653 112.398 263.757C106.279 270.521 100.037 277.237 91.433 281.702C90.8767 281.991 90.717 282.897 90.3728 283.516C91.2 283.514 92.1698 283.769 92.8321 283.471C99.1411 280.635 104.061 276.269 108.65 271.574C112.964 267.161 116.948 262.639 123.622 260.534C127.184 259.41 130.6 256.939 133.122 254.327C138.512 248.746 144.167 243.5 151.142 239.588C152.611 238.764 155.174 238.516 156.756 239.081C159.491 240.058 161.713 239.479 164.176 238.718C165.594 238.28 167.159 238.234 168.645 237.958C169.24 237.848 170.079 237.732 170.303 237.368C170.531 236.996 170.309 236.218 169.994 235.79C168.569 233.853 166.568 233.818 163.85 235.365C161.794 236.535 159.763 237.776 157.041 236.316C156.063 235.791 154.36 235.947 153.144 236.268C148.582 237.475 144.727 239.776 141.475 242.902C138.29 245.962 135.076 248.998 131.586 252.308ZM151.505 323.893C160.896 317.321 169.584 310.046 176.984 301.684C182.634 295.298 186.32 288.075 183.778 279.567C183.176 277.552 183.897 276.417 185.373 275.131C186.504 274.144 187.368 272.879 188.189 271.65C188.489 271.2 188.324 270.498 188.371 269.912C187.627 270.08 186.648 270.037 186.178 270.455C184.307 272.12 182.525 273.877 180.868 275.716C180.384 276.253 180.001 277.359 180.29 277.889C183.407 283.616 182.131 289.015 178.971 294.287C174.843 301.176 168.679 306.549 162.432 311.812C156.817 316.542 150.953 321.033 145.258 325.689C144.769 326.089 144.728 326.932 144.479 327.569C145.251 327.514 146.209 327.701 146.758 327.358C148.314 326.385 149.703 325.196 151.505 323.893ZM169.963 327.332C169.311 326.479 168.658 325.626 168.006 324.772C167.626 324.872 167.246 324.972 166.866 325.073C166.973 326.191 166.709 327.486 167.246 328.399C171.272 335.237 175.213 342.131 179.657 348.749C184.346 355.731 189.4 362.527 194.607 369.208C197.727 373.211 201.445 376.838 204.97 380.718C206.872 379.289 206.315 378.271 205.219 377.04C200.711 371.974 196.11 366.96 191.898 361.697C188.357 357.272 185.09 352.639 182.091 347.899C177.893 341.265 174.057 334.447 169.963 327.332ZM183.148 176.318C184.84 170.36 186.252 164.321 188.306 158.465C190.333 152.685 193.011 147.089 195.403 141.412C195.093 141.25 194.783 141.089 194.473 140.927C193.787 141.52 192.808 142 192.463 142.724C190.082 147.719 187.297 152.628 185.665 157.824C183.062 166.111 181.238 174.596 179.116 183.003C177.842 188.05 176.616 193.107 175.394 198.164C174.769 200.755 175.378 201.611 178.308 201.867C179.137 201.939 180.037 201.349 180.904 201.063C180.237 200.616 179.578 200.16 178.9 199.728C178.521 199.486 178.111 199.284 177.862 199.146C179.586 191.575 181.278 184.148 183.148 176.318ZM176.678 395.581C179.864 398.97 182.819 402.564 186.283 405.707C194.122 412.818 202.185 419.732 210.254 426.635C210.869 427.162 212.251 426.964 213.277 427.104C212.878 426.344 212.68 425.395 212.05 424.853C205.579 419.287 198.904 413.907 192.549 408.237C184.086 400.686 176.778 392.266 170.288 383.27C169.75 382.524 168.69 382.083 167.873 381.5C167.591 381.712 167.31 381.924 167.028 382.136C168.591 387.352 172.816 391.16 176.678 395.581ZM162.594 224.327C161.775 220.063 161.636 215.568 159.959 211.597C157.973 206.892 154.919 202.489 151.856 198.23C148.517 193.587 144.665 189.239 140.946 184.824C140.576 184.385 139.573 184.375 138.863 184.166C138.936 184.86 138.744 185.714 139.124 186.224C142.874 191.252 146.858 196.143 150.506 201.229C155.741 208.527 160.117 216.158 160.338 225.157C160.351 225.673 161.001 226.177 161.355 226.686C161.767 226.057 162.18 225.428 162.594 224.327ZM75.876 309.57C74.1509 314.031 72.3792 318.48 70.7753 322.977C70.6205 323.411 71.5065 324.145 71.9093 324.739C72.4357 324.224 73.2051 323.785 73.4397 323.179C73.9881 321.762 74.0556 320.177 74.7164 318.816C76.8642 314.394 79.1421 310.02 81.4822 305.677C82.0913 304.547 83.2183 303.647 83.8839 302.533C84.1372 302.109 83.7624 301.382 83.6739 300.793C83.0722 300.91 82.1664 300.842 81.917 301.174C79.9206 303.826 78.0483 306.553 75.876 309.57ZM73.274 307.812C76.6466 303.634 80.0111 299.451 83.3976 295.282C84.2889 294.185 85.3704 293.197 86.1314 292.036C86.584 291.345 86.5819 290.414 86.7842 289.591C85.8351 289.895 84.8744 290.173 83.9452 290.52C83.7182 290.605 83.5929 290.912 83.4233 291.118C80.8435 294.255 78.2188 297.364 75.6977 300.538C73.3093 303.546 71.0295 306.623 68.5314 309.893C71.3994 310.923 72.0237 309.226 73.274 307.812ZM173.042 264.024C172.103 262.246 171.148 260.474 170.226 258.688C168.141 254.648 164.289 251.307 164.25 246.443C164.248 246.094 163.549 245.422 163.308 245.468C162.753 245.574 161.847 246.035 161.852 246.343C161.872 247.746 161.747 249.334 162.418 250.513C165.758 256.386 169.291 262.172 172.882 267.924C173.276 268.555 174.477 268.779 175.304 269.191C175.559 268.9 175.813 268.61 176.068 268.319C175.125 267.003 174.181 265.687 173.042 264.024Z" fill="#6365FF"/>
<path d="M202.189 132.698C195.374 134.067 190.293 138.136 184.978 141.758C174.84 148.666 165.466 156.479 154.001 161.787C148.821 164.184 144.015 167.232 139.054 170.005C124.478 178.153 116.06 190.361 110.719 204.589C101.256 229.793 87.9875 253.374 73.3938 276.466C69.6005 282.469 68.2193 289.695 65.7269 296.358C62.1987 305.79 59.2545 315.441 54.9907 324.598C49.5176 336.352 54.8483 357.512 76.7013 362.654C88.6924 365.476 98.6853 362.348 107.991 356.315C117.458 350.176 126.536 343.556 135.788 337.15C136.457 336.687 137.15 336.25 138.13 335.605C142.396 364.807 142.004 393.67 137.736 422.738C129.169 424.948 120.751 427.31 112.15 428.855C101.558 430.757 90.7795 431.928 79.9388 431.152C69.8401 430.429 60.1625 428.127 51.7565 422.815C48.1803 420.555 44.8912 417.868 41.7685 415.106C36.2427 410.219 30.6742 405.333 25.6155 400.066C18.5975 392.76 13.5047 384.297 9.94178 375.245C7.2885 368.505 5.11147 361.551 3.55331 354.544C2.01625 347.632 1.34072 340.548 0.635103 333.511C0.130529 328.479 -0.168894 323.385 0.102139 318.348C0.487427 311.186 1.11216 304.001 2.3056 296.918C3.85363 287.729 6.13055 278.641 7.96675 269.489C10.0644 259.033 13.5592 248.933 17.6435 239.004C22.1621 228.019 26.7227 217.033 31.8202 206.259C35.336 198.828 39.6636 191.693 43.8711 184.54C47.9122 177.671 52.0784 170.848 56.5363 164.191C60.7468 157.903 65.2249 151.743 69.9176 145.736C75.8218 138.178 81.9088 130.724 88.2114 123.429C92.8209 118.094 97.8067 113.01 102.807 107.96C107.508 103.212 112.282 98.502 117.33 94.0548C122.423 89.568 127.809 85.3372 133.222 81.1556C138.638 76.9715 144.055 72.7532 149.818 68.9748C156.903 64.3297 164.341 60.1166 171.648 55.7461C172.182 55.4266 172.893 55.3442 173.778 55.3856C174.462 60.7505 174.626 65.9127 175.381 71.0044C176.34 77.4739 178.158 83.7747 182.033 89.6311C182.845 96.7653 186.724 102.374 191.662 107.487C194.655 110.586 198.013 113.204 203 113.183C202.698 119.852 202.444 126.275 202.189 132.698Z" fill="#EFEBE0"/>
<path d="M370.177 397.293C369.029 390.678 368.147 384.126 367.126 377.592C365.507 367.231 363.345 356.92 362.255 346.517C361.273 337.15 360.619 327.646 361.248 318.279C362.396 301.164 364.719 284.114 366.295 267.018C366.806 261.48 366.586 255.882 366.558 250.311C366.545 247.675 366.913 247.291 370.185 247.791C380.97 249.439 391.745 251.146 402.538 252.754C417.978 255.055 433.561 255.207 449.137 254.735C452.765 254.625 456.573 253.584 459.894 252.2C469.327 248.268 473.916 240.773 476.737 232.305C479.726 223.331 480.163 214.061 480.226 204.533C482.948 205.899 485.93 207.209 488.232 209.159C494.895 214.8 501.668 220.401 507.687 226.571C515.34 234.415 521.51 243.185 526.07 252.882C529.779 260.77 532.466 268.877 534.333 277.213C535.154 280.878 535.551 284.655 535.706 288.395C535.931 293.844 536.269 299.353 535.635 304.751C534.856 311.393 533.252 317.969 531.777 324.532C530.138 331.824 526.826 338.588 523.118 345.215C517.414 355.41 509.836 364.421 500.777 372.34C493.186 378.975 484.686 384.741 475.394 389.386C462.969 395.599 449.654 400.022 435.651 402.144C425.097 403.743 414.262 404.349 403.573 402.838C392.464 401.267 381.441 399.209 370.177 397.293Z" fill="#EFEBE0"/>
<path d="M237.359 476.052C237.177 474.251 237.103 472.285 237.01 470.32C236.386 457.205 235.871 444.085 235.099 430.977C234.306 417.531 233.272 404.097 232.323 390.658C231.18 374.481 229.955 358.308 228.879 342.127C228.007 329.026 227.257 315.918 226.541 302.809C226.115 295.011 226.257 287.171 225.434 279.411C224.158 267.39 222.327 255.415 220.622 243.433C220.03 239.272 219.111 235.148 218.4 230.65C221.791 229.617 225.111 228.877 228.463 228.288C230.313 227.964 232.663 228.233 232.791 225.863C232.918 223.493 230.824 222.67 228.629 222.373C227.134 222.172 225.581 222.298 224.055 222.316C221.478 222.346 218.903 222.406 216.319 222.251C216.044 220.691 215.777 219.334 215.613 217.813C216.1 217.405 216.451 217.091 216.874 216.928C221.764 215.041 226.658 213.16 231.568 211.314C233.283 210.67 234.975 209.587 234.263 207.985C233.789 206.92 231.672 205.715 230.395 205.802C226.664 206.058 222.967 206.86 219.293 207.59C217.282 207.99 215.343 208.678 213.341 209.038C212.911 207.527 212.512 206.215 212.243 204.748C217.089 201.835 221.857 199.147 226.473 196.262C227.376 195.698 228.362 194.174 228.095 193.456C227.796 192.651 226.092 191.746 225.046 191.79C222.708 191.888 220.324 192.349 218.097 193.028C215.136 193.931 212.306 195.181 209.399 196.07C209.067 194.419 208.756 192.98 208.497 191.363C209.905 189.913 211.377 188.723 212.571 187.339C213.267 186.532 214.098 185.229 213.805 184.489C213.516 183.761 211.937 183.271 210.828 183.026C209.671 182.771 208.4 182.933 207.179 182.912C206.385 174.091 205.59 165.271 205 156.302C207.088 157.86 208.93 159.604 210.861 161.264C217.952 167.358 225.454 172.917 235.229 175.203C243.131 177.051 251.112 176.266 259.132 175.808C266.997 175.359 273.374 172.883 277.931 167.017C279.398 165.13 280.789 163.196 282.215 161.284C283.761 172.154 284.83 183.1 286.956 193.878C290.914 213.943 295.528 233.905 299.792 253.923C302.817 268.127 303.635 282.509 303.733 296.933C303.861 315.561 304.088 334.19 303.964 352.818C303.865 367.574 303.329 382.328 302.935 397.082C302.571 410.719 302.136 424.356 301.736 437.993C301.412 449.057 301.093 460.122 300.728 471.426C292.836 472.321 284.992 473.039 277.134 473.605C274.091 473.825 271.016 473.764 267.957 473.725C257.962 473.598 247.968 473.423 237.698 473.262C237.64 473.898 237.549 474.894 237.359 476.052ZM248.441 285.267C248.823 285.95 249.138 286.672 249.596 287.311C253.434 292.672 256.926 298.275 261.247 303.304C266.866 309.844 274.924 313.559 283.312 316.579C286.477 317.718 289.787 318.555 293.081 319.363C293.768 319.532 294.678 318.969 295.486 318.743C294.959 318.157 294.557 317.255 293.884 317.04C290.76 316.044 287.382 315.569 284.427 314.291C279.131 312.001 273.649 309.768 269.014 306.604C262.03 301.837 257.243 295.301 253.307 288.219C249.869 282.032 245.927 276.067 242.061 270.08C241.343 268.967 239.931 268.215 238.839 267.297C238.519 267.557 238.2 267.817 237.88 268.077C241.363 273.683 244.845 279.289 248.441 285.267ZM269.136 225.964C257.127 218.625 246.834 209.498 236.558 199.809C235.826 202.318 236.247 203.005 238.98 205.609C250.211 216.31 262.598 225.724 276.883 233.011C277.709 233.433 278.86 233.342 279.86 233.489C279.325 232.608 279.033 231.4 278.21 230.905C275.388 229.207 272.38 227.76 269.136 225.964ZM275.444 365.167C268.443 362.649 261.256 362.598 254.208 364.602C251.048 365.501 248.259 367.482 245.367 369.068C244.981 369.279 244.977 370.051 244.796 370.564C245.394 370.674 246.013 370.922 246.585 370.854C247.109 370.791 247.595 370.404 248.076 370.129C257.876 364.522 267.901 363.712 278.205 368.998C279.693 369.761 280.727 369.686 281.062 367.501C279.393 366.806 277.624 366.069 275.444 365.167Z" fill="#E7E7E3"/>
<path d="M409 165.15C408.81 169.957 408.563 174.702 408.023 179.42C407.738 181.918 405.622 181.439 403.868 180.796C394.575 177.388 385.061 174.359 376.1 170.358C365.92 165.813 356.454 160.006 346.278 155.452C338.134 151.807 330.157 147.552 320.756 146.494C314.596 145.8 308.383 145.029 302.415 143.577C297.186 142.305 292.27 140.024 287.208 138.208C283.212 136.775 279.202 135.371 275 133.734C276.187 131.397 277.75 129.354 278.923 127.148C282.337 120.725 284.026 113.862 285.583 106.919C288.748 92.8041 289.282 78.5894 288.552 64.0496C288.395 59.4922 288.514 55.1343 287.92 50.8545C287.338 46.6636 286.03 42.5521 285.04 38.4058C288.183 39.4749 291.441 40.3375 294.448 41.6514C303.852 45.7599 311.595 51.7595 318.069 59.0015C323.027 64.5472 328.143 70.0561 332.321 76.0575C337.408 83.3651 341.667 91.1349 346.138 98.7719C351.71 108.288 356.82 118.028 362.739 127.367C366.173 132.784 370.636 137.716 374.929 142.666C383.839 152.937 396.357 158.995 409 165.15Z" fill="#EFEBE0"/>
<path d="M284.633 37.5616C285.622 41.79 286.937 45.9744 287.523 50.2396C288.12 54.5952 288.001 59.0303 287.968 63.6161C287.523 63.352 287.26 62.9152 287.094 62.4505C285.119 56.9443 283.403 51.3506 281.125 45.948C278.789 40.405 272.377 39.0183 267.718 44.1326C265.46 46.611 262.868 49.13 259.089 49.4435C253.378 49.9173 247.54 50.5919 241.904 50.0141C234.018 49.2057 226.304 47.1222 218.446 45.9804C214.039 45.34 209.118 44.645 205.729 48.2575C203.819 50.2933 202.238 52.847 201.44 55.4024C199.514 61.5689 201.559 67.7436 202.177 73.9119C202.486 76.9878 202.624 80.0776 202.878 83.7209C201.429 82.5052 200.602 81.8176 199.782 81.1228C194.483 76.6308 187.691 76.9723 184.354 82.3102C182.925 84.5964 182.828 87.5555 182.126 90.2088C178.198 84.5076 176.368 78.15 175.403 71.6222C174.643 66.4846 174.478 61.2759 174 55.8577C174.761 50.138 175.022 44.5362 176.502 39.2081C179.032 30.1022 185.136 23.2143 194.742 19.1562C216.908 9.79116 239.488 7.56691 262.784 15.8175C273.694 19.6814 279.844 27.2796 284.232 36.8264C284.42 37.2625 284.529 37.3978 284.638 37.533C284.638 37.533 284.639 37.553 284.633 37.5616Z" fill="#904426"/>
<path d="M411.729 82.2679C409.615 87.6579 408.577 88.206 402.146 86.9909C389.809 84.6594 377.479 82.2966 365.156 79.9062C360.773 79.0561 359.326 77.0898 360.281 73.2362C364.346 56.834 368.454 40.4401 372.557 24.0452C374.189 17.5231 375.829 11.0025 377.5 4.48839C378.478 0.67842 380.537 -0.526231 384.746 0.201063C397.127 2.34087 409.508 4.48559 421.885 6.64382C426.231 7.40151 427.669 9.60969 426.722 13.8939C425.627 18.8502 424.565 23.8124 423.453 29.1732C422.924 31.2791 422.431 32.9839 421.929 34.722C421.43 34.6299 421.125 34.6317 420.886 34.5213C414.049 31.3572 407.251 28.123 400.372 25.0314C396.509 23.2954 392.568 21.6759 388.558 20.2327C386.527 19.5018 384.26 19.5357 382.87 21.4696C381.455 23.4397 383.035 24.8999 384.576 25.8182C389.018 28.4661 393.618 30.9101 398.216 33.346C400.617 34.6181 403.142 35.7048 405.611 36.8753C405.525 37.159 405.439 37.4426 405.353 37.7262C404.473 37.8046 403.558 38.0625 402.719 37.9315C398.182 37.2222 393.657 36.4502 389.143 35.634C385.19 34.9192 381.275 34.0167 377.3 33.4314C376.41 33.3005 374.768 33.9532 374.494 34.5923C374.148 35.3983 374.67 36.6375 375.161 37.5426C375.502 38.1732 376.336 38.73 377.095 39.022C382.182 40.9792 387.263 42.96 392.436 44.723C395.831 45.8802 399.378 46.6853 402.856 47.6482C402.833 47.896 402.81 48.1439 402.787 48.3917C398.228 48.7194 393.661 48.9734 389.114 49.3976C385.302 49.7532 381.492 50.2067 377.731 50.8486C376.851 50.9988 376.173 52.0852 375.402 52.7409C376.16 53.3156 376.836 54.251 377.691 54.4049C382.291 55.2338 386.92 55.9638 391.569 56.5401C395.23 56.9937 398.932 57.1752 402.616 57.4776C402.054 58.2291 401.472 58.4932 400.858 58.6711C393.632 60.7643 386.383 62.7946 379.194 64.9824C378.112 65.3116 377.306 66.3605 376.373 67.0765C377.404 67.7083 378.392 68.8093 379.474 68.888C383.481 69.1794 387.53 69.3355 391.543 69.1642C396.722 68.9429 401.877 68.2918 407.055 68.002C407.827 67.9587 409.255 68.7765 409.382 69.3668C410.308 73.6425 410.978 77.9622 411.729 82.2679ZM415.764 11.4989C414.254 11.545 412.672 11.3767 411.271 11.7497C410.758 11.8864 410.334 13.3522 410.466 14.131C410.781 15.9744 412.065 17.0509 414.326 16.5415C416.546 16.0412 417.124 14.3395 415.764 11.4989Z" fill="#545F89"/>
<path d="M412.178 82.7417C411.398 78.1899 410.732 73.8427 409.811 69.5397C409.684 68.9456 408.264 68.1226 407.496 68.1661C402.346 68.4578 397.219 69.1131 392.068 69.3357C388.077 69.5082 384.05 69.3511 380.065 69.0578C378.989 68.9787 378.006 67.8706 376.98 67.2347C377.909 66.5142 378.71 65.4586 379.786 65.1273C386.936 62.9255 394.146 60.8823 401.332 58.7757C401.943 58.5967 402.523 58.3309 403.081 57.5746C399.418 57.2703 395.735 57.0876 392.094 56.6311C387.471 56.0512 382.866 55.3165 378.291 54.4823C377.441 54.3274 376.769 53.386 376.014 52.8077C376.781 52.1478 377.456 51.0545 378.331 50.9033C382.072 50.2573 385.861 49.8009 389.652 49.443C394.175 49.0161 398.717 48.7605 403.251 48.4307C403.274 48.1813 403.297 47.9319 403.32 47.6824C399.86 46.7134 396.333 45.9032 392.956 44.7386C387.811 42.9643 382.758 40.9709 377.699 39.0012C376.944 38.7074 376.115 38.147 375.775 37.5123C375.287 36.6015 374.767 35.3544 375.111 34.5432C375.384 33.9 377.017 33.2432 377.902 33.3749C381.856 33.9639 385.749 34.8722 389.681 35.5915C394.171 36.4129 398.672 37.1898 403.183 37.9037C404.018 38.0356 404.928 37.776 405.803 37.6972C405.889 37.4117 405.974 37.1263 406.059 36.8408C403.604 35.6628 401.092 34.5692 398.705 33.2889C394.132 30.8375 389.557 28.378 385.138 25.7131C383.606 24.7889 382.035 23.3194 383.443 21.3367C384.824 19.3905 387.08 19.3564 389.099 20.0919C393.087 21.5444 397.008 23.1742 400.849 24.9213C407.691 28.0326 414.452 31.2874 421.252 34.4717C421.49 34.5829 421.793 34.581 422.289 34.6738C422.789 32.9245 423.279 31.2089 423.841 29.2956C425.335 31.2277 426.865 33.3059 428.147 35.5018C429.449 37.7332 431.216 39.3875 433.798 40.4061C438.814 42.3844 440.894 45.8154 441.17 50.816C441.839 62.9782 443.019 75.1175 444 87.4856C436.43 88.7876 428.851 89.8584 421.278 90.9602C419.233 91.2579 417.205 91.6495 414.926 91.9951C413.86 88.9817 413.036 85.971 412.178 82.7417Z" fill="#CF7757"/>
<path d="M182 89.6784C182.73 86.8675 182.826 83.9604 184.252 81.7144C187.58 76.4702 194.355 76.1347 199.641 80.5478C200.459 81.2304 201.284 81.9059 202.73 83.1003C202.476 79.5209 202.338 76.4855 202.031 73.4636C201.414 67.4037 199.375 61.3374 201.295 55.2792C202.091 52.7687 203.668 50.2598 205.573 48.2598C208.954 44.7108 213.863 45.3936 218.259 46.0228C226.098 47.1445 233.792 49.1914 241.658 49.9856C247.28 50.5532 253.104 49.8905 258.801 49.425C262.57 49.117 265.156 46.6423 267.408 44.2074C272.056 39.1829 278.451 40.5453 280.782 45.9909C283.054 51.2986 284.765 56.7941 286.735 62.2035C286.902 62.66 287.164 63.0891 287.571 63.5824C288.53 77.9376 287.994 92.1499 284.819 106.263C283.257 113.204 281.563 120.067 278.139 126.488C276.962 128.694 275.394 130.736 273.979 133.028C273.303 133.355 272.654 133.507 271.64 133.777C267.847 136.933 263.603 137.97 258.955 137.395C249.942 136.28 241.06 134.452 232.829 130.997C223.07 126.9 215.903 120.208 210.722 111.841C209.765 110.295 208.775 108.765 207.906 107.395C206.127 109.386 204.61 111.084 203.094 112.782C198.04 113.045 194.67 110.45 191.666 107.379C186.709 102.311 182.815 96.7504 182 89.6784ZM256.156 78.1603C259.427 83.32 262.686 88.486 265.975 93.6371C267.974 96.7685 267.255 99.1694 263.672 100.823C261.583 101.786 259.425 102.632 257.299 103.531C257.287 103.831 257.275 104.131 257.263 104.432C258.121 104.561 259.099 104.989 259.816 104.764C262.158 104.03 264.477 103.179 266.671 102.148C269.865 100.646 270.778 98.7754 269.386 95.7998C268.009 92.8543 266.294 89.9987 264.397 87.2848C261.211 82.7282 258.133 78.1979 257.759 72.6404C257.72 72.0606 256.738 71.5305 256.194 70.9774C255.805 71.6581 255.045 72.3633 255.1 73.0146C255.233 74.6037 255.745 76.1679 256.156 78.1603ZM197.56 84.6804C195.98 83.8947 194.479 82.92 192.801 82.3664C190.16 81.495 187.177 83.3888 186.703 85.8654C185.496 92.1592 188.18 97.5844 191.861 102.591C193.574 104.921 196.037 107.201 199.74 107.154C200.593 107.143 201.434 106.401 201.733 106.258C198.993 104.47 196 103.31 194.404 101.288C192.095 98.3623 190.618 94.8736 189.136 91.5047C188.249 89.4875 189.547 87.7488 191.225 86.2997C192.631 85.0862 194.015 85.1858 195.665 85.9474C196.046 86.1237 196.971 85.3779 197.56 84.6804ZM250.226 113.901C248.022 113.157 245.838 112.363 243.605 111.694C242.75 111.438 241.785 111.469 240.87 111.369C241.246 112.132 241.384 113.171 242.038 113.614C246.965 116.955 252.474 117.232 258.135 115.47C260.528 114.726 263.406 114.506 264.706 112.436C263.635 110.902 262.764 109.664 261.905 108.419C261.418 107.714 260.951 106.998 260.475 106.287C260.002 107.086 259.385 107.849 259.114 108.699C258.957 109.189 259.195 109.92 259.542 110.369C260.84 112.052 259.825 112.738 258.116 113.002C255.676 113.378 253.207 113.609 250.226 113.901ZM224.916 70.5605C231.266 68.1586 237.668 67.8306 244.196 70.0391C244.833 70.2548 245.73 69.8708 246.506 69.7652C246.166 69.1437 245.968 68.3968 245.447 67.9363C244.942 67.4892 244.116 67.1201 243.411 67.0886C238.847 66.8857 234.21 66.3022 229.733 66.8011C226.084 67.2076 222.625 68.9486 218.936 70.1451C219.954 72.2199 220.843 72.8374 222.497 71.7087C223.098 71.299 223.842 71.0545 224.916 70.5605ZM263.457 68.2282C264.212 68.2378 265.143 68.5074 265.696 68.2157C269.878 66.0085 274.314 64.5761 279.186 64.1556C279.783 64.104 280.296 63.3006 280.848 62.8457C280.249 62.5187 279.629 61.8816 279.055 61.9131C273.703 62.2062 268.69 63.511 264.281 66.2958C263.769 66.6196 263.592 67.3603 263.457 68.2282ZM231.987 78.4471C231.211 79.1144 230.435 79.7817 229.659 80.449C230.759 80.4938 231.899 80.7246 232.95 80.5453C235.266 80.1506 237.555 79.6027 239.816 79C240.521 78.8119 241.099 78.2478 242.334 77.4866C238.284 76.6262 235.287 76.9641 231.987 78.4471ZM274.098 74.8457C275.49 74.0945 275.641 72.9219 274.029 72.7816C271.382 72.5512 268.631 72.7974 265.99 73.1919C264.86 73.3607 263.897 74.4066 262.858 75.0539C263.043 75.385 263.228 75.7161 263.413 76.0472C264.526 75.82 265.627 75.4986 266.755 75.3853C269.042 75.1556 271.344 75.0386 274.098 74.8457ZM247.838 120.033C249.335 120.252 250.825 120.57 252.331 120.642C252.969 120.673 253.639 120.187 254.294 119.936C253.863 119.465 253.522 118.713 252.982 118.576C251.072 118.092 249.108 117.709 247.135 117.518C246.324 117.439 245.441 117.945 244.59 118.185C244.604 118.427 244.618 118.67 244.631 118.912C245.543 119.279 246.455 119.646 247.838 120.033Z" fill="#D37654"/>
<path d="M202.784 112.907C204.352 110.932 205.872 109.205 207.655 107.179C208.527 108.573 209.519 110.13 210.479 111.703C215.673 120.216 222.858 127.025 232.642 131.193C240.893 134.708 249.798 136.568 258.834 137.703C263.493 138.288 267.748 137.233 271.38 134.124C270.508 135.835 270.835 137.084 272.262 138.815C277.504 145.174 281.786 152.001 282 160.478C280.538 162.64 279.133 164.594 277.653 166.501C273.053 172.427 266.615 174.929 258.675 175.383C250.58 175.845 242.524 176.638 234.546 174.771C224.679 172.461 217.107 166.844 209.949 160.687C207.999 159.01 206.139 157.248 204.067 155.446C203.706 154.01 203.445 152.659 203.342 151.297C202.881 145.212 202.465 139.123 202 132.813C202.224 126.112 202.48 119.633 202.784 112.907Z" fill="#BE6A51"/>
<path d="M312.592 273.579C311.999 279.907 311.491 286.01 310.85 292.102C310.755 293.007 310.033 293.863 309.6 294.742C309.055 293.854 308 292.943 308.05 292.082C308.322 287.415 308.737 282.747 309.352 278.105C310.134 272.207 311.007 266.313 312.122 260.458C312.946 256.132 314.071 251.838 315.327 247.59C317.561 240.036 319.847 232.489 322.388 225.011C324.777 217.981 322.125 212.337 316.806 207.221C311.401 202.022 306.033 196.792 300.688 191.546C300.3 191.165 299.892 190.38 300.087 190.061C300.388 189.569 301.165 189.091 301.81 189.003C306.136 188.414 310.483 187.943 314.817 187.396C315.442 187.317 316.034 187.036 316.924 186.762C314.755 183.6 312.771 180.629 310.698 177.705C306.675 172.032 302.818 166.257 298.489 160.766C294.194 155.319 289.36 150.195 284.874 144.858C284.254 144.12 284.276 142.971 284 142.012C285.03 142.433 286.432 142.612 287.033 143.313C292.396 149.566 297.869 155.765 302.817 162.266C308.813 170.145 314.278 178.33 320.096 186.314C321.463 188.19 320.909 188.86 318.668 189.184C314.256 189.822 309.851 190.503 304.922 191.245C305.612 192.215 306.07 193.093 306.764 193.793C311.48 198.556 316.211 203.307 321.004 208.01C326.292 213.2 327.135 218.81 324.692 225.463C321.888 233.1 320.062 241.014 317.936 248.833C316.408 254.455 315.001 260.105 313.706 265.771C313.137 268.261 312.979 270.822 312.592 273.579Z" fill="#23446F"/>
<path d="M343.523 185.783C341.964 183.135 340.419 180.699 339.097 178.169C338.798 177.597 339.274 176.699 339.393 175.952C340.102 176.416 341.073 176.743 341.48 177.366C346.484 185.016 349.854 193.278 353.148 201.624C356.698 210.62 358.007 219.953 359.638 229.256C359.862 230.533 360.776 233.009 358.421 233.11C355.867 233.22 357.188 230.77 356.905 229.442C355.361 222.187 354.102 214.877 352.322 207.67C350.538 200.452 347.606 193.551 343.808 186.968C343.642 186.68 343.676 186.298 343.523 185.783Z" fill="#23446F"/>
<path d="M404.778 195.954C405.029 194.12 405.089 192.474 405.438 190.911C405.636 190.023 406.307 189.27 406.766 188.456C407.05 189.455 407.626 190.477 407.569 191.451C407.231 197.251 406.687 203.036 406.33 208.835C406.04 213.559 407.269 217.946 408.875 222.25C409.17 223.042 408.855 224.126 408.821 225.075C408.161 224.461 407.174 223.997 406.892 223.21C404.371 216.171 403.385 208.883 404.386 201.304C404.609 199.614 404.607 197.886 404.778 195.954Z" fill="#23446F"/>
<path d="M339.168 311.015C335.535 314.989 331.151 317.814 326.085 319.539C323.532 320.409 320.608 320.467 317.832 320.642C317.265 320.678 316.613 319.596 316 319.029C316.61 318.733 317.232 318.16 317.828 318.182C327.525 318.544 333.484 312.973 339.265 307.13C340.619 305.761 341.843 304.285 343.197 302.78C344.904 303.404 345.75 304.035 344.143 305.595C342.423 307.264 340.893 309.096 339.168 311.015Z" fill="#23446F"/>
<path d="M320.471 289.341C326.525 284.225 332.457 279.25 338.464 274.354C338.859 274.032 339.822 274.312 340.521 274.312C340.681 274.542 340.84 274.771 341 275.001C339.797 276.205 338.687 277.508 337.374 278.597C331.149 283.76 324.888 288.887 318.575 293.956C317.944 294.463 316.869 294.491 316 294.742C316.338 293.913 316.478 292.929 317.058 292.29C318.011 291.242 319.249 290.418 320.471 289.341Z" fill="#23446F"/>
<path d="M412.719 206.677C409.643 201.422 408.284 196.129 409.371 190.525C409.806 190.431 410.242 190.337 410.678 190.242C411.093 191.518 411.825 192.785 411.87 194.07C412.125 201.412 415.243 207.541 421.172 212.64C421.804 213.183 421.741 214.365 422 215.251C421.139 214.937 420.001 214.833 419.464 214.274C417.158 211.869 415.028 209.331 412.719 206.677Z" fill="#23446F"/>
<path d="M428.825 107.172C426.817 107.009 425.058 106.927 423.356 106.636C422.824 106.545 422.448 105.891 422 105.495C422.651 105.147 423.319 104.479 423.95 104.5C430.367 104.708 436.775 105.061 443.191 105.292C444.628 105.344 446.09 104.954 447.527 105.006C448.366 105.036 449.177 105.539 450 105.829C449.251 106.274 448.513 107.092 447.752 107.106C441.536 107.213 435.315 107.17 428.825 107.172Z" fill="#23446F"/>
<path d="M328.55 356.85C330.13 355.332 331.484 353.867 332.972 352.528C333.409 352.135 334.227 352.102 334.871 351.904C334.874 352.617 335.19 353.542 334.822 354.004C333.709 355.397 332.137 356.491 331.092 357.918C328.444 361.532 325.997 365.27 323.442 368.943C323.016 369.556 322.453 370.09 321.954 370.66C321.636 370.53 321.318 370.4 321 370.27C321.255 369.177 321.243 367.946 321.811 367.015C323.894 363.606 326.171 360.297 328.55 356.85Z" fill="#23446F"/>
<path d="M403 192.633C401.404 197.245 399.914 201.681 398.335 206.092C398.173 206.542 397.474 206.842 397.024 207.212C396.666 206.755 395.988 206.292 396 205.843C396.134 200.946 397.45 196.295 400.39 192.119C401.019 191.225 402.519 190.235 403 192.633Z" fill="#23446F"/>
<path d="M216.021 222.286C218.58 222.239 221.138 222.179 223.697 222.149C225.212 222.131 226.755 222.006 228.239 222.206C230.419 222.499 232.499 223.315 232.372 225.662C232.245 228.01 229.912 227.743 228.075 228.065C224.745 228.648 221.449 229.38 217.981 230.182C214.751 231.333 211.378 231.931 208.675 233.471C204.516 235.84 204.382 239.967 205.301 243.75C206.219 247.525 206.388 251.099 204.92 254.972C204.909 255.22 204.928 255.292 204.928 255.292C201.219 257.985 197.429 260.595 193.84 263.41C192.224 264.676 191.347 264.837 190.176 263.034C186.372 257.182 182.443 251.396 178.554 245.588C177.581 244.135 176.553 242.711 175.596 241.25C174.732 239.932 174.715 238.747 176.165 237.633C179.431 235.122 181.337 232.046 180.718 228.034C180.705 227.951 180.724 227.864 180.714 227.78C179.55 218.074 182.93 209.114 187.457 200.689C191.499 193.164 197.545 186.755 206.755 183.213C208.15 183.142 209.412 182.982 210.561 183.235C211.662 183.477 213.23 183.962 213.517 184.684C213.808 185.417 212.984 186.707 212.292 187.506C211.107 188.876 209.644 190.055 208.07 191.539C202.7 193.482 194.835 202.372 195.686 206.277C200.91 203.523 204.709 199.559 209.162 196.364C212.029 195.273 214.839 194.035 217.78 193.141C219.991 192.468 222.359 192.012 224.681 191.915C225.719 191.871 227.412 192.767 227.709 193.565C227.974 194.276 226.994 195.786 226.098 196.344C221.514 199.201 216.778 201.864 211.787 204.718C209.435 206.396 207.341 207.903 205.41 209.561C205.147 209.787 205.702 210.775 205.878 211.409C208.281 210.671 210.684 209.933 213.087 209.194C215.045 208.642 216.971 207.96 218.967 207.564C222.617 206.84 226.287 206.047 229.993 205.793C231.261 205.707 233.364 206.9 233.834 207.955C234.541 209.541 232.861 210.614 231.158 211.252C226.282 213.081 221.422 214.943 216.565 216.813C216.145 216.974 215.796 217.285 215.103 217.703C211.994 219.074 209.197 220.268 206.399 221.462C206.492 221.752 206.584 222.042 206.676 222.331C209.756 223.129 212.876 223.005 216.021 222.286Z" fill="#CF7757"/>
<path d="M131.862 252.404C135.248 249.298 138.502 246.331 141.725 243.34C145.018 240.286 148.919 238.037 153.537 236.857C154.768 236.543 156.492 236.392 157.482 236.904C160.237 238.331 162.292 237.118 164.374 235.975C167.125 234.463 169.15 234.497 170.593 236.39C170.911 236.808 171.136 237.568 170.905 237.932C170.679 238.288 169.83 238.401 169.227 238.509C167.723 238.779 166.139 238.824 164.704 239.252C162.21 239.996 159.961 240.562 157.193 239.607C155.592 239.054 152.997 239.297 151.511 240.102C144.45 243.925 138.726 249.052 133.271 254.506C130.718 257.059 127.26 259.474 123.655 260.573C116.9 262.63 112.867 267.049 108.501 271.362C103.855 275.95 98.8752 280.217 92.4893 282.989C91.8189 283.28 90.8372 283.031 90 283.033C90.3484 282.428 90.51 281.542 91.0731 281.26C99.7825 276.896 106.1 270.333 112.294 263.722C115.137 260.689 119.327 260.153 122.796 258.333C125.96 256.673 128.757 254.487 131.862 252.404Z" fill="#23446F"/>
<path d="M151.868 324.185C150.236 325.397 148.844 326.594 147.285 327.573C146.735 327.919 145.773 327.73 145 327.786C145.25 327.144 145.29 326.295 145.781 325.893C151.489 321.205 157.367 316.683 162.996 311.921C169.258 306.622 175.436 301.212 179.574 294.276C182.741 288.968 184.02 283.531 180.895 277.765C180.606 277.232 180.99 276.118 181.475 275.577C183.136 273.726 184.923 271.957 186.798 270.28C187.269 269.859 188.25 269.903 188.996 269.733C188.949 270.324 189.115 271.031 188.813 271.484C187.99 272.721 187.125 273.995 185.99 274.988C184.512 276.283 183.788 277.426 184.392 279.455C186.94 288.021 183.245 295.294 177.582 301.723C170.165 310.143 161.456 317.468 151.868 324.185Z" fill="#23446F"/>
<path d="M169.28 327.023C173.491 334.101 177.488 341.067 181.861 347.845C184.986 352.688 188.389 357.422 192.078 361.944C196.466 367.321 201.259 372.443 205.956 377.62C207.097 378.878 207.677 379.917 205.696 381.378C202.024 377.414 198.151 373.708 194.9 369.617C189.476 362.791 184.21 355.847 179.326 348.714C174.696 341.952 170.591 334.908 166.397 327.921C165.836 326.988 166.112 325.665 166 324.523C166.396 324.42 166.792 324.318 167.188 324.216C167.868 325.088 168.547 325.96 169.28 327.023Z" fill="#23446F"/>
<path d="M183.186 176.588C181.338 184.19 179.582 191.591 177.792 199.136C178.051 199.274 178.476 199.475 178.869 199.716C179.573 200.147 180.257 200.601 180.949 201.046C180.05 201.331 179.116 201.919 178.256 201.847C175.214 201.593 174.581 200.74 175.231 198.158C176.499 193.118 177.772 188.078 179.094 183.049C181.296 174.671 183.19 166.215 185.892 157.958C187.586 152.779 190.477 147.887 192.948 142.91C193.306 142.188 194.323 141.71 195.035 141.119C195.356 141.28 195.678 141.441 196 141.602C193.517 147.259 190.738 152.836 188.633 158.596C186.501 164.432 185.036 170.449 183.186 176.588Z" fill="#23446F"/>
<path d="M176.455 395.404C172.735 391.08 168.488 387.225 166.988 382.011C167.28 381.804 167.572 381.597 167.864 381.391C168.689 381.983 169.764 382.439 170.3 383.189C176.766 392.242 184.079 400.734 192.59 408.38C198.981 414.121 205.704 419.578 212.216 425.218C212.85 425.767 213.035 426.714 213.428 427.476C212.382 427.322 210.965 427.497 210.346 426.963C202.225 419.969 194.112 412.963 186.23 405.765C182.748 402.584 179.795 398.961 176.455 395.404Z" fill="#23446F"/>
<path d="M162 224.765C161.599 225.619 161.199 226.24 160.8 226.862C160.457 226.359 159.827 225.862 159.814 225.352C159.6 216.468 155.358 208.934 150.284 201.729C146.748 196.708 142.888 191.879 139.253 186.915C138.884 186.412 139.071 185.569 139 184.883C139.688 185.09 140.66 185.099 141.019 185.534C144.624 189.892 148.357 194.185 151.593 198.768C154.562 202.973 157.522 207.32 159.447 211.965C161.072 215.885 161.207 220.323 162 224.765Z" fill="#23446F"/>
<path d="M205.07 255.86C205.01 255.625 204.992 255.552 205.003 255.518C206.92 255.218 207.904 255.793 208.199 257.708C209.326 265.031 214.049 271.094 216.807 277.843C218.892 282.944 220.266 288.289 221.955 293.526C221.981 293.607 222.013 293.7 221.994 293.777C221.696 294.993 221.391 296.207 221.087 297.421C220.47 296.343 219.488 295.316 219.296 294.178C218.16 287.427 215.355 281.206 212.565 274.935C209.815 268.755 205.973 262.91 205.07 255.86Z" fill="#23446F"/>
<path d="M75.165 309.354C77.1734 306.58 79.0155 303.935 80.9797 301.363C81.2251 301.042 82.1163 301.107 82.7083 300.994C82.7954 301.565 83.1641 302.27 82.9149 302.681C82.26 303.761 81.1512 304.634 80.5519 305.73C78.2496 309.942 76.0084 314.183 73.8953 318.472C73.2451 319.791 73.1787 321.328 72.6391 322.702C72.4083 323.29 71.6513 323.716 71.1334 324.216C70.7371 323.639 69.8654 322.927 70.0177 322.507C71.5957 318.146 73.3389 313.832 75.165 309.354Z" fill="#23446F"/>
<path d="M72.5341 308.468C71.4439 309.795 70.8282 311.559 68 310.488C70.4635 307.089 72.7117 303.89 75.067 300.763C77.5533 297.463 80.1416 294.232 82.6857 290.97C82.853 290.756 82.9765 290.437 83.2003 290.349C84.1167 289.988 85.0641 289.698 86 289.383C85.8005 290.238 85.8026 291.207 85.3563 291.925C84.6058 293.132 83.5393 294.159 82.6603 295.299C79.3207 299.633 76.0028 303.982 72.5341 308.468Z" fill="#23446F"/>
<path d="M173.116 264.657C174.142 266.171 175.071 267.509 176 268.847C175.749 269.143 175.498 269.438 175.248 269.733C174.433 269.314 173.25 269.087 172.862 268.446C169.326 262.598 165.847 256.718 162.558 250.748C161.897 249.549 162.02 247.935 162 246.51C161.996 246.197 162.888 245.728 163.434 245.62C163.671 245.573 164.359 246.256 164.362 246.611C164.401 251.556 168.194 254.951 170.247 259.057C171.155 260.872 172.095 262.674 173.116 264.657Z" fill="#23446F"/>
<path d="M247.576 285.042C244.012 279.183 240.506 273.513 237 267.842C237.322 267.579 237.643 267.317 237.965 267.054C239.064 267.982 240.486 268.743 241.209 269.868C245.101 275.924 249.071 281.958 252.533 288.216C256.496 295.38 261.315 301.99 268.346 306.812C273.014 310.013 278.533 312.272 283.865 314.588C286.841 315.881 290.242 316.361 293.387 317.368C294.065 317.586 294.47 318.499 295 319.091C294.187 319.32 293.271 319.889 292.579 319.719C289.262 318.901 285.929 318.054 282.742 316.902C274.297 313.848 266.184 310.089 260.527 303.474C256.176 298.388 252.66 292.72 248.796 287.298C248.335 286.651 248.017 285.921 247.576 285.042Z" fill="#D2D1CD"/>
<path d="M269.338 225.658C272.455 227.34 275.489 228.799 278.335 230.51C279.166 231.009 279.46 232.226 280 233.114C278.992 232.965 277.831 233.057 276.997 232.632C262.588 225.289 250.093 215.803 238.764 205.019C236.007 202.395 235.583 201.702 236.321 199.174C246.687 208.938 257.069 218.135 269.338 225.658Z" fill="#D2D1CD"/>
<path d="M275.627 364.779C277.587 365.637 279.343 366.409 281 367.137C280.668 369.425 279.641 369.503 278.164 368.704C267.935 363.169 257.984 364.017 248.255 369.889C247.778 370.177 247.296 370.582 246.775 370.648C246.208 370.719 245.594 370.46 245 370.344C245.179 369.808 245.183 368.999 245.566 368.777C248.438 367.117 251.206 365.043 254.343 364.102C261.339 362.002 268.473 362.056 275.627 364.779Z" fill="#D2D1CD"/>
<path d="M209 195.763C204.737 199.314 201.084 203.448 196.061 206.319C195.242 202.247 202.805 192.977 207.919 191.135C208.386 192.572 208.683 194.058 209 195.763Z" fill="#3AB2BB"/>
<path d="M217 221.703C213.736 222.526 210.491 222.637 207.288 221.923C207.192 221.664 207.096 221.405 207 221.147C209.91 220.079 212.819 219.011 215.947 217.93C216.44 219.12 216.716 220.321 217 221.703Z" fill="#3AB2BB"/>
<path d="M213 208.479C210.847 209.373 208.667 210.079 206.488 210.785C206.328 210.178 205.825 209.233 206.063 209.017C207.815 207.431 209.715 205.991 211.731 204.533C212.253 205.804 212.613 207.047 213 208.479Z" fill="#3AB2BB"/>
<path d="M416.28 11.7412C417.682 14.5465 417.016 16.3177 414.465 16.8385C411.866 17.3687 410.39 16.2482 410.028 14.3295C409.876 13.5189 410.364 11.9933 410.954 11.851C412.563 11.4628 414.382 11.638 416.28 11.7412Z" fill="#F0EEED"/>
<path d="M256.969 78.4447C256.608 76.6567 256.128 75.0884 256.003 73.4952C255.951 72.8421 256.664 72.135 257.03 71.4525C257.54 72.0071 258.461 72.5386 258.498 73.1199C258.849 78.692 261.737 83.2343 264.726 87.8029C266.507 90.5239 268.116 93.3869 269.408 96.3403C270.714 99.3237 269.857 101.2 266.86 102.705C264.802 103.739 262.626 104.592 260.428 105.328C259.756 105.554 258.838 105.124 258.033 104.995C258.044 104.694 258.055 104.393 258.066 104.092C260.062 103.19 262.086 102.342 264.046 101.376C267.408 99.7187 268.083 97.3115 266.207 94.1718C263.121 89.0072 260.063 83.8276 256.969 78.4447Z" fill="#A6583A"/>
<path d="M197.957 84.8883C197.339 85.3979 196.433 86.1438 196.06 85.9675C194.445 85.2057 193.089 85.1061 191.714 86.3198C190.071 87.7692 188.8 89.5083 189.668 91.5259C191.119 94.8955 192.566 98.3849 194.826 101.311C196.388 103.334 199.317 104.494 202 106.282C201.708 106.425 200.884 107.167 200.049 107.178C196.424 107.225 194.013 104.945 192.336 102.614C188.733 97.6069 186.105 92.1806 187.286 85.8855C187.751 83.4084 190.671 81.5142 193.257 82.3858C194.899 82.9395 196.368 83.9143 197.957 84.8883Z" fill="#A6583A"/>
<path d="M251.281 114.245C253.904 113.94 256.286 113.697 258.641 113.304C260.29 113.029 261.27 112.312 260.017 110.553C259.682 110.083 259.453 109.319 259.604 108.806C259.865 107.918 260.461 107.121 260.917 106.286C261.377 107.029 261.827 107.777 262.297 108.515C263.126 109.815 263.967 111.109 265 112.713C263.746 114.877 260.968 115.106 258.66 115.885C253.197 117.726 247.882 117.437 243.127 113.945C242.497 113.482 242.364 112.396 242 111.598C242.883 111.702 243.814 111.67 244.639 111.938C246.794 112.637 248.902 113.467 251.281 114.245Z" fill="#A6583A"/>
<path d="M225.663 70.5584C224.805 71.0077 224.076 71.2778 223.488 71.7302C221.867 72.9766 220.998 72.2947 220 70.0035C223.613 68.6822 227.001 66.7597 230.574 66.3107C234.958 65.7598 239.5 66.4042 243.969 66.6282C244.66 66.663 245.468 67.0706 245.963 67.5643C246.474 68.0729 246.668 68.8976 247 69.5839C246.24 69.7006 245.362 70.1247 244.738 69.8865C238.345 67.4476 232.075 67.8098 225.663 70.5584Z" fill="#904426"/>
<path d="M264 68.4653C264.227 67.6794 264.399 66.8566 264.897 66.4971C269.182 63.4039 274.055 61.9547 279.257 61.6291C279.815 61.5941 280.418 62.3017 281 62.6649C280.463 63.1703 279.964 64.0626 279.384 64.1198C274.649 64.5869 270.337 66.1779 266.272 68.6295C265.735 68.9535 264.83 68.654 264 68.4653Z" fill="#904426"/>
<path d="M232.601 78.486C235.772 76.7459 238.847 76.3263 243 77.3949C241.733 78.3402 241.141 79.0408 240.417 79.2744C238.099 80.0229 235.751 80.7034 233.376 81.1937C232.298 81.4163 231.128 81.1296 230 81.074C230.796 80.2453 231.592 79.4165 232.601 78.486Z" fill="#A6583A"/>
<path d="M274.737 74.9703C272.275 75.1126 270.031 75.2061 267.8 75.3896C266.701 75.4801 265.627 75.7367 264.542 75.9182C264.361 75.6538 264.181 75.3893 264 75.1248C265.013 74.6077 265.952 73.7723 267.054 73.6375C269.629 73.3224 272.312 73.1257 274.893 73.3098C276.465 73.4218 276.318 74.3584 274.737 74.9703Z" fill="#A6583A"/>
<path d="M248.104 120.762C246.921 120.332 245.982 119.914 245.042 119.496C245.028 119.219 245.014 118.943 245 118.667C245.876 118.393 246.787 117.816 247.623 117.906C249.655 118.124 251.68 118.56 253.648 119.112C254.204 119.268 254.555 120.126 255 120.662C254.325 120.949 253.634 121.503 252.977 121.468C251.425 121.385 249.889 121.023 248.104 120.762Z" fill="#BE6A51"/>
</svg>
