<svg width="491" height="491" viewBox="0 0 491 491" fill="none" xmlns="http://www.w3.org/2000/svg">
<path d="M348.595 379.836C352.485 381.221 356.445 382.465 360.255 384.018C372.754 389.113 385.656 392.391 399.476 391.843C412.287 391.334 423.521 387.023 433.679 380.003C446.571 371.093 455.624 359.227 463.327 346.538C467.914 338.982 471.259 330.775 474.951 322.777C476.927 318.497 478.762 314.121 480.119 309.649C482.637 301.347 485.213 293.021 486.936 284.563C489.545 271.761 491.197 258.812 490.981 245.735C490.807 235.207 491.062 224.644 490.203 214.161C489.272 202.796 487.869 191.401 485.561 180.213C483.439 169.926 480.332 159.747 476.756 149.794C473.114 139.656 468.56 129.777 464.021 119.935C461.963 115.474 459.153 111.276 456.374 107.135C451.896 100.461 447.44 93.7468 442.449 87.3991C438.148 81.929 433.545 76.54 428.31 71.8358C418.492 63.0135 408.392 54.4134 397.868 46.3148C392.234 41.9788 385.541 38.7768 379.203 35.2504C372.508 31.5257 365.834 27.7165 358.847 24.5013C349.836 20.3543 340.623 16.5379 331.309 12.9972C323.529 10.0395 315.592 7.32422 307.513 5.17067C300.611 3.33082 293.464 1.98462 286.325 1.24903C277.628 0.352924 268.818 -0.104255 260.07 0.0201309C246.745 0.209586 233.996 3.1972 221.799 8.20862C212.066 12.2077 203.055 17.3559 195.239 23.8962C188.635 29.4231 182.417 35.526 177.063 42.0873C168.768 52.2506 161.599 63.184 153.488 73.4811C147.281 81.3613 140.444 88.8305 133.723 96.3589C126.277 104.7 116.605 110.614 106.811 116.269C96.2164 122.386 85.0482 127.7 74.7154 134.155C62.1255 142.021 50.0672 150.555 40.9713 162.164C32.7759 172.624 25.5736 183.569 20.6969 195.629C16.108 206.977 11.6476 218.43 8.29205 230.119C5.52194 239.768 4.45563 249.83 2.62167 259.707C0.334259 272.027 -0.400146 284.478 0.200012 296.908C0.590393 304.995 2.10495 313.08 3.74088 321.057C5.10712 327.719 6.82587 334.414 9.39508 340.749C12.5528 348.536 16.6108 355.935 22.0107 362.826C27.5637 369.912 34.1834 375.773 41.7173 380.771C45.9536 383.582 50.864 385.661 55.7131 387.541C70.5024 393.275 86.1724 394.593 101.907 393.456C112.394 392.698 122.857 390.714 133.109 388.435C143.159 386.2 152.939 382.926 162.818 380.052C169.802 378.021 176.753 375.898 183.718 373.813C186.276 373.048 188.832 372.276 191.684 371.234C193.047 359.607 194.394 348.267 195.091 336.894C195.596 328.651 195.118 320.361 195.33 312.098C195.402 309.261 194.142 307.883 191.291 307.516C185.477 324.435 177.948 340.439 168.763 355.792C162.194 366.772 151.126 371.438 137.863 368.578C127.499 366.342 120.5 359.902 114.667 352.207C104.828 339.228 98.5217 324.629 92.4803 309.983C84.0876 289.636 75.7064 269.307 64.8918 249.905C59.0496 239.423 56.0292 228.587 59.4706 216.71C61.0805 211.154 61.7404 205.365 62.7413 199.484C60.276 193.83 57.8182 188.403 55.5494 182.909C53.5931 178.172 55.6112 174.548 60.9305 173.32C72.1752 170.725 83.4431 168.212 94.7262 165.762C98.9558 164.843 102.084 166.492 103.717 170.354C112.791 191.81 121.855 213.269 130.859 234.749C133.099 240.093 130.837 243.559 124.63 244.819C115.971 246.576 107.324 248.384 98.6701 250.381C101.333 253.853 103.817 257.257 106.696 260.351C116.214 270.58 125.866 280.704 135.5 290.842C136.112 291.485 137.006 291.901 137.366 292.147C142.174 276.632 146.56 261.307 151.729 246.21C155.175 236.144 159.737 226.402 163.754 216.316C163.406 215.872 163.036 215.669 162.813 215.373C162.083 214.405 160.713 213.275 160.894 212.449C161.096 211.527 162.625 210.689 163.764 210.15C164.771 209.674 166.036 209.659 167.217 209.221C172.25 201.078 176.924 192.954 182.394 185.311C185.174 181.427 188.738 177.6 194.677 176.776C204.482 175.486 214.115 174.363 223.944 173.092C230.535 171.076 236.945 169.248 243.318 167.318C245.574 166.635 246.778 165.235 246.805 162.835C246.852 158.746 247.227 154.661 247.329 150.418C245.517 148.73 243.34 147.449 242.253 145.621C238.526 139.352 234.359 133.146 231.911 126.437C229.228 119.083 228.264 111.198 226.32 103.62C219.891 107.078 214.072 105.61 211.949 100.06C210.818 97.1033 211.648 94.4093 213.417 91.8028C215.693 88.4524 215.499 86.74 212.855 83.6393C212.185 82.853 211.453 82.1102 210.798 81.3142C204.171 73.2686 206.197 60.56 215.174 54.9031C217.896 53.188 219.461 51.0082 220.06 48.1542C220.696 45.1188 221.25 42.0675 221.783 39.0147C223.017 31.9401 227.822 29.3731 236.29 31.8601C241.133 33.2827 243.307 32.9241 246.459 29.2547C247.662 27.8542 248.594 26.2496 249.578 24.6992C253.527 18.4738 259.188 15.073 267.239 15.5184C274.979 15.9467 281.903 18.6812 288.014 22.7317C293.364 26.2772 298.806 27.0464 304.909 25.5596C310.295 24.2473 314.623 25.6365 318.386 29.4163C324.697 35.7559 331.279 41.8674 337.637 48.1683C342.448 52.9357 344.824 58.5742 344.124 65.1649C343.512 70.9241 340.796 75.9211 337.101 80.4239C334.85 83.1675 334.608 85.7032 336.038 88.7631C337.228 91.3084 338.346 93.9649 338.871 96.6744C340.203 103.552 339.149 110.15 334.498 116.602C337.677 116.38 340.247 116.286 342.792 116.004C347.642 115.467 352.464 114.457 357.322 114.301C366.503 114.007 372.316 118.472 374.15 126.686C374.651 128.932 375.126 131.203 375.329 133.484C376.121 142.399 380.886 148.619 389.879 152.092C394.284 153.793 398.714 155.447 403.054 157.281C416.024 162.763 422.016 174.118 418.653 186.908C415.674 198.238 407.113 204.566 395.61 208.438C395.457 209.146 395.221 209.648 395.279 210.12C396.328 218.655 394.977 227.046 393.265 235.373C390.245 250.066 384.965 264.056 377.667 277.448C368.181 294.855 359.8 312.796 347.7 328.919C347.112 329.702 346.955 330.759 346.638 331.977C346.912 345.1 347.081 357.936 347.429 370.769C347.511 373.798 348.19 376.814 348.595 379.836Z" fill="#EFEBE0"/>
<path d="M348.201 380.102C347.795 376.807 347.117 373.788 347.035 370.754C346.688 357.906 346.519 345.054 346.03 331.97C340.944 335.658 336.429 340.001 331.179 343.37C326.907 346.111 321.965 348.545 316.947 349.588C308.3 351.384 300.152 348.639 293.069 344.083C286.848 340.081 280.988 335.552 275.297 330.914C269.029 325.806 262.831 320.569 257.162 314.912C250.878 308.641 245.144 301.893 239.332 295.232C235.749 291.126 232.132 286.988 229.131 282.522C224.615 275.799 218.857 270.995 210.306 269.101C206.58 268.275 203.08 266.591 199.463 265.332C195.636 264 191.793 262.709 187.93 261.635C186.803 264.565 185.966 267.386 184.553 269.934C180.357 277.501 180.097 285.438 182.948 293.155C184.787 298.133 188.418 302.548 191.246 307.215C194.023 307.793 195.281 309.172 195.208 312.012C194.997 320.286 195.474 328.586 194.97 336.839C194.275 348.226 192.93 359.579 191.816 371.197C190.069 386.792 186.457 401.722 180.932 416.301C175.292 431.183 169.019 445.924 166.204 461.571C165.306 466.563 165.424 471.708 165.014 476.779C164.867 478.592 165.877 479.274 167.617 479.515C185.254 481.956 202.853 484.658 220.535 486.77C231.467 488.076 242.51 488.742 253.528 489.242C266.517 489.831 279.554 490.504 292.532 490.097C308.628 489.593 324.694 488.123 340.754 486.857C347.75 486.306 354.695 485.214 361.668 484.395C363.72 484.154 365.048 483.807 365.343 481.283C367.273 464.737 364.762 448.654 360.287 432.673C356.556 419.352 353.125 405.956 349.814 392.54C348.836 388.576 348.716 384.432 348.201 380.102ZM244.182 394.828C237.321 395.439 230.463 396.092 223.593 396.598C222.92 396.648 222.169 395.793 221.455 395.358C222.136 394.994 222.804 394.337 223.501 394.31C232.997 393.94 242.291 392.699 251.423 390.09C261.516 387.205 270.895 383.081 279.141 377.057C284.517 373.129 289.312 368.529 294.462 364.328C295.18 363.743 296.438 363.721 297.445 363.438C297.252 364.37 297.417 365.666 296.809 366.176C290.815 371.192 284.989 376.44 278.537 380.915C268.49 387.885 256.921 392.058 244.182 394.828ZM263.508 334.477C260.878 335.989 258.38 337.759 255.595 338.965C246.852 342.751 238.131 346.633 229.138 349.852C224.498 351.513 219.312 351.907 214.34 352.707C213.718 352.807 212.902 351.881 212.176 351.431C212.805 350.89 213.35 350.048 214.081 349.876C215.31 349.588 216.697 349.9 217.948 349.658C229.745 347.378 240.813 343.313 251.319 337.901C254.593 336.214 257.86 334.513 261.171 332.889C262.562 332.207 263.935 331.919 263.508 334.477ZM267.635 424.278C263.36 425.222 259.101 426.236 254.796 427.048C253.975 427.203 252.977 426.556 252.06 426.28C252.759 425.636 253.388 424.519 254.169 424.419C265.362 422.985 275.421 418.952 284.903 413.453C285.689 412.997 286.993 413.3 288.056 413.251C288.16 413.663 288.264 414.074 288.369 414.486C282.352 418.922 275.279 421.605 267.635 424.278ZM230.695 304.652C224.311 309.861 216.992 311.948 208.597 310.087C207.507 309.846 206.605 308.882 205.617 308.252C206.786 307.94 208.037 307.206 209.11 307.384C215.233 308.399 220.886 307.645 226.06 304.315C227.598 303.325 229.255 302.493 231.769 301.074C231.374 302.785 231.197 303.554 230.695 304.652Z" fill="#484AB5"/>
<path d="M188.214 261.484C192.061 262.786 195.915 264.07 199.752 265.395C203.379 266.647 206.889 268.323 210.626 269.144C219.2 271.029 224.974 275.807 229.503 282.495C232.512 286.938 236.139 291.055 239.732 295.139C245.56 301.765 251.31 308.478 257.611 314.716C263.296 320.344 269.512 325.554 275.796 330.635C281.504 335.249 287.38 339.755 293.618 343.736C300.721 348.268 308.892 350.998 317.562 349.212C322.595 348.175 327.55 345.754 331.834 343.027C337.098 339.675 341.625 335.355 346.687 331.4C347.26 330.419 347.417 329.366 348.005 328.586C360.117 312.528 368.506 294.659 378.002 277.321C385.307 263.983 390.592 250.049 393.615 235.415C395.328 227.121 396.681 218.764 395.631 210.263C395.573 209.793 395.809 209.292 395.759 208.445C395.292 206.435 394.987 204.784 394.655 203.138C392.11 190.52 384.265 182.171 370.524 178.377C369.046 177.983 367.838 177.57 366.614 177.177C366.599 177.198 366.654 177.195 366.347 177.221C364.298 177.248 362.552 177.182 360.815 177.263C354.916 177.538 349.646 179.002 345.367 183.123C339.498 188.777 336.152 195.559 334.637 203.018C332.378 214.147 330.781 225.387 328.622 236.535C327.549 242.076 325.941 247.537 324.406 252.994C323.144 257.481 321.322 261.85 320.301 266.376C318.632 273.773 316.319 280.919 312.478 287.625C310.525 291.034 308.655 291.761 305.104 289.818C295.958 284.811 286.807 279.794 277.891 274.457C269.323 269.328 260.818 264.064 252.7 258.365C242.518 251.216 232.801 243.516 222.802 236.146C217.542 232.269 212.236 228.422 206.709 224.877C202.944 222.462 198.761 220.593 194.508 218.484C192.914 218.103 191.57 217.734 190.239 217.33C182.909 215.111 175.578 212.895 168.265 210.63C167.866 210.506 167.629 209.944 167.316 209.586C166.164 209.804 164.898 209.819 163.89 210.293C162.749 210.83 161.219 211.664 161.016 212.583C160.835 213.405 162.207 214.531 162.938 215.495C163.161 215.79 163.531 215.992 164.076 216.512C174.624 217.769 182.292 223.787 191.668 228.317C190.118 229.085 189.114 229.322 188.565 229.913C187.644 230.903 186.151 232.334 186.41 233.201C187.488 236.802 186.664 239.784 184.223 242.614C183.798 243.107 183.69 243.916 183.652 244.589C183.413 248.78 184.033 252.795 186.276 256.57C187.175 258.082 187.583 259.839 188.214 261.484ZM321.184 310.401C320.03 307.752 319.159 304.956 317.634 302.499C316.376 300.472 314.27 298.897 312.701 297.009C312.234 296.447 312.314 295.505 312.142 294.736C313.022 294.876 314.118 294.763 314.738 295.207C316.183 296.242 317.775 297.356 318.631 298.778C320.471 301.84 322.023 305.069 323.38 308.339C323.732 309.187 324.117 311.233 321.184 310.401Z" fill="#EA8B78"/>
<path d="M187.535 262.106C186.933 260.232 186.528 258.479 185.633 256.97C183.401 253.205 182.784 249.198 183.021 245.018C183.06 244.346 183.166 243.539 183.59 243.047C186.019 240.223 186.84 237.248 185.767 233.656C185.508 232.791 186.995 231.363 187.911 230.376C188.458 229.786 189.457 229.55 191 228.784C181.668 224.264 174.036 218.26 163.583 217.204C159.34 226.951 154.794 236.631 151.361 246.633C146.211 261.635 141.842 276.862 137.052 292.279C136.694 292.034 135.802 291.621 135.193 290.982C125.595 280.908 115.979 270.848 106.496 260.684C103.628 257.61 101.153 254.228 98.3066 250.675C94.9589 247.726 93.9839 244.183 93.2766 240.535C92.6721 237.417 92.7134 234.037 91.3357 231.242C89.6785 227.881 90.5049 225.33 92.4415 222.675C93.7645 220.861 95.2471 219.145 96.6397 217.373C97.8417 215.844 99.1521 214.365 100.136 212.724C100.511 212.099 100.34 210.972 99.9526 210.298C99.7856 210.008 98.2526 210.017 97.6636 210.359C95.945 211.356 94.3232 212.519 92.7837 213.744C89.6445 216.242 86.584 218.824 82.6563 222.058C84.6219 217.775 86.1308 214.136 87.9427 210.628C90.1157 206.422 92.63 202.363 94.7911 198.152C95.1854 197.384 94.5956 196.191 94.4602 195.194C93.3801 195.464 91.9443 195.423 91.282 196.059C88.4505 198.778 85.6909 201.587 83.2042 204.573C80.6189 207.677 78.378 211.022 75.9865 214.262C75.7247 212.54 75.8371 210.942 76.4128 209.501C78.0495 205.402 79.9782 201.4 81.5889 197.293C82.6084 194.694 83.5168 192.009 83.961 189.292C84.141 188.19 82.9545 186.901 82.3899 185.697C81.3455 186.284 79.9419 186.651 79.3226 187.499C77.2824 190.293 75.473 193.234 73.6799 196.172C72.523 198.068 71.5496 200.058 70.4941 202.006C70.3935 199.219 71.0581 196.711 71.4071 194.166C71.8643 190.832 72.2813 187.468 72.2681 184.118C72.2637 183.026 70.8575 181.939 70.0924 180.849C69.1576 181.708 67.9595 182.435 67.3544 183.457C66.5948 184.74 66.2216 186.243 65.8566 187.689C64.7894 191.916 63.8092 196.161 62.7948 200.399C61.7084 206.047 61.051 211.799 59.4471 217.32C56.0185 229.122 59.0277 239.89 64.8481 250.305C75.6223 269.584 83.9723 289.784 92.3337 310.002C98.3525 324.555 104.635 339.061 114.438 351.958C120.249 359.604 127.222 366.003 137.548 368.224C150.761 371.067 161.787 366.431 168.332 355.52C177.483 340.264 184.984 324.362 190.776 307.55C188.022 302.71 184.398 298.328 182.563 293.388C179.717 285.729 179.977 277.852 184.164 270.342C185.575 267.813 186.411 265.014 187.535 262.106Z" fill="#D7776B"/>
<path d="M369.819 178.514C383.297 182.329 391.147 190.68 393.692 203.301C394.025 204.947 394.33 206.598 394.852 208.39C406.52 204.894 415.094 198.59 418.078 187.303C421.445 174.562 415.445 163.249 402.455 157.788C398.109 155.962 393.672 154.313 389.261 152.618C380.255 149.159 375.482 142.963 374.689 134.082C374.486 131.809 374.011 129.547 373.508 127.309C371.672 119.127 365.85 114.678 356.656 114.971C351.79 115.126 346.961 116.133 342.104 116.668C339.555 116.949 336.982 117.042 333.797 117.263C338.455 110.836 339.511 104.263 338.177 97.4113C337.651 94.7121 336.532 92.0657 335.34 89.5301C333.908 86.4817 334.15 83.9557 336.404 81.2224C340.104 76.7367 342.825 71.7586 343.438 66.0213C344.139 59.4556 341.759 53.8384 336.941 49.0891C330.574 42.8121 323.982 36.7238 317.662 30.4082C313.893 26.6428 309.559 25.2588 304.164 26.5662C298.052 28.0473 292.602 27.281 287.245 23.749C281.125 19.7138 274.19 16.9896 266.439 16.563C258.375 16.1193 252.706 19.5072 248.751 25.709C247.766 27.2535 246.832 28.852 245.627 30.2472C242.471 33.9027 240.294 34.2599 235.443 32.8427C226.963 30.3652 222.151 32.9224 220.915 39.9702C220.381 43.0115 219.827 46.0511 219.189 49.0751C218.589 51.9183 217.022 54.0898 214.296 55.7984C205.306 61.4339 203.277 74.0942 209.913 82.1093C210.57 82.9024 211.303 83.6424 211.974 84.4257C214.621 87.5146 214.815 89.2205 212.537 92.5583C210.764 95.1548 209.934 97.8387 211.067 100.784C213.193 106.313 219.02 107.775 225.55 104.15C228.462 101.5 228.551 98.3859 228.922 95.3144C229.265 92.4768 229.659 89.6246 230.365 86.8503C230.858 84.915 232.482 84.0206 234.807 84.1168C237.414 84.2246 240.043 84.1856 242.641 83.9872C243.347 83.9333 243.978 83.0729 244.643 82.5827C244.015 82.1395 243.428 81.3921 242.75 81.3139C241.122 81.1264 239.451 81.2533 237.354 81.2533C246.397 71.3692 246.599 70.9062 248.18 56.8363C254.2 59.8297 260.705 58.8285 267.063 59.154C270.283 59.3189 273.6 59.6456 276.645 60.5445C282.951 62.4059 285.786 67.4676 288.035 72.559C291.619 80.6763 297.706 86.5346 306.137 90.6848C306.468 90.3106 306.972 89.8043 307.399 89.2485C309.827 86.0854 313.215 85.0491 317.142 86.0263C320.896 86.9606 322.842 89.5812 323.208 93.0502C323.563 96.4069 324.031 99.8024 323.83 103.15C323.266 112.54 318.079 116.664 311.489 117.867C309.627 122.297 307.849 126.528 306.122 131.036C306.535 136.954 306.897 142.596 307.279 148.478C309.379 160.781 315.437 163.323 325.446 162.285C328.751 161.942 332.224 162.104 335.509 162.626C342.463 163.729 348.29 166.477 350.926 173.223C352.115 173.443 353.072 173.58 353.984 173.848C357.889 174.995 361.781 176.18 365.677 177.352C365.677 177.352 365.622 177.355 365.883 177.27C367.369 177.627 368.594 178.07 369.819 178.514ZM368.744 151.517C367.242 146.99 365.952 142.393 364.19 137.952C361.487 131.139 354.646 126.626 347.589 127.32C344.904 127.584 342.394 129.324 339.247 130.622C339.338 129.729 339.087 128.674 339.551 128.183C343.674 123.819 351.277 123.012 356.427 126.328C364.386 131.453 368.78 138.393 370.381 147.26C371.327 152.497 372.709 158.193 379.116 160.658C381.376 161.528 383.865 161.959 386.29 162.396C392.691 163.551 398.308 171.107 396.933 176.95C396.807 177.485 396.078 177.901 395.63 178.372C395.234 177.959 394.616 177.597 394.482 177.122C393.942 175.208 393.45 173.273 393.126 171.321C392.499 167.537 389.864 164.901 385.595 164.932C375.893 165.003 371.412 160.065 368.744 151.517ZM295.107 63.3747C293.701 60.8466 292.51 58.1915 290.839 55.8194C288.168 52.0267 285.762 47.8006 280.032 47.1443C276.178 46.703 272.316 46.3265 268.468 45.8521C266.594 45.6211 264.281 45.9398 263.669 43.2306C264.465 43.0907 265.085 42.8437 265.67 42.9009C269.857 43.3103 274.046 43.7216 278.217 44.2492C282.969 44.8503 287.397 46.4017 290.093 50.1572C293.105 54.3514 295.44 58.9461 298.252 63.2673C300.832 67.2328 304.186 70.336 309.741 70.3981C310.654 70.4083 311.566 70.5568 312.93 70.6833C311.827 73.1171 310.111 73.3358 308.09 73.0777C301.818 72.2766 298.454 68.1667 295.107 63.3747ZM354.222 153.446C352.682 152.264 351.327 150.455 349.566 150.019C344.923 148.867 340.134 148.029 335.345 147.591C329.46 147.052 325.349 145.129 324.136 141.471C323.925 140.836 324.281 140.044 324.375 139.324C325.09 139.695 326.184 139.909 326.456 140.462C327.985 143.569 330.808 144.759 334.211 145.083C337.326 145.38 340.473 145.776 343.583 145.655C350.448 145.387 360.842 152.95 361.23 159.498C361.43 162.875 362.398 166.656 366.798 168.227C367.191 168.368 367.304 169.163 367.915 170.397C365.968 170.086 364.118 170.293 363.532 169.602C361.786 167.547 360.417 165.194 359.122 162.855C357.477 159.883 356.05 156.811 354.222 153.446ZM323.647 64.609C322.729 65.1361 321.864 66.0009 320.884 66.1303C317.189 66.6177 311.971 63.567 310.457 59.578C307.855 52.7229 303.311 47.7005 296.008 44.7275C295.186 44.3929 294.844 43.0725 294.28 42.2092C294.587 42.0448 294.895 41.8804 295.202 41.716C302.726 44.1848 308.198 48.6832 311.491 55.465C312.531 57.6062 313.947 59.599 315.254 61.626C317.173 64.6047 320.699 63.3565 323.647 64.609ZM228.748 74.6775C228.408 74.9228 228.107 75.2911 227.722 75.3913C226.339 75.7512 224.928 76.0205 223.527 76.3241C224.269 75.4057 224.822 74.2505 225.784 73.608C231.485 69.8013 235.535 65.3037 234.929 58.297C234.766 56.4171 235.893 54.7914 238.897 54.1504C238.345 56.1043 237.372 57.6904 237.576 59.1386C238.547 66.0656 234.418 70.4975 228.748 74.6775ZM317.15 49.2523C320.115 50.8349 323.08 52.4176 326.858 54.434C325.259 54.7772 324.02 55.3783 322.902 55.2288C315.541 54.2445 312.901 48.6902 309.88 43.5857C309.66 43.2144 310.215 42.4597 310.409 41.8833C311.129 42.1549 312.133 42.2397 312.518 42.7307C314.077 44.718 315.444 46.8303 317.15 49.2523ZM220.135 62.6159C222.758 59.0232 225.304 55.3794 228.067 51.8795C228.647 51.1453 230.029 50.9408 231.041 50.4922C231.272 50.7682 231.502 51.0441 231.733 51.3201C231.25 52.0093 230.788 52.7123 230.279 53.3854C227.648 56.8622 225.009 60.3334 222.366 63.8021C221.435 65.0244 222.162 67.4975 219.27 67.2448C219.481 65.8372 219.692 64.4295 220.135 62.6159ZM278.98 37.3878C277.981 37.1945 276.713 37.291 276.028 36.7592C272.451 33.9802 268.65 32.3892 263.869 33.833C263.286 34.0092 262.512 33.6596 260.823 33.3986C262.257 32.4142 262.938 31.5822 263.744 31.4636C265.955 31.1382 268.343 30.6284 270.435 31.0748C274.14 31.8654 277.929 33.0052 278.98 37.3878ZM322.183 118.854C322.92 118.279 323.573 117.521 324.424 117.198C324.917 117.011 325.885 117.372 326.345 117.771C326.687 118.067 326.846 119.012 326.588 119.338C324.929 121.436 323.256 123.546 321.341 125.445C319.978 126.797 318.228 127.823 316.43 129.159C315.706 128.321 315.162 127.691 315.094 127.612C317.595 124.541 319.76 121.882 322.183 118.854Z" fill="#4B3525"/>
<path d="M365 176.731C361.446 175.517 357.592 174.315 353.725 173.153C352.822 172.882 351.873 172.743 350.423 172.511C348.638 172.28 347.38 172.042 346.111 171.889C339.751 171.118 333.387 170.369 327.03 169.833C326.355 171.511 325.646 172.958 324.996 174.427C319.46 186.958 314.758 199.818 307.009 211.439C301.956 219.017 296.022 225.86 287.539 229.889C272.785 236.897 258.352 234.756 245.333 225.885C235.341 219.077 230.182 208.947 226.7 198.068C224.076 189.874 223.899 181.441 223.898 172.99C214.345 174.124 204.792 175.258 195.076 176.846C195.143 181.104 195.586 184.909 195.558 188.71C195.482 198.657 195.2 208.603 195 218.549C198.959 220.691 203.104 222.585 206.834 225.033C212.311 228.627 217.568 232.526 222.779 236.455C232.686 243.925 242.314 251.729 252.401 258.975C260.444 264.752 268.871 270.087 277.36 275.286C286.194 280.696 295.26 285.78 304.322 290.855C307.84 292.825 309.694 292.088 311.629 288.632C315.434 281.836 317.725 274.592 319.379 267.095C320.391 262.508 322.196 258.079 323.446 253.531C324.967 248 326.56 242.465 327.623 236.849C329.763 225.551 331.345 214.158 333.583 202.878C335.083 195.317 338.399 188.444 344.214 182.713C348.453 178.535 353.675 177.052 359.519 176.773C361.24 176.691 362.97 176.758 365 176.731Z" fill="#484AB5"/>
<path d="M223.057 173.178C222.861 181.735 223.041 190.126 225.696 198.279C229.222 209.104 234.445 219.183 244.56 225.958C257.74 234.784 272.352 236.915 287.288 229.942C295.876 225.933 301.883 219.124 306.999 211.584C314.844 200.02 319.604 187.224 325.209 174.756C325.866 173.294 326.584 171.855 327 170.153C321.589 168.066 316.44 166.257 311.329 164.362C310.69 164.125 309.871 163.486 309.779 162.941C308.922 157.861 308.207 152.76 307.45 147.666C307.087 141.977 306.723 136.288 306.089 130.358C304.787 131.346 303.872 132.679 302.705 133.787C296.308 139.86 288.857 144.498 280.482 148.036C269.486 152.682 258.406 154.951 246.672 150.558C246.434 154.663 246.058 158.767 246.01 162.875C245.983 165.286 244.774 166.691 242.509 167.377C236.11 169.316 229.675 171.153 223.057 173.178Z" fill="#D7776B"/>
<path d="M246.908 149.94C258.857 154.443 270.011 152.197 281.08 147.598C289.511 144.096 297.012 139.504 303.451 133.493C304.626 132.396 305.547 131.076 306.807 129.823C308.823 125.562 310.617 121.339 312.496 116.917C319.147 115.716 324.382 111.6 324.951 102.227C325.154 98.8858 324.681 95.4965 324.324 92.1461C323.954 88.6835 321.99 86.0677 318.201 85.1351C314.239 84.1597 310.819 85.1942 308.369 88.3513C307.938 88.9062 307.429 89.4115 307.095 89.7851C298.586 85.6425 292.443 79.795 288.826 71.6927C286.557 66.6108 283.695 61.5584 277.332 59.7005C274.259 58.8032 270.911 58.4772 267.662 58.3126C261.245 57.9876 254.68 58.9871 248.604 55.9991C247.01 70.043 246.805 70.5052 237.679 80.371C239.795 80.371 241.482 80.2443 243.125 80.4315C243.809 80.5095 244.401 81.2556 245.036 81.6979C244.364 82.1872 243.727 83.046 243.015 83.0998C240.393 83.2979 237.74 83.3368 235.109 83.2291C232.762 83.1331 231.124 84.0259 230.626 85.9576C229.913 88.7268 229.516 91.5737 229.17 94.406C228.795 97.4719 228.706 100.58 226 103.15C227.64 110.941 228.613 118.781 231.326 126.094C233.8 132.765 238.011 138.937 241.778 145.17C242.877 146.988 245.077 148.262 246.908 149.94ZM244.028 115.344C244.663 113.345 244.934 111.167 246.003 109.38C248.798 104.706 252.389 100.359 251.681 94.5873C251.424 92.491 251.367 90.3744 251.219 88.2671C251.577 88.1236 251.934 87.9801 252.292 87.8366C252.922 88.8633 253.839 89.8271 254.134 90.9274C255.441 95.7985 254.953 100.462 252.042 104.89C250.658 106.993 249.46 109.265 248.653 111.594C247.414 115.17 249.268 118.046 252.904 119.075C253.649 119.285 254.23 119.968 254.887 120.434C253.989 120.766 252.948 121.545 252.218 121.353C248.8 120.455 245.662 119.069 244.028 115.344ZM318.959 101.893C318.792 99.5313 318.791 97.1482 318.415 94.8146C318.004 92.2659 316.508 91.3715 313.791 92.8856C313.124 93.2572 312.14 93.1622 310.851 93.346C311.822 90.4727 313.567 89.1913 316.065 89.341C318.788 89.5042 321.194 90.9644 321.409 93.4571C321.761 97.5415 321.675 101.704 321.192 105.778C320.99 107.476 319.551 109.233 318.221 110.601C316.159 112.722 312.744 112.238 311.948 109.962C317.183 108.566 318.505 107.147 318.959 101.893ZM252.435 127.744C257.696 128.215 262.934 128.79 267.34 125.057C267.935 124.553 269.468 124.954 270.566 124.937C270.141 125.731 269.944 126.788 269.254 127.279C263.869 131.115 257.716 131.724 251.241 130.354C250.416 130.179 249.795 129.22 249.079 128.624C250.017 128.269 250.955 127.914 252.435 127.744ZM266.193 80.8562C265.605 80.3254 265.017 79.7945 264.429 79.2636C265.215 78.864 266.028 78.083 266.783 78.1264C271.923 78.4215 277.061 78.8125 282.172 79.3799C283.019 79.474 283.729 80.5829 284.502 81.2229C283.502 81.5115 282.48 82.0977 281.506 82.0384C276.589 81.7391 271.685 81.2716 266.193 80.8562ZM269.01 95.5042C269.51 93.5355 269.499 90.823 272.665 91.1718C275.6 91.4951 275.47 94.0933 275.455 96.1527C275.442 98.0955 275.019 100.267 272.374 100.33C269.35 100.401 269.615 97.7801 269.01 95.5042ZM235.079 94.836C235.935 93.9584 236.701 92.4355 237.664 92.3251C240.452 92.0061 240.906 94.1004 241.105 96.0265C241.411 98.9836 239.929 101.688 238.057 101.424C237.075 101.286 235.789 100.401 235.456 99.5822C234.923 98.2697 235.069 96.7319 235.079 94.836Z" fill="#EA8B78"/>
<path d="M62.73 199.724C63.8105 195.705 64.7702 191.484 65.8152 187.281C66.1725 185.844 66.5379 184.349 67.2816 183.073C67.8741 182.057 69.0471 181.334 69.9624 180.481C70.7115 181.564 72.0884 182.645 72.0927 183.73C72.1056 187.061 71.6973 190.406 71.2496 193.722C70.908 196.252 70.2572 198.746 70.3557 201.517C71.3892 199.58 72.3422 197.601 73.4749 195.716C75.2306 192.795 77.0022 189.87 78.9998 187.092C79.6061 186.249 80.9804 185.884 82.0029 185.301C82.5558 186.498 83.7175 187.78 83.5412 188.875C83.1063 191.577 82.2169 194.246 81.2187 196.831C79.6417 200.914 77.7532 204.893 76.1508 208.969C75.5871 210.402 75.477 211.991 75.7333 213.703C78.0749 210.481 80.269 207.155 82.8003 204.069C85.235 201.1 87.937 198.307 90.7092 195.604C91.3578 194.972 92.7636 195.012 93.821 194.744C93.9537 195.735 94.5311 196.921 94.1451 197.685C92.0291 201.872 89.5673 205.908 87.4398 210.09C85.6657 213.578 84.1883 217.196 82.2639 221.455C86.1094 218.239 89.106 215.672 92.1796 213.188C93.6869 211.97 95.2748 210.813 96.9576 209.822C97.5343 209.482 99.0352 209.473 99.1988 209.762C99.5778 210.431 99.745 211.553 99.3785 212.173C98.415 213.806 97.1319 215.276 95.9551 216.797C94.5915 218.559 93.1399 220.265 91.8446 222.068C89.9484 224.709 89.1393 227.244 90.7619 230.587C92.1108 233.365 92.0704 236.726 92.6622 239.826C93.3547 243.454 94.3093 246.977 97.5891 249.701C106.219 248.038 114.653 246.252 123.099 244.516C129.154 243.271 131.361 239.846 129.176 234.566C120.393 213.344 111.551 192.143 102.7 170.944C101.107 167.128 98.0556 165.499 93.9298 166.407C82.9236 168.828 71.9323 171.311 60.9636 173.875C55.7749 175.087 53.8063 178.668 55.7146 183.348C57.9277 188.776 60.3252 194.139 62.73 199.724ZM79.2737 181.432C76.4497 179.798 75.7464 177.541 77.8625 176.198C78.8977 175.54 80.8253 175.131 81.7808 175.604C82.7678 176.093 83.5987 177.811 83.5444 178.951C83.4545 180.843 81.8344 181.706 79.2737 181.432Z" fill="#2C3038"/>
<path d="M194.18 218.488C194.637 208.592 194.922 198.701 194.999 188.809C195.028 185.029 194.58 181.245 194.341 177.177C188.556 177.553 184.985 181.395 182.201 185.295C176.722 192.967 172.041 201.123 167 209.299C167.283 209.88 167.521 210.447 167.92 210.571C175.237 212.855 182.573 215.089 189.907 217.326C191.24 217.732 192.585 218.105 194.18 218.488Z" fill="#D7776B"/>
<path d="M245.001 395.645C257.471 392.85 269.041 388.575 279.09 381.436C285.542 376.853 291.368 371.477 297.363 366.339C297.972 365.817 297.806 364.489 298 363.535C296.992 363.825 295.734 363.847 295.016 364.447C289.866 368.75 285.07 373.461 279.693 377.484C271.446 383.655 262.066 387.878 251.972 390.833C242.839 393.506 233.544 394.777 224.046 395.156C223.35 395.183 222.681 395.856 222 396.229C222.715 396.675 223.466 397.55 224.138 397.5C231.01 396.982 237.868 396.313 245.001 395.645Z" fill="#292A7A"/>
<path d="M263.963 335.132C264.247 332.757 262.86 333.043 261.457 333.721C258.114 335.337 254.816 337.028 251.511 338.706C240.906 344.087 229.735 348.13 217.827 350.398C216.563 350.639 215.164 350.328 213.923 350.615C213.185 350.785 212.635 351.623 212 352.16C212.733 352.608 213.557 353.529 214.185 353.429C219.203 352.634 224.438 352.242 229.122 350.591C238.2 347.39 247.003 343.529 255.828 339.764C258.639 338.565 261.161 336.804 263.963 335.132Z" fill="#292A7A"/>
<path d="M267.572 424.798C275.3 422.009 282.702 419.168 289 414.473C288.891 414.037 288.781 413.601 288.672 413.165C287.559 413.217 286.195 412.896 285.373 413.378C275.449 419.2 264.921 423.47 253.207 424.988C252.389 425.094 251.732 426.276 251 426.958C251.959 427.251 253.005 427.935 253.864 427.771C258.369 426.912 262.826 425.838 267.572 424.798Z" fill="#292A7A"/>
<path d="M231.059 304.346C231.41 303.461 231.593 302.732 232 301.11C229.404 302.456 227.694 303.245 226.107 304.183C220.764 307.341 214.928 308.057 208.607 307.094C207.499 306.925 206.207 307.621 205 307.917C206.021 308.514 206.952 309.429 208.077 309.658C216.744 311.423 224.3 309.443 231.059 304.346Z" fill="#292A7A"/>
<path d="M321.626 310.163C324.513 310.811 324.112 308.811 323.743 307.982C322.325 304.786 320.704 301.629 318.78 298.636C317.887 297.245 316.223 296.156 314.712 295.144C314.065 294.71 312.919 294.821 312 294.684C312.179 295.435 312.096 296.356 312.584 296.906C314.223 298.751 316.424 300.291 317.739 302.273C319.332 304.675 320.243 307.408 321.626 310.163Z" fill="#DA7867"/>
<path d="M370 178.096C368.953 177.764 367.611 177.448 366 177.177C367.056 177.519 368.38 177.815 370 178.096Z" fill="#A0C1A7"/>
<path d="M308 148.719C308.716 153.367 309.412 158.252 310.244 163.119C310.333 163.641 311.129 164.253 311.75 164.48C316.716 166.295 321.719 168.028 326.97 169.816C333.488 170.568 339.748 171.282 346.004 172.016C347.252 172.163 348.489 172.389 350 172.587C347.946 166.103 342.271 163.449 335.497 162.383C332.298 161.88 328.915 161.723 325.696 162.054C315.946 163.057 310.046 160.601 308 148.719Z" fill="#EFEBE0"/>
<path d="M369.604 151.889C372.223 160.072 376.713 164.933 386.432 164.864C390.709 164.833 393.349 167.428 393.977 171.153C394.301 173.076 394.794 174.981 395.335 176.864C395.47 177.333 396.089 177.688 396.485 178.096C396.935 177.632 397.664 177.222 397.79 176.696C399.168 170.943 393.541 163.504 387.129 162.367C384.698 161.936 382.205 161.512 379.942 160.656C373.522 158.229 372.138 152.621 371.191 147.465C369.587 138.736 365.184 131.903 357.211 126.858C352.052 123.593 344.434 124.387 340.304 128.684C339.84 129.167 340.091 130.206 340 131.085C343.152 129.808 345.667 128.094 348.356 127.834C355.426 127.15 362.28 131.594 364.988 138.302C366.753 142.674 368.046 147.199 369.604 151.889Z" fill="#644938"/>
<path d="M296.396 62.6236C299.601 67.3729 302.947 71.6108 309.186 72.4369C311.196 72.703 312.903 72.4776 314 69.968C312.643 69.8375 311.736 69.6843 310.828 69.6738C305.302 69.6098 301.966 66.4098 299.4 62.3207C296.603 57.8648 294.28 53.1269 291.284 48.8019C288.602 44.9293 284.198 43.3295 279.471 42.7097C275.322 42.1657 271.155 41.7416 266.99 41.3194C266.409 41.2604 265.792 41.5151 265 41.6594C265.608 44.453 267.91 44.1244 269.773 44.3625C273.601 44.8518 277.443 45.24 281.276 45.6951C286.975 46.3718 289.369 50.7296 292.026 54.6406C293.688 57.0867 294.872 59.8245 296.396 62.6236Z" fill="#644938"/>
<path d="M355.413 152.975C357.093 156.186 358.526 159.272 360.176 162.257C361.475 164.607 362.849 166.97 364.601 169.034C365.19 169.728 367.046 169.52 369 169.833C368.387 168.593 368.274 167.794 367.879 167.653C363.464 166.075 362.492 162.277 362.291 158.885C361.902 152.308 351.471 144.71 344.582 144.98C341.461 145.102 338.303 144.704 335.177 144.406C331.762 144.08 328.928 142.885 327.394 139.763C327.121 139.208 326.023 138.993 325.306 138.621C325.211 139.343 324.854 140.139 325.066 140.777C326.284 144.452 330.409 146.383 336.315 146.924C341.12 147.365 345.926 148.207 350.586 149.363C352.354 149.802 353.713 151.618 355.413 152.975Z" fill="#644938"/>
<path d="M324 63.4272C321.081 62.4231 317.467 63.6408 315.499 60.7348C314.16 58.7573 312.708 56.8131 311.642 54.7242C308.266 48.1079 302.658 43.7193 294.946 41.3107C294.63 41.4711 294.315 41.6315 294 41.7919C294.579 42.6341 294.929 43.9223 295.772 44.2487C303.258 47.1492 307.915 52.049 310.582 58.7368C312.134 62.6284 317.483 65.6047 321.27 65.1291C322.275 65.0029 323.162 64.1593 324 63.4272Z" fill="#644938"/>
<path d="M229.006 74.4636C235.045 70.4059 239.612 66.0023 238.538 59.1194C238.313 57.6804 239.389 56.1044 240 54.163C236.677 54.7999 235.431 56.4152 235.611 58.2831C236.28 65.2452 231.802 69.7141 225.496 73.4966C224.432 74.135 223.821 75.2829 223 76.1954C224.549 75.8938 226.11 75.6262 227.639 75.2685C228.065 75.169 228.398 74.803 229.006 74.4636Z" fill="#644938"/>
<path d="M317.753 48.7176C316.276 46.4062 314.991 44.2305 313.527 42.1835C313.165 41.6777 312.221 41.5904 311.545 41.3107C311.362 41.9044 310.841 42.6817 311.048 43.0642C313.887 48.3219 316.366 54.043 323.283 55.0568C324.334 55.2108 325.498 54.5916 327 54.2381C323.451 52.1612 320.665 50.531 317.753 48.7176Z" fill="#644938"/>
<path d="M221.661 61.7185C221.373 63.3055 221.186 64.6925 221 66.0795C223.552 66.3285 222.911 63.8917 223.733 62.6873C226.066 59.2696 228.395 55.8493 230.716 52.4236C231.166 51.7604 231.573 51.0677 232 50.3886C231.796 50.1167 231.593 49.8448 231.389 49.5729C230.495 50.0149 229.276 50.2164 228.764 50.9398C226.325 54.3883 224.079 57.9786 221.661 61.7185Z" fill="#644938"/>
<path d="M280 36.7161C278.797 32.4409 274.854 31.2789 271 30.473C268.823 30.0178 266.34 30.5376 264.039 30.8693C263.2 30.9903 262.492 31.8385 261 32.842C262.757 33.1081 263.562 33.4645 264.169 33.2848C269.143 31.813 273.097 33.435 276.819 36.2681C277.531 36.8103 278.85 36.7118 280 36.7161Z" fill="#644938"/>
<path d="M322.588 118.323C320.417 120.931 318.368 123.369 316 126.185C316.064 126.257 316.579 126.835 317.265 127.604C318.967 126.379 320.623 125.438 321.913 124.198C323.726 122.457 325.309 120.522 326.879 118.598C327.123 118.298 326.973 117.432 326.649 117.16C326.214 116.794 325.298 116.463 324.831 116.635C324.026 116.931 323.407 117.626 322.588 118.323Z" fill="#644938"/>
<path d="M245 116.034C246.417 119.69 249.337 121.131 252.517 122.065C253.196 122.265 254.165 121.454 255 121.109C254.389 120.625 253.848 119.915 253.156 119.696C249.773 118.627 248.047 115.635 249.2 111.917C249.951 109.494 251.066 107.133 252.353 104.945C255.062 100.341 255.515 95.4912 254.3 90.4258C254.025 89.2816 253.172 88.2793 252.586 87.2117C252.253 87.3609 251.92 87.5101 251.588 87.6593C251.725 89.8507 251.778 92.0517 252.017 94.2317C252.676 100.234 249.334 104.754 246.734 109.614C245.74 111.473 245.487 113.737 245 116.034Z" fill="#CF7757"/>
<path d="M318.525 102.463C318.105 107.314 316.878 108.697 312.019 110.056C312.757 112.272 315.927 112.743 317.841 110.678C319.076 109.345 320.412 107.635 320.599 105.981C321.047 102.015 321.127 97.9619 320.8 93.9849C320.601 91.5578 318.368 90.136 315.84 89.9771C313.521 89.8313 311.901 91.079 311 93.8767C312.196 93.6978 313.11 93.7902 313.729 93.4284C316.252 91.9542 317.64 92.8251 318.021 95.3067C318.371 97.5789 318.371 99.8993 318.525 102.463Z" fill="#CF7757"/>
<path d="M252.015 128.292C250.833 128.525 249.917 128.839 249 129.154C249.699 129.682 250.307 130.532 251.113 130.686C257.441 131.9 263.455 131.36 268.718 127.962C269.392 127.527 269.584 126.592 270 125.888C268.926 125.904 267.429 125.548 266.847 125.994C262.541 129.301 257.421 128.791 252.015 128.292Z" fill="#CF7757"/>
<path d="M266.946 81.2358C271.869 81.7184 276.51 82.2661 281.164 82.6167C282.086 82.6862 283.054 81.9994 284 81.6613C283.268 80.9116 282.596 79.6123 281.794 79.5021C276.957 78.8374 272.093 78.3793 267.228 78.0335C266.514 77.9827 265.744 78.8977 265 79.3659C265.556 79.9878 266.113 80.6098 266.946 81.2358Z" fill="#4B3525"/>
<path d="M269 96.3961C269.558 98.4337 269.312 101.052 272.127 100.981C274.589 100.918 274.983 98.7488 274.996 96.808C275.009 94.7507 275.13 92.1552 272.398 91.8322C269.451 91.4838 269.461 94.1935 269 96.3961Z" fill="#4B3525"/>
<path d="M236 95.4992C236.064 97.1741 235.922 98.7171 236.443 100.034C236.768 100.856 238.025 101.743 238.984 101.882C240.812 102.147 242.259 99.4334 241.961 96.4663C241.766 94.5336 241.323 92.4322 238.6 92.7524C237.659 92.8631 236.91 94.3911 236 95.4992Z" fill="#4B3525"/>
<path d="M79.493 181.735C81.511 181.954 82.9196 181.05 82.9978 179.066C83.045 177.87 82.3226 176.068 81.4645 175.556C80.6337 175.06 78.9578 175.489 78.0577 176.178C76.218 177.587 76.8295 179.954 79.493 181.735Z" fill="#F0EEED"/>
</svg>
