<svg width="418" height="499" viewBox="0 0 418 499" fill="none" xmlns="http://www.w3.org/2000/svg">
<g clip-path="url(#clip0_308_347)">
<path d="M108.819 301.913C108.214 300.891 105.595 301.985 105.113 301.058C104.634 300.134 107.067 298.727 108.457 295.512C108.707 294.932 110.287 291.278 109.118 290.15C106.901 288.013 96.7581 296.833 93.2085 293.946C92.4294 293.313 91.8852 292.049 89.5275 289.996C88.5896 289.179 88.0224 288.81 87.4735 288.948C86.6947 289.142 86.633 290.186 85.7978 292.237C84.5453 295.313 83.8046 295.127 83.0748 297.582C82.5331 299.404 82.6568 300.463 82.0194 300.669C81.1173 300.961 80.287 299.029 79.1437 299.202C77.9771 299.378 77.2719 301.629 77.0491 303.313C76.631 306.475 77.7911 308.561 78.4341 310.755C79.1328 313.138 79.5475 316.764 77.9339 321.896L61.9626 366.933C65.4886 357.691 75.6979 332.358 79.9879 322.944C81.2263 320.227 82.5937 317.47 85.4014 316.382C88.1046 315.335 91.817 315.96 96.5499 314.819C97.1027 314.686 98.6365 314.295 98.8296 313.392C98.9892 312.646 98.087 312.229 98.2256 311.53C98.4115 310.592 100.186 310.581 102.366 309.499C103.904 308.736 104.861 307.828 105.685 307.048C105.933 306.813 109.625 303.273 108.819 301.913Z" fill="#F2F2F2"/>
<path d="M45.9832 325.622C45.3076 325.625 45.0885 327.227 44.4949 327.196C43.9035 327.165 43.9153 325.563 42.7397 323.953C42.5276 323.662 41.1916 321.832 40.3013 322.081C38.6137 322.554 40.012 330.081 37.5725 330.992C37.0371 331.192 36.26 331.094 34.5731 331.66C33.902 331.885 33.5575 332.057 33.4664 332.366C33.3371 332.805 33.8309 333.136 34.5959 334.139C35.7431 335.641 35.4382 335.952 36.4313 337.018C37.1685 337.81 37.7237 338.055 37.6409 338.428C37.5239 338.955 36.3366 338.805 36.0916 339.417C35.8416 340.041 36.7415 341.036 37.5034 341.632C38.9332 342.749 40.2909 342.782 41.5522 343.099C42.9229 343.443 44.8204 344.286 46.8716 346.559L64.3493 367.399C60.8347 363.001 51.3571 350.676 47.9783 345.853C47.0029 344.46 46.0457 342.993 46.3223 341.3C46.5886 339.67 47.9665 338.027 48.7724 335.373C48.8666 335.063 49.1176 334.196 48.7305 333.841C48.4105 333.547 47.9458 333.87 47.643 333.6C47.2367 333.238 47.743 332.364 47.8415 330.98C47.9109 330.005 47.7423 329.273 47.5973 328.643C47.5536 328.453 46.8826 325.619 45.9832 325.622Z" fill="#F2F2F2"/>
<path d="M59.4613 328.65L59.0543 325.013L59.2402 324.738C60.1008 323.463 60.5394 322.218 60.5447 321.036C60.5456 320.848 60.5368 320.66 60.528 320.469C60.4929 319.711 60.4491 318.768 60.9403 317.668C61.2158 317.056 61.9895 315.637 63.1527 315.812C63.4659 315.856 63.7028 316 63.8826 316.169C63.9089 316.127 63.9361 316.084 63.9651 316.039C64.3274 315.486 64.6142 315.249 64.8905 315.02C65.1028 314.845 65.3221 314.664 65.666 314.235C65.8169 314.048 65.9345 313.883 66.0336 313.744C66.3345 313.324 66.7275 312.824 67.4205 312.832C68.1609 312.868 68.5486 313.48 68.8057 313.886C69.2645 314.609 69.4724 315.131 69.6101 315.477C69.6601 315.603 69.7171 315.746 69.7461 315.789C69.9847 316.141 71.9243 315.812 72.655 315.693C74.2963 315.419 75.7166 315.182 76.3017 316.218C76.721 316.959 76.4096 317.939 75.3481 319.208C75.0174 319.603 74.6656 319.904 74.3533 320.139C74.6121 320.293 74.8437 320.531 74.9376 320.903C75.1587 321.784 74.4016 322.668 72.6883 323.531C72.2629 323.747 71.69 324.035 70.8874 324.174C70.5093 324.239 70.1689 324.255 69.8777 324.264C69.8715 324.432 69.8321 324.615 69.7294 324.803C69.4285 325.356 68.8022 325.619 67.8583 325.556C66.8196 325.502 65.9643 325.303 65.2099 325.129C64.5511 324.978 63.9835 324.85 63.5379 324.88C62.7115 324.947 62.0746 325.609 61.3272 326.467L59.4613 328.65Z" fill="#F2F2F2"/>
<path d="M61.3495 306.998L57.938 308.314L57.6244 308.204C56.174 307.694 54.8595 307.586 53.716 307.88C53.5342 307.927 53.3548 307.983 53.1721 308.04C52.4478 308.267 51.5476 308.548 50.3606 308.352C49.6985 308.24 48.1309 307.851 48.0056 306.68C47.9686 306.366 48.0477 306.1 48.165 305.883C48.1176 305.869 48.07 305.853 48.0185 305.837C47.392 305.626 47.0901 305.409 46.7994 305.199C46.5759 305.038 46.3454 304.872 45.8441 304.647C45.6242 304.549 45.4349 304.477 45.2757 304.416C44.7938 304.231 44.2104 303.978 44.0431 303.305C43.8893 302.579 44.3832 302.048 44.71 301.696C45.2929 301.069 45.7442 300.735 46.0436 300.514C46.1531 300.434 46.2761 300.342 46.3112 300.303C46.5901 299.983 45.7807 298.189 45.48 297.512C44.7989 295.992 44.2096 294.677 45.0624 293.848C45.6723 293.254 46.6982 293.307 48.1945 294.013C48.6602 294.233 49.0396 294.497 49.3463 294.74C49.43 294.45 49.6003 294.166 49.9363 293.98C50.7322 293.543 51.7779 294.052 53.0474 295.491C53.3641 295.848 53.7877 296.33 54.1254 297.072C54.2841 297.421 54.3857 297.747 54.4681 298.026C54.6325 297.99 54.819 297.981 55.0267 298.033C55.6376 298.184 56.051 298.724 56.2293 299.654C56.4402 300.673 56.4654 301.551 56.4887 302.326C56.5099 303.002 56.5299 303.584 56.6718 304.008C56.9459 304.791 57.7473 305.239 58.7668 305.745L61.3495 306.998Z" fill="#F2F2F2"/>
<path d="M59.4613 296.284L59.0543 292.648L59.2402 292.372C60.1008 291.097 60.5394 289.852 60.5447 288.671C60.5456 288.483 60.5368 288.295 60.528 288.103C60.4929 287.345 60.4491 286.402 60.9403 285.303C61.2158 284.69 61.9895 283.271 63.1527 283.447C63.4659 283.491 63.7028 283.635 63.8826 283.803C63.9089 283.761 63.9361 283.719 63.9651 283.673C64.3274 283.12 64.6142 282.883 64.8905 282.655C65.1028 282.479 65.3221 282.298 65.666 281.87C65.8169 281.682 65.9345 281.517 66.0336 281.378C66.3345 280.958 66.7275 280.458 67.4205 280.467C68.1609 280.502 68.5486 281.115 68.8057 281.52C69.2645 282.244 69.4724 282.765 69.6101 283.111C69.6601 283.238 69.7171 283.38 69.7461 283.424C69.9847 283.775 71.9243 283.447 72.655 283.327C74.2963 283.053 75.7166 282.816 76.3017 283.852C76.721 284.593 76.4096 285.573 75.3481 286.843C75.0174 287.238 74.6656 287.538 74.3533 287.773C74.6121 287.928 74.8437 288.165 74.9376 288.537C75.1587 289.419 74.4016 290.302 72.6883 291.166C72.2629 291.382 71.69 291.67 70.8874 291.808C70.5093 291.873 70.1689 291.889 69.8777 291.898C69.8715 292.067 69.8321 292.249 69.7294 292.437C69.4285 292.99 68.8022 293.254 67.8583 293.19C66.8196 293.136 65.9643 292.938 65.2099 292.764C64.5511 292.613 63.9835 292.485 63.5379 292.514C62.7115 292.581 62.0746 293.243 61.3272 294.102L59.4613 296.284Z" fill="#F2F2F2"/>
<path d="M63.179 366.874L62.4175 366.396L61.5298 366.498C61.5157 366.415 61.4675 366.226 61.3947 365.929C60.9973 364.303 59.7858 359.355 58.7752 351.562C58.0699 346.122 57.6708 340.529 57.5883 334.936C57.5059 329.335 57.7708 325.094 57.9831 321.686C58.1436 319.115 58.3384 316.667 58.5296 314.283C59.0384 307.912 59.5183 301.895 59.1612 295.233C59.0823 293.745 58.9165 290.65 57.1094 287.355C56.061 285.445 54.6171 283.749 52.817 282.316L53.9364 280.908C55.9233 282.491 57.5208 284.37 58.6849 286.491C60.6885 290.144 60.8692 293.517 60.9561 295.138C61.3192 301.917 60.8341 307.993 60.3201 314.425C60.1306 316.801 59.9358 319.238 59.7762 321.798C59.5656 325.175 59.3033 329.379 59.3849 334.908C59.4656 340.434 59.8604 345.958 60.556 351.33C61.5543 359.024 62.7483 363.899 63.1404 365.5C63.3492 366.356 63.393 366.535 63.179 366.874Z" fill="#F2F2F2"/>
<path d="M49.5221 285.173C49.4484 285.173 49.3739 285.171 49.2984 285.166C47.7685 285.083 46.3518 284.167 45.0868 282.442C44.4938 281.631 44.1903 280.706 43.585 278.86C43.4911 278.576 43.0349 277.132 42.7577 275.146C42.5761 273.849 42.5989 273.306 42.856 272.827C43.1411 272.293 43.6025 271.921 44.1218 271.67C44.099 271.497 44.1174 271.32 44.192 271.139C44.4982 270.389 45.3123 270.488 45.7526 270.535C45.9755 270.563 46.2535 270.6 46.5536 270.584C47.0255 270.561 47.279 270.421 47.6633 270.21C48.0308 270.008 48.4879 269.757 49.166 269.619C50.5029 269.339 51.6231 269.719 51.9924 269.843C53.9355 270.491 54.8935 272.003 56.0023 273.754C56.2234 274.105 56.9822 275.383 57.4831 277.136C57.8445 278.4 57.7936 278.962 57.6848 279.38C57.4638 280.239 56.9418 280.73 55.6163 281.815C54.232 282.951 53.5373 283.52 52.9407 283.866C51.5521 284.669 50.6801 285.173 49.5221 285.173Z" fill="#F2F2F2"/>
<path d="M241.103 366.663H126.17C108.932 366.663 94.907 352.627 94.907 335.373V31.2894C94.907 14.0364 108.932 0 126.17 0H241.103C258.341 0 272.366 14.0364 272.366 31.2894C274.505 153.4 278.154 290.145 272.366 335.373C272.366 352.627 258.341 366.663 241.103 366.663Z" fill="#3F3D56"/>
<path d="M273.969 111.852C273.239 111.852 272.646 112.446 272.646 113.176V155.534C272.646 156.264 273.239 156.858 273.969 156.858C274.698 156.858 275.291 156.264 275.291 155.534V113.176C275.291 112.446 274.698 111.852 273.969 111.852Z" fill="#3F3D56"/>
<path d="M261.562 35.1071L269.39 335.368C269.39 350.386 257.712 362.669 242.945 363.622H242.939C242.721 363.636 242.502 363.649 242.277 363.656C241.887 363.675 241.497 363.682 241.1 363.682C241.1 363.682 239.646 363.576 236.987 363.378C234.302 363.179 230.394 362.881 225.52 362.491C224.059 362.378 222.518 362.252 220.891 362.12C217.651 361.855 214.093 361.564 210.278 361.233C208.757 361.107 207.183 360.969 205.576 360.829C197.362 360.121 188.164 359.294 178.463 358.354C176.823 358.202 175.169 358.043 173.503 357.878C173.067 357.831 97.8831 338.916 97.8831 335.368V31.2896C97.8831 15.6502 110.547 2.97583 126.173 2.97583H143.063C145.761 2.97583 147.93 5.08049 148.161 7.77422C148.181 7.95293 148.201 8.1316 148.234 8.31032C148.723 11.0173 151.203 12.9035 153.954 12.9035H213.319C216.07 12.9035 218.55 11.0173 219.04 8.31032C219.073 8.13161 219.093 7.95293 219.112 7.77422C219.344 5.0805 221.513 2.97583 224.211 2.97583H241.1C256.727 2.97583 261.562 19.4678 261.562 35.1071Z" fill="white"/>
<path d="M94.2458 80.0835C93.5164 80.0835 92.9232 80.6772 92.9232 81.4072V91.9967C92.9232 92.7268 93.5164 93.3204 94.2458 93.3204C94.9752 93.3204 95.5684 92.7268 95.5684 91.9967V81.4072C95.5684 80.6772 94.9752 80.0835 94.2458 80.0835Z" fill="#3F3D56"/>
<path d="M94.2458 111.852C93.5164 111.852 92.9232 112.446 92.9232 113.176V133.693C92.9232 134.423 93.5164 135.017 94.2458 135.017C94.9752 135.017 95.5684 134.423 95.5684 133.693V113.176C95.5684 112.446 94.9752 111.852 94.2458 111.852Z" fill="#3F3D56"/>
<path d="M94.2458 140.973C93.5164 140.973 92.9232 141.567 92.9232 142.297V162.814C92.9232 163.544 93.5164 164.138 94.2458 164.138C94.9752 164.138 95.5684 163.544 95.5684 162.814V142.297C95.5684 141.567 94.9752 140.973 94.2458 140.973Z" fill="#3F3D56"/>
<path d="M142.628 7.61133H117.283C117.16 7.61133 117.06 7.71098 117.06 7.83391V10.698C117.06 10.8209 117.16 10.9206 117.283 10.9206H142.628C142.751 10.9206 142.851 10.8209 142.851 10.698V7.83391C142.851 7.71098 142.751 7.61133 142.628 7.61133Z" fill="#E6E6E6"/>
<path d="M228.39 10.9206C229.851 10.9206 231.035 9.73529 231.035 8.27318C231.035 6.81107 229.851 5.62579 228.39 5.62579C226.929 5.62579 225.745 6.81107 225.745 8.27318C225.745 9.73529 226.929 10.9206 228.39 10.9206Z" fill="#E6E6E6"/>
<path d="M235.664 10.9206C237.125 10.9206 238.31 9.73529 238.31 8.27318C238.31 6.81107 237.125 5.62579 235.664 5.62579C234.203 5.62579 233.019 6.81107 233.019 8.27318C233.019 9.73529 234.203 10.9206 235.664 10.9206Z" fill="#E6E6E6"/>
<path d="M242.939 10.9206C244.4 10.9206 245.584 9.73529 245.584 8.27318C245.584 6.81107 244.4 5.62579 242.939 5.62579C241.478 5.62579 240.293 6.81107 240.293 8.27318C240.293 9.73529 241.478 10.9206 242.939 10.9206Z" fill="#E6E6E6"/>
<path d="M418 366.774C418 367.106 417.73 367.376 417.398 367.376H0V366.171H417.398C417.73 366.171 418 366.441 418 366.774Z" fill="#E6E6E6"/>
<path d="M328.8 437.553L342.973 442.083L324.83 483.982L315.227 480.913L328.8 437.553Z" fill="#A0616A"/>
<path d="M331.193 470.975L325.535 471.325L324.422 474.249C324.422 474.249 324.556 470.422 318.602 467.291L316.772 469.837C316.772 469.837 313.289 471.687 311.778 476.872L308.208 490.94L312.953 492.637L317.301 483.563C317.301 483.563 319.411 481.935 321.509 494.324C321.509 494.324 327.447 498.505 338.936 498.997C340.515 499.064 341.988 498.13 342.536 496.646C342.838 495.827 342.808 494.952 341.891 494.29C339.555 492.604 336.683 492.502 335.8 489.782C334.917 487.061 331.193 470.975 331.193 470.975Z" fill="#2F2E41"/>
<path d="M230.542 430.242L216.129 433.932L231.784 476.825L241.551 474.324L230.542 430.242Z" fill="#A0616A"/>
<path d="M226.194 463.466L231.822 464.148L232.762 467.132C232.762 467.132 232.853 463.304 238.98 460.527L240.657 463.177C240.657 463.177 244.026 465.228 245.23 470.493L247.969 484.746L243.133 486.161L239.325 476.848C239.325 476.848 237.314 475.099 234.493 487.343C234.493 487.343 228.32 491.169 216.822 490.985C215.242 490.96 213.826 489.94 213.367 488.427C213.113 487.592 213.194 486.72 214.149 486.112C216.579 484.567 219.452 484.634 220.493 481.97C221.534 479.306 226.194 463.466 226.194 463.466Z" fill="#2F2E41"/>
<path d="M266.037 258.196H304.529V201.273H266.037V258.196Z" fill="#2F2E41"/>
<path d="M297.922 298.157L296.773 328.631L258.856 325.756L263.452 295.857L297.922 298.157Z" fill="#A0616A"/>
<path d="M255.983 314.831L310.561 316.556L324.183 335.849L317.863 369.773C317.863 369.773 290.453 361.98 245.068 371.18L247.94 339.556L256.703 330.786L255.983 314.831Z" fill="#2F2E41"/>
<path d="M315.157 337.831L330.094 344.155C330.094 344.155 358.244 356.805 359.968 374.054C361.691 391.304 341.185 455.702 341.185 455.702L318.68 457.049C318.68 457.049 325.369 461.706 325.369 429.75C325.369 407.506 335.264 386.129 335.264 386.129C335.264 386.129 320.902 359.68 284.134 366.005C284.134 366.005 243.957 364.701 224.998 388.85C224.998 388.85 235.035 410.376 235.752 423.292L238.72 451.249L219.761 452.974C219.761 452.974 192.214 379.229 204.279 364.28C216.343 349.33 242.195 340.706 242.195 340.706L315.157 337.831Z" fill="#2F2E41"/>
<path d="M295.889 240.839L294.541 224.536H276.617L272.644 241.809L295.889 240.839Z" fill="#A0616A"/>
<path opacity="0.1" d="M295.889 240.839L294.541 224.536H276.617L272.644 241.809L295.889 240.839Z" fill="black"/>
<path d="M302.348 210.115C302.348 220.944 293.577 229.723 282.756 229.723C271.936 229.723 263.165 220.944 263.165 210.115C263.165 199.286 271.936 190.507 282.756 190.507C293.577 190.507 302.348 199.286 302.348 210.115Z" fill="#A0616A"/>
<path d="M272.644 238.359H295.624L298.496 244.684L301.369 308.507C301.369 308.507 279.538 303.332 260.579 303.907L265.175 245.834L270.92 242.384L272.644 238.359Z" fill="#6C63FF"/>
<path d="M294.475 368.305C294.475 368.305 305.965 342.431 310.561 341.856C315.157 341.281 325.527 341.856 325.527 341.856L323.2 337.831C323.2 337.831 322.625 329.781 316.88 329.781C311.135 329.781 313.433 246.984 313.433 246.984L297.341 242.14C297.341 242.14 288.155 270.558 288.155 297.582C288.155 324.606 287.006 354.505 287.006 354.505L294.475 368.305Z" fill="#2F2E41"/>
<path d="M271.582 240.839L251.387 246.409L253.685 325.756L240.472 341.856C240.472 341.856 257.707 341.856 261.728 356.23C261.728 356.23 266.498 364.09 271.582 363.322C276.665 362.555 273.218 346.455 273.218 346.455L268.048 326.331L268.622 292.407L271.582 240.839Z" fill="#2F2E41"/>
<path d="M277.814 189.486C277.814 189.486 277.814 181.436 285.283 183.161C292.751 184.886 295.049 187.761 295.049 187.761C295.049 187.761 297.922 192.361 302.518 192.936C307.114 193.511 311.135 206.735 310.561 209.61C309.986 212.485 307.114 219.96 311.135 223.41C315.157 226.86 320.902 232.034 319.178 237.209C317.455 242.384 312.284 255.609 312.284 255.609C312.284 255.609 326.706 257.718 325.527 266.726C325.527 266.726 318.604 261.358 309.412 261.358C300.22 261.358 301.369 244.668 301.369 244.668C301.369 244.668 300.794 234.334 299.071 231.459C297.347 228.584 299.645 212.485 291.028 203.86C282.41 195.236 277.814 189.486 277.814 189.486Z" fill="#2F2E41"/>
<path d="M280.112 187.761C280.112 187.761 269.197 190.061 265.175 200.985C261.154 211.91 263.185 213.943 263.185 213.943C263.185 213.943 262.296 220.521 257.416 222.828C252.537 225.135 256.558 234.909 256.558 234.909C256.558 234.909 255.409 244.684 239.898 248.134C224.386 251.584 227.833 271.708 227.833 271.708C227.833 271.708 240.472 253.884 256.558 253.309C272.644 252.734 269.771 234.909 269.771 234.909L268.048 215.935C268.048 215.935 271.495 194.086 281.836 191.211C292.177 188.336 280.112 187.761 280.112 187.761Z" fill="#2F2E41"/>
<path d="M295.697 369.698C295.242 375.047 297.63 379.618 301.032 379.908C304.433 380.197 307.559 376.095 308.014 370.744C308.225 368.609 307.922 366.455 307.13 364.461L308.773 341.771L298.118 341.226L297.629 363.652C296.512 365.484 295.849 367.557 295.697 369.698Z" fill="#A0616A"/>
<path d="M254.333 370.273C253.878 375.622 256.266 380.193 259.668 380.482C263.069 380.772 266.195 376.67 266.65 371.319C266.861 369.184 266.558 367.029 265.766 365.036L267.409 342.346L256.754 341.801L256.266 364.227C255.148 366.059 254.486 368.132 254.333 370.273Z" fill="#A0616A"/>
<path d="M309.125 247.271C309.125 247.271 323.487 243.246 326.36 252.446C329.232 261.646 320.327 312.244 320.327 312.244L311.997 365.142L294.188 361.692L305.678 290.97L309.125 247.271Z" fill="#2F2E41"/>
<path d="M265.868 246.519C265.868 246.519 251.949 241.154 248.221 250.041C244.494 258.928 248.583 310.142 248.583 310.142L251.884 363.591L269.94 361.84L265.175 290.347L265.868 246.519Z" fill="#2F2E41"/>
<path d="M177.697 213.773H60.0871C55.3524 213.773 51.5007 209.917 51.5007 205.179V116.171C51.5007 111.433 55.3524 107.578 60.0871 107.578H177.697C182.432 107.578 186.284 111.433 186.284 116.171V205.179C186.284 209.917 182.432 213.773 177.697 213.773Z" fill="white"/>
<path d="M177.697 213.773H60.0871C55.3524 213.773 51.5007 209.917 51.5007 205.179V116.171C51.5007 111.433 55.3524 107.578 60.0871 107.578H177.697C182.432 107.578 186.284 111.433 186.284 116.171V205.179C186.284 209.917 182.432 213.773 177.697 213.773ZM60.0871 109.013C56.1432 109.013 52.9345 112.224 52.9345 116.171V205.179C52.9345 209.126 56.1432 212.338 60.0871 212.338H177.697C181.641 212.338 184.85 209.126 184.85 205.179V116.171C184.85 112.224 181.641 109.013 177.697 109.013H60.0871Z" fill="#3F3D56"/>
<path d="M164.776 118.341C165.964 118.341 166.927 117.377 166.927 116.188C166.927 114.999 165.964 114.036 164.776 114.036C163.588 114.036 162.625 114.999 162.625 116.188C162.625 117.377 163.588 118.341 164.776 118.341Z" fill="#3F3D56"/>
<path d="M170.511 118.341C171.699 118.341 172.662 117.377 172.662 116.188C172.662 114.999 171.699 114.036 170.511 114.036C169.324 114.036 168.361 114.999 168.361 116.188C168.361 117.377 169.324 118.341 170.511 118.341Z" fill="#3F3D56"/>
<path d="M176.247 118.341C177.435 118.341 178.398 117.377 178.398 116.188C178.398 114.999 177.435 114.036 176.247 114.036C175.059 114.036 174.096 114.999 174.096 116.188C174.096 117.377 175.059 118.341 176.247 118.341Z" fill="#3F3D56"/>
<path d="M63.6885 150.989C63.0955 150.989 62.6131 151.471 62.6131 152.065C62.6131 152.354 62.7248 152.622 62.9275 152.82C63.1319 153.029 63.3997 153.141 63.6885 153.141H174.813C175.406 153.141 175.888 152.658 175.888 152.065C175.888 151.775 175.777 151.508 175.574 151.31C175.37 151.101 175.102 150.989 174.813 150.989H63.6885Z" fill="#E6E6E6"/>
<path d="M154.739 150.63V153.5H63.6885C63.2942 153.5 62.9357 153.342 62.6777 153.077C62.4123 152.818 62.2546 152.46 62.2546 152.065C62.2546 151.276 62.8999 150.63 63.6885 150.63H154.739Z" fill="#6C63FF"/>
<path d="M173.021 145.248H158.682C157.101 145.248 155.814 143.961 155.814 142.378C155.814 140.795 157.101 139.508 158.682 139.508H173.021C174.602 139.508 175.888 140.795 175.888 142.378C175.888 143.961 174.602 145.248 173.021 145.248Z" fill="#E6E6E6"/>
<path d="M79.1025 130.18H64.7639C63.1827 130.18 61.8962 128.893 61.8962 127.31C61.8962 125.727 63.1827 124.44 64.7639 124.44H79.1025C80.6838 124.44 81.9703 125.727 81.9703 127.31C81.9703 128.893 80.6838 130.18 79.1025 130.18Z" fill="#E6E6E6"/>
<path d="M63.6885 183.278C63.0955 183.278 62.6131 183.76 62.6131 184.354C62.6131 184.643 62.7248 184.911 62.9275 185.109C63.1319 185.318 63.3997 185.43 63.6885 185.43H174.813C175.406 185.43 175.888 184.947 175.888 184.354C175.888 184.064 175.777 183.797 175.574 183.599C175.37 183.39 175.102 183.278 174.813 183.278H63.6885Z" fill="#E6E6E6"/>
<path d="M99.5351 182.919V185.789H63.6885C63.2942 185.789 62.9357 185.631 62.6777 185.366C62.4123 185.107 62.2546 184.748 62.2546 184.354C62.2546 183.565 62.8999 182.919 63.6885 182.919H99.5351Z" fill="#6C63FF"/>
<path d="M173.021 177.537H158.682C157.101 177.537 155.814 176.25 155.814 174.667C155.814 173.084 157.101 171.797 158.682 171.797H173.021C174.602 171.797 175.888 173.084 175.888 174.667C175.888 176.25 174.602 177.537 173.021 177.537Z" fill="#E6E6E6"/>
</g>
<defs>
<clipPath id="clip0_308_347">
<rect width="418" height="499" fill="white"/>
</clipPath>
</defs>
</svg>
