<svg width="598" height="534" viewBox="0 0 598 534" fill="none" xmlns="http://www.w3.org/2000/svg">
<path d="M161.603 49.2341C164.027 43.1118 169.252 39.4824 173.27 41.1209C177.289 42.7594 178.584 49.0579 176.161 55.1803C175.227 57.638 173.702 59.8227 171.702 61.5493L161.092 87.3424L148.694 81.8014L160.467 56.9597C160.202 54.3082 160.59 51.6566 161.594 49.2253L161.603 49.2341Z" fill="#A0616A"/>
<path d="M117.147 213.903C117.147 213.903 99.3553 205.288 100.589 199.104C101.823 192.911 154.827 61.0295 154.827 61.0295L179.368 77.1502L117.147 213.912V213.903Z" fill="#E6E6E6"/>
<path d="M383.992 534H213.814C189.061 534 168.926 513.871 168.926 489.126V44.8737C168.926 20.1288 189.061 0 213.814 0H383.992C408.745 0 428.88 20.1288 428.88 44.8737V489.126C428.88 513.871 408.745 534 383.992 534Z" fill="#D7D7D8"/>
<path d="M384.115 521.852H213.691C195.371 521.852 180.461 506.947 180.461 488.633V44.4948C180.461 26.1807 195.371 11.2756 213.691 11.2756H384.115C402.435 11.2756 417.345 26.1807 417.345 44.4948V488.633C417.345 506.947 402.435 521.852 384.115 521.852Z" fill="white"/>
<path d="M323.004 40.8391H274.811C268.449 40.8391 263.276 35.6682 263.276 29.308C263.276 22.9478 268.449 17.7769 274.811 17.7769H323.004C329.366 17.7769 334.539 22.9478 334.539 29.308C334.539 35.6682 329.366 40.8391 323.004 40.8391Z" fill="#D7D7D8"/>
<path d="M379.454 177.759H218.361C211.071 177.759 205.161 183.665 205.161 190.951C205.161 198.236 211.071 204.143 218.361 204.143H379.454C386.744 204.143 392.654 198.236 392.654 190.951C392.654 183.665 386.744 177.759 379.454 177.759Z" fill="#292A7A"/>
<path d="M264.66 155.833H211.356C210.086 155.833 209.056 156.863 209.056 158.132C209.056 159.402 210.086 160.432 211.356 160.432H264.66C265.93 160.432 266.96 159.402 266.96 158.132C266.96 156.863 265.93 155.833 264.66 155.833Z" fill="#292A7A"/>
<path d="M379.454 267.075H218.361C211.071 267.075 205.161 272.981 205.161 280.267C205.161 287.552 211.071 293.458 218.361 293.458H379.454C386.744 293.458 392.654 287.552 392.654 280.267C392.654 272.981 386.744 267.075 379.454 267.075Z" fill="#D7D7D8"/>
<path d="M264.66 245.14H211.356C210.086 245.14 209.056 246.17 209.056 247.439C209.056 248.709 210.086 249.738 211.356 249.738H264.66C265.93 249.738 266.96 248.709 266.96 247.439C266.96 246.17 265.93 245.14 264.66 245.14Z" fill="#D7D7D8"/>
<path d="M379.454 356.382H218.361C211.071 356.382 205.161 362.288 205.161 369.573C205.161 376.859 211.071 382.765 218.361 382.765H379.454C386.744 382.765 392.654 376.859 392.654 369.573C392.654 362.288 386.744 356.382 379.454 356.382Z" fill="#D7D7D8"/>
<path d="M264.66 334.456H211.356C210.086 334.456 209.056 335.485 209.056 336.755C209.056 338.025 210.086 339.054 211.356 339.054H264.66C265.93 339.054 266.96 338.025 266.96 336.755C266.96 335.485 265.93 334.456 264.66 334.456Z" fill="#D7D7D8"/>
<path d="M474.042 108.704C474.042 108.704 455.871 110.757 454.699 138.876C453.721 162.308 451.73 175.372 461.264 180.261C464.674 182.005 468.684 182.164 472.323 180.966L511.255 168.166C511.255 168.166 511.845 125.979 498.363 115.734C484.88 105.48 474.042 108.704 474.042 108.704Z" fill="#2F2E41"/>
<path d="M495.508 173.346L475.804 179.821V151.473H493.675L495.508 173.346Z" fill="#FFB6B6"/>
<path d="M435.278 334.297C434.211 340.79 429.876 345.45 425.602 344.701C421.328 343.952 418.72 338.076 419.795 331.575C420.183 328.976 421.214 326.51 422.8 324.405L427.682 296.947L440.97 299.73L434.74 326.501C435.56 329.038 435.745 331.707 435.278 334.297Z" fill="#FFB6B6"/>
<path d="M542.687 331.144C544 337.592 541.594 343.485 537.329 344.304C533.064 345.124 528.544 340.552 527.24 334.103C526.684 331.531 526.773 328.871 527.495 326.334L522.305 298.929L535.717 296.806L539.409 324.043C541.074 326.122 542.194 328.554 542.687 331.144Z" fill="#FFB6B6"/>
<path d="M488.097 490.729H469.644V516.901H488.097V490.729Z" fill="#FFB6B6"/>
<path d="M451.677 532.749C449.738 532.749 448.011 532.705 446.707 532.582C441.807 532.133 437.128 528.512 434.775 526.398C433.718 525.446 433.383 523.931 433.929 522.628C434.326 521.694 435.11 520.989 436.088 520.716L449.042 517.016L470.015 502.869L470.252 503.292C470.341 503.45 472.403 507.159 473.09 509.661C473.354 510.612 473.284 511.405 472.887 512.021C472.614 512.444 472.226 512.691 471.918 512.832C472.297 513.228 473.486 514.039 477.152 514.62C482.501 515.466 483.629 509.925 483.673 509.696L483.708 509.511L483.867 509.405C486.414 507.767 487.982 507.018 488.52 507.176C488.855 507.273 489.419 507.449 490.943 522.539C491.093 523.015 492.159 526.486 491.437 529.807C490.652 533.419 474.861 532.177 471.698 531.895C471.609 531.904 459.784 532.749 451.686 532.749H451.677Z" fill="#2F2E41"/>
<path d="M540.635 470.172L524.978 479.933L538.832 502.14L554.489 492.379L540.635 470.172Z" fill="#FFB6B6"/>
<path d="M519.846 529.164C517.679 529.164 515.687 528.9 514.268 528.653C512.876 528.406 511.783 527.296 511.554 525.904C511.396 524.9 511.686 523.887 512.374 523.138L521.406 513.149L531.716 490.051L532.139 490.28C532.298 490.368 536.008 492.421 537.92 494.183C538.651 494.852 539.012 495.566 538.995 496.297C538.986 496.808 538.792 497.213 538.598 497.504C539.127 497.645 540.563 497.698 543.982 496.253C548.97 494.148 546.996 488.844 546.908 488.624L546.838 488.448L546.917 488.281C548.212 485.541 549.137 484.079 549.684 483.929C550.027 483.832 550.591 483.682 559.87 495.689C560.249 496.006 562.99 498.394 564.136 501.591C565.378 505.071 551.323 512.374 548.494 513.801C548.406 513.871 533.699 524.557 527.654 527.596C525.257 528.803 522.419 529.173 519.838 529.173L519.846 529.164Z" fill="#2F2E41"/>
<path d="M501.685 271.867H450.02L445.332 319.912L465.846 497.433H492.221L481.673 394.904L524.455 487.47L547.895 471.068L514.489 384.65C514.489 384.65 526.42 309.367 517.044 290.613C507.668 271.867 501.685 271.867 501.685 271.867Z" fill="#2F2E41"/>
<path d="M527.381 274.801H437.719L469.953 168.756H505.703L527.381 274.801Z" fill="#292A7A"/>
<path d="M475.593 168.774C475.593 168.774 453.325 168.184 450.981 174.051C448.637 179.909 421.09 319.348 421.09 319.348H439.261L475.601 168.774H475.593Z" fill="#292A7A"/>
<path d="M490.079 168.897C490.079 168.897 509.695 166.413 512.039 172.271C514.383 178.129 541.929 317.569 541.929 317.569H523.759L490.079 168.897Z" fill="#292A7A"/>
<path d="M478.245 159.322C489.088 159.322 497.878 150.535 497.878 139.695C497.878 128.856 489.088 120.068 478.245 120.068C467.402 120.068 458.612 128.856 458.612 139.695C458.612 150.535 467.402 159.322 478.245 159.322Z" fill="#FFB6B6"/>
<path d="M472.87 116.025C472.87 116.025 462.066 159.886 474.077 180.384L457.158 176.79C457.158 176.79 450.602 128.789 463.784 120.059L472.87 116.016V116.025Z" fill="#2F2E41"/>
<path d="M101.426 153.922L123.994 161.339V128.86H103.515L101.426 153.922Z" fill="#A0616A"/>
<path d="M121.2 137.845C133.62 137.845 143.688 127.78 143.688 115.364C143.688 102.948 133.62 92.8833 121.2 92.8833C108.78 92.8833 98.712 102.948 98.712 115.364C98.712 127.78 108.78 137.845 121.2 137.845Z" fill="#A0616A"/>
<path d="M115.472 117.126L118.574 120.888L124.179 111.074C124.179 111.074 131.334 111.444 131.334 106.132C131.334 100.82 137.899 100.671 137.899 100.671C137.899 100.671 147.196 84.4443 127.941 88.7167C127.941 88.7167 114.582 79.5729 107.947 87.3866C107.947 87.3866 87.5825 97.6404 93.4072 115.488L103.092 133.89L105.286 129.723C105.286 129.723 103.955 112.237 115.472 117.109V117.126Z" fill="#2F2E41"/>
<path d="M94.6497 517.183H113.102V491.011H94.6497V517.183Z" fill="#A0616A"/>
<path d="M111.066 532.176C107.912 532.458 92.1207 533.709 91.3276 530.089C90.605 526.768 91.6712 523.297 91.821 522.821C93.3367 507.722 93.9007 507.555 94.2443 507.458C94.7819 507.299 96.3504 508.048 98.8971 509.687L99.0557 509.793L99.0909 509.977C99.135 510.215 100.263 515.756 105.612 514.902C109.278 514.32 110.467 513.51 110.846 513.114C110.538 512.973 110.15 512.726 109.877 512.303C109.48 511.686 109.41 510.894 109.674 509.942C110.361 507.432 112.424 503.723 112.512 503.573L112.75 503.15L133.722 517.298L146.676 520.998C147.654 521.28 148.438 521.975 148.835 522.909C149.381 524.213 149.046 525.728 147.989 526.68C145.636 528.794 140.966 532.414 136.057 532.864C134.753 532.987 133.026 533.031 131.087 533.031C122.989 533.031 111.163 532.194 111.075 532.176H111.066Z" fill="#2F2E41"/>
<path d="M136.674 265.375L88.2698 262.899C88.2698 262.899 80.8501 291.018 90.2261 320.317L91.354 496.755H118.706L144.49 314.75L136.674 265.375Z" fill="#2F2E41"/>
<path d="M128.505 147.685L101.937 133.59C101.937 133.59 73.307 175.416 77.2636 198.073C81.229 220.73 88.261 262.908 88.261 262.908L146.87 265.384L136.639 182.322L128.505 147.685Z" fill="#E6E6E6"/>
<path d="M107.78 517.183H126.232V491.011H107.78V517.183Z" fill="#A0616A"/>
<path d="M124.196 532.176C121.042 532.458 105.251 533.709 104.457 530.089C103.735 526.768 104.801 523.297 104.951 522.821C106.467 507.722 107.031 507.555 107.374 507.458C107.912 507.299 109.48 508.048 112.027 509.687L112.186 509.793L112.221 509.977C112.265 510.215 113.393 515.756 118.742 514.902C122.408 514.32 123.597 513.51 123.976 513.114C123.668 512.973 123.28 512.726 123.007 512.303C122.61 511.686 122.54 510.894 122.804 509.942C123.491 507.432 125.553 503.723 125.642 503.573L125.879 503.15L146.852 517.298L159.806 520.998C160.784 521.28 161.568 521.975 161.965 522.909C162.511 524.213 162.176 525.728 161.119 526.68C158.766 528.794 154.095 532.414 149.187 532.864C147.883 532.987 146.156 533.031 144.217 533.031C136.119 533.031 124.293 532.194 124.205 532.176H124.196Z" fill="#2F2E41"/>
<path d="M146.87 265.375L88.261 262.899C88.261 262.899 80.8413 291.018 90.2173 320.317L101.549 496.755H128.902L154.686 314.75L146.87 265.375Z" fill="#2F2E41"/>
<path d="M169.384 311.446C171.543 317.666 169.948 323.823 165.833 325.206C161.718 326.581 156.633 322.66 154.474 316.432C153.576 313.957 153.311 311.306 153.699 308.698L144.913 282.227L157.92 278.342L165.207 304.848C167.137 306.69 168.574 308.953 169.393 311.446H169.384Z" fill="#A0616A"/>
<path d="M95.6454 157.639C95.6454 157.639 114.75 152.565 117.861 158.062C120.962 163.559 166.829 298.092 166.829 298.092L137.714 301.88L95.6543 157.639H95.6454Z" fill="#E6E6E6"/>
</svg>
