<svg width="412" height="328" viewBox="0 0 412 328" fill="none" xmlns="http://www.w3.org/2000/svg">
<g clip-path="url(#clip0_308_626)">
<path d="M347.22 314.046C348.842 314.147 349.738 312.134 348.51 310.962L348.388 310.477C348.404 310.438 348.42 310.399 348.436 310.361C349.404 308.055 352.068 306.964 354.382 307.919C361.696 310.939 353.974 317.878 354.554 322.573C354.758 324.194 361.115 324.283 360.755 325.874C364.136 318.493 365.913 310.434 365.91 302.33C365.909 300.294 365.797 298.258 365.568 296.227C365.38 294.566 365.121 292.915 364.785 291.279C362.972 282.436 359.048 274.015 353.391 266.981C350.672 265.498 352.33 263.178 350.96 260.398C350.467 259.395 346.077 259.373 345.894 258.273C346.091 258.299 348.929 255.356 347.991 253.9C347.374 252.943 347.566 251.723 348.359 250.905C348.436 250.824 348.51 250.74 348.577 250.649C350.918 247.477 354.144 248.03 355.83 252.338C359.429 254.15 359.465 257.158 357.258 260.051C355.854 261.892 355.662 264.382 354.43 266.353C354.557 266.515 354.689 266.672 354.816 266.834C357.142 269.811 359.154 273.012 360.851 276.374C360.37 272.637 361.076 268.134 362.281 265.231C363.663 261.899 366.262 259.097 368.539 256.215C371.258 252.774 376.792 254.336 377.273 258.693C377.278 258.735 377.282 258.777 377.286 258.819C376.95 259.008 376.62 259.21 376.298 259.423C374.461 260.637 375.098 263.481 377.274 263.815L377.324 263.823C377.202 265.033 372.901 268.847 372.597 270.027C375.506 281.247 373.329 282.729 364.378 282.917L363.908 283.585C364.757 286.02 365.439 288.514 365.952 291.04C366.435 293.385 366.77 295.755 366.959 298.136C367.193 301.139 367.174 304.158 366.921 307.157L366.936 307.05C367.579 303.748 369.374 300.663 371.98 298.524C375.862 295.337 381.349 294.162 385.537 291.6C387.554 290.366 390.139 291.958 389.788 294.294L389.77 294.405C389.147 294.659 388.538 294.953 387.95 295.282C387.613 295.472 387.283 295.674 386.96 295.887C385.123 297.102 385.76 299.946 387.938 300.279L387.987 300.286C388.023 300.291 388.053 300.296 388.089 300.302C387.019 302.839 376.832 306.419 374.966 308.451C373.152 318.252 374.043 317.96 365.691 315.109H365.686C364.775 319.08 363.442 322.96 361.729 326.658L347.579 326.663C347.528 326.506 347.482 326.344 347.437 326.187C348.745 326.268 350.064 326.191 351.352 325.953C350.302 324.667 349.251 323.37 348.201 322.084C348.176 322.059 348.155 322.034 348.135 322.008L348.119 321.989L346.662 317.199C346.777 316.137 346.965 315.083 347.22 314.046Z" fill="#F2F2F2"/>
<path d="M197.684 326.548L72.4692 326.592C66.1787 326.594 60.5439 323.348 57.3968 317.909C55.823 315.189 55.0359 312.205 55.0349 309.221C55.0339 306.237 55.8192 303.252 57.3907 300.531L119.958 186.787C123.102 181.345 128.734 178.095 135.025 178.093C141.315 178.091 146.95 181.337 150.098 186.776L212.752 300.492C214.322 303.205 215.107 306.185 215.107 309.167C215.107 312.15 214.322 315.134 212.75 317.855C209.607 323.296 203.974 326.546 197.684 326.548ZM56.6089 309.218C56.6087 311.935 70.4257 306.082 71.8571 308.556C74.7203 313.504 66.7456 325.025 72.4686 325.023C72.4686 325.023 208.53 322.021 211.39 317.071C212.819 314.596 213.534 311.881 213.533 309.166C213.532 306.451 212.816 303.737 211.384 301.262L148.73 187.547C145.874 182.613 140.749 179.659 135.026 179.661C129.305 179.663 56.6091 306.502 56.6089 309.218Z" fill="#3F3D56"/>
<path d="M199.074 324.98C197.505 328.117 271.014 327.153 271.883 327.153C271.883 327.153 292.545 326.697 292.979 325.945C293.196 325.569 293.305 325.157 293.305 324.744C293.305 324.332 293.196 323.92 292.978 323.544L283.464 306.276C283.03 305.527 282.252 305.078 281.383 305.079C281.347 305.079 281.293 305.111 281.225 305.172C268.532 316.499 252.89 323.987 235.871 324.239C217.773 324.508 199.174 324.78 199.074 324.98Z" fill="#3F3D56"/>
<path d="M5.87774e-08 327.067C0.000180668 327.585 0.416531 328 0.934823 328L411.066 327.858C411.584 327.858 412 327.442 412 326.925C412 326.407 411.583 325.992 411.065 325.992L0.934179 326.134C0.415887 326.134 -0.00018055 326.55 5.87774e-08 327.067Z" fill="#CCCCCC"/>
<path d="M317.147 322.538L310.045 322.54L306.656 295.183L317.139 295.18L317.147 322.538Z" fill="#A0616A"/>
<path d="M292.813 322.385C292.592 322.757 292.476 323.958 292.476 324.39C292.477 325.72 293.556 326.797 294.888 326.797L316.883 326.789C317.791 326.789 318.527 326.053 318.527 325.146L318.527 324.232C318.527 324.232 319.614 321.483 317.372 318.096C317.372 318.096 314.589 320.75 310.427 316.596L309.2 314.377L300.321 320.866L295.399 321.473C294.322 321.606 293.367 321.453 292.813 322.385Z" fill="#2F2E41"/>
<path d="M289.914 299.139L283.186 301.413L271.203 276.581L281.133 273.225L289.914 299.139Z" fill="#A0616A"/>
<path d="M266.813 306.778C266.723 307.201 266.998 308.375 267.137 308.785C267.564 310.044 268.932 310.72 270.193 310.293L291.027 303.251C291.888 302.961 292.349 302.028 292.058 301.169L291.764 300.303C291.764 300.303 291.913 297.351 288.703 294.86C288.703 294.86 286.917 298.264 281.643 295.66L279.768 293.951L273.438 302.938L268.97 305.087C267.992 305.557 267.039 305.718 266.813 306.778Z" fill="#2F2E41"/>
<path d="M278.943 140.439L265.167 186L248.904 226.983L274.651 285.509L284.198 281.268L272.775 227.504L296.731 191.022L307.91 304.91L317.458 304.377L330.407 166.908L332.253 136.977L278.943 140.439Z" fill="#2F2E41"/>
<path d="M320.549 39.511L300.393 43.2261L298.805 52.2321L286.606 58.0633L280.264 124.282C280.264 124.282 269.659 138.058 278.148 142.293L332.253 136.977C332.253 136.977 334.902 127.183 332.249 126.253C329.596 125.324 329.588 101.928 329.588 101.928L341.772 53.8064L323.734 47.4559L320.549 39.511Z" fill="#E6E6E6"/>
<path d="M308.66 39.3372C317.649 39.3372 324.937 32.06 324.937 23.083C324.937 14.1061 317.649 6.82886 308.66 6.82886C299.671 6.82886 292.384 14.1061 292.384 23.083C292.384 32.06 299.671 39.3372 308.66 39.3372Z" fill="#A0616A"/>
<path d="M319.439 25.4955C318.14 26.2056 319.372 29.5957 318.561 29.8888C317.622 30.2276 314.201 26.3387 314.159 21.9829C314.146 20.6646 314.45 20.0315 314.158 18.4685C313.775 16.4239 312.602 14.0124 311.517 14.0764C310.873 14.1143 310.244 15.0231 310.197 15.834C310.132 16.9706 311.237 17.418 311.078 18.0302C310.775 19.1964 306.132 20.0015 304.479 18.0325C303.184 16.4889 304.177 13.7786 303.598 13.6398C303.171 13.5375 302.713 15.0297 300.96 16.7158C300.299 17.3511 299.317 18.2959 298.761 18.0345C297.957 17.6568 298.541 14.9948 298.32 14.9595C298.137 14.9303 298.022 16.8013 297.001 18.4744C295.69 20.6239 292.985 22.2806 291.723 21.5514C290.95 21.1045 290.889 19.8606 290.843 18.9158C290.745 16.9255 287.848 12.3472 288.598 10.218C290.123 5.88437 292.736 8.93916 293.918 7.49293C295.518 5.53507 296.954 6.58771 299.636 4.41583C302.256 2.29412 302.279 0.161621 304.033 0.0212843C305.613 -0.105094 306.175 1.5781 307.993 1.33782C309.533 1.13427 309.868 -0.171224 311.072 0.0188455C312.174 0.192855 312.247 1.34293 313.712 1.77514C314.647 2.05108 314.853 1.65169 315.911 1.77438C318.114 2.02968 319.594 4.03347 319.871 4.40883C320.94 5.85585 320.525 6.46606 321.632 7.92263C322.587 9.17873 324.702 8.64533 325.497 9.27269C328.096 11.3226 329.212 15.1031 329.235 19.4119C329.251 22.4255 328.857 23.9482 327.979 27.7521C327.312 30.6406 324.224 34.3732 322.522 36.0377C322.065 36.4845 320.784 37.737 319.883 37.3565C319.029 36.9959 319.003 35.3744 319.002 35.1603C318.998 34.4239 319.195 33.5128 320.76 31.206C322.405 28.7828 323.058 28.5063 322.959 27.6908C322.782 26.2493 320.474 24.9295 319.439 25.4955Z" fill="#2F2E41"/>
<path d="M262.664 177.036C262.157 181.273 263.935 184.969 266.635 185.29C269.335 185.612 271.934 182.439 272.44 178.202C272.662 176.348 272.446 174.597 271.907 173.187L273.828 155.209L265.36 154.488L264.365 172.288C263.508 173.531 262.886 175.182 262.664 177.036Z" fill="#A0616A"/>
<path d="M287.004 57.6354C287.004 57.6354 282.617 57.6978 279.712 63.363C278.169 66.3734 269.911 122.669 269.911 122.669L262.303 168.785L275.262 168.85L285.359 125.177L293.854 99.8473L287.004 57.6354Z" fill="#E6E6E6"/>
<path d="M323.47 170.269C322.229 174.352 323.332 178.301 325.934 179.09C328.536 179.878 331.651 177.208 332.892 173.125C333.435 171.338 333.529 169.576 333.245 168.094L338.285 150.728L330.074 148.54L325.977 165.891C324.916 166.966 324.013 168.482 323.47 170.269Z" fill="#A0616A"/>
<path d="M332.49 54.6042C332.49 54.6042 338.853 49.8345 344.16 57.2489C349.468 64.6632 351.611 125.581 351.611 125.581L336.771 163.197L325.63 159.493L336.223 113.403L317.645 78.4472L332.49 54.6042Z" fill="#E6E6E6"/>
<path d="M171.562 301.464C203.221 301.464 228.886 275.834 228.886 244.219C228.886 212.603 203.221 186.973 171.562 186.973C139.903 186.973 114.239 212.603 114.239 244.219C114.239 275.834 139.903 301.464 171.562 301.464Z" fill="#6C63FF"/>
<path d="M171.573 279.311C174.479 279.311 176.836 276.957 176.836 274.054C176.836 271.152 174.479 268.798 171.573 268.798C168.666 268.798 166.309 271.152 166.309 274.054C166.309 276.957 168.666 279.311 171.573 279.311Z" fill="white"/>
<path d="M171.55 209.126C171.067 212.335 171.933 213.006 171.938 226.837C171.943 240.668 174.816 259.213 171.568 259.214C168.319 259.215 167.131 220.944 155.849 217.556C142.586 213.574 173.115 198.741 171.55 209.126Z" fill="white"/>
<path d="M94.6259 273.445L89.4468 284.373C95.7079 279.89 105.487 276.025 113.27 273.955C106.019 270.457 97.1459 264.818 91.8451 259.234L94.8239 270.781C59.9005 263.677 34.8214 236.923 34.8108 206.275L33.5493 205.841C33.5604 237.854 58.2925 266.193 94.6259 273.445Z" fill="#3F3D56"/>
</g>
<defs>
<clipPath id="clip0_308_626">
<rect width="412" height="328" fill="white"/>
</clipPath>
</defs>
</svg>
